<?xml version="1.0" standalone="no"?><!DOCTYPE svg PUBLIC "-//W3C//DTD SVG 1.1//EN" "http://www.w3.org/Graphics/SVG/1.1/DTD/svg11.dtd"><svg t="1681704514846" class="icon" viewBox="0 0 1024 1024" version="1.1" xmlns="http://www.w3.org/2000/svg" p-id="17278" xmlns:xlink="http://www.w3.org/1999/xlink" width="200" height="200"><path d="M208.36 205.94l-41.53 9.76 69.22 185.04 162.89 178.03 46.9 11.84 116.73-97.82 11.55-42.73c-0.01-0.01-339.13-270.75-365.76-244.12z" fill="#B1F1A8" p-id="17279"></path><path d="M400.76 196.9l-22.78 27.21 147.27 110.94 48.86 155.04L757.33 364.9l38.66-112.77-15.4-38.64c0 0.01-376.29-49.85-379.83-16.59z" fill="#D0EECB" p-id="17280"></path><path d="M192.16 206.92s59.01-120.39 163.54-69.33c9.06 4.43 19.1 6.35 29.07 6.11 12.2-0.29 29.67 0.14 46.53 3.54 34.4 6.93 47.09 22.21 45.76 76.87-1.42 58.82 132.32 51.56 93.96 243.2" fill="#B1F1A8" p-id="17281"></path><path d="M475.72 192.91s200.58-210.99 280.5 22.78" fill="#D0EECB" p-id="17282"></path><path d="M371.28 145.2s-236.22 172.49 23.45 393.11M390.9 542.82c-84.91-72.14-126.55-147.03-123.77-222.58 2.08-56.55 29.35-102.43 51.86-130.97 24.29-30.8 47.82-48.13 48.81-48.85l6.98 9.55c-0.23 0.17-23.43 17.29-46.74 46.93-21.33 27.12-47.16 70.62-49.09 123.87-2.6 71.71 37.64 143.38 119.61 213.02l-7.66 9.03z" fill="#B1F1A8" p-id="17283"></path><path d="M149.19 171.63c35.29 29.8 72.76 75.4 84.73 114.03 5.52 17.82 19.19 31.3 36.44 35.27 41.88 9.64 109.37-5.4 121.56 108.76 0.89 8.35 7.79 98.2 23.09 137.61 2.83 7.3 13.7 5.68 14.47-2.12 4.62-46.5 16.35-124.93 114.27-65.1 7.4 4.52 15.95 1.25 18.81-7.29 10.84-32.43 30.38-98.72 59.01-111.74 16.24-7.38 29.15-31.51 30.91-50.19 8.71-92.61 109.4-138.15 165.63-141.33 2.25-0.13 34.09-1.33 35.47 16.14 3.73 47.09-47.26 54.3-56.99 68.86-20.78 31.12-22.93 28.43-1.78 103.31 43.6 172.43-4.38 389.52-306.75 434.6-50.52 7.53-145.89-13.18-198.96-37.1-0.33-0.15-0.64-0.3-0.96-0.48-182.97-98.02-181.26-311.26-175.6-434.52 1.58-34.51 26.61-90.42-2.44-139.04-13.42-22.45 19.71-46.03 39.09-29.67z" fill="#89DBBA" p-id="17284"></path><path d="M523.48 727.36c-0.33 0-0.67-0.03-1-0.08-91.2-15.56-154.8-54.83-189.03-116.73-33.97-61.43-31.98-134.04-24.33-184.13 8.25-53.99 24.2-93.02 24.88-94.66a5.908 5.908 0 0 1 7.72-3.21 5.908 5.908 0 0 1 3.21 7.72c-0.16 0.39-16.16 39.58-24.16 92.23-7.33 48.2-9.28 117.92 23.06 176.36 32.41 58.57 93.19 95.83 180.64 110.75 3.22 0.55 5.39 3.61 4.84 6.83-0.49 2.88-3 4.92-5.83 4.92z" fill="#D0EECB" p-id="17285"></path><path d="M392.93 440.6c116.8-8.05 66.85-196.61 137.29-152.15M393.34 446.51l-0.81-11.8c59.1-4.08 72.57-58.4 83.39-102.04 6.82-27.48 12.2-49.19 27.48-55.34 8.33-3.35 18.14-1.35 29.98 6.13l-6.31 10.01c-8.28-5.23-14.76-6.96-19.25-5.15-9.67 3.89-14.89 24.93-20.41 47.21-11.14 44.85-26.38 106.31-94.07 110.98z" fill="#B1F1A8" p-id="17286"></path><path d="M318.78 563.13c-0.89 0-1.8-0.2-2.65-0.63-48.68-24.5-84.68-56.65-106.99-95.56-17.9-31.22-27.03-66.74-27.15-105.57-0.2-65.75 25.25-117.55 26.33-119.73a5.917 5.917 0 0 1 7.93-2.66 5.925 5.925 0 0 1 2.66 7.93c-0.25 0.51-25.39 51.8-25.09 114.83 0.4 83.79 43.33 147.78 127.63 190.2a5.92 5.92 0 0 1 2.63 7.94 5.959 5.959 0 0 1-5.3 3.25zM341.43 683.58c-23.43 0-46.88-6.78-70.12-20.32-30.04-17.5-59.74-46.33-88.26-85.69-48.19-66.5-76.97-141.45-77.25-142.2a5.915 5.915 0 0 1 3.42-7.63c3.05-1.16 6.47 0.37 7.63 3.42 0.28 0.74 28.58 74.4 75.9 139.63 62.29 85.87 126.16 117.23 189.86 93.2 3.06-1.16 6.47 0.39 7.62 3.45a5.912 5.912 0 0 1-3.45 7.62c-15.06 5.68-30.2 8.52-45.35 8.52zM357.19 758.46c-65.1 0-121.13-18.73-166.56-55.67a5.91 5.91 0 0 1-0.86-8.32c2.06-2.53 5.79-2.92 8.32-0.86 101.3 82.38 232.5 47.19 281.89 33.94 6.3-1.69 11.28-3.03 15.12-3.86a5.925 5.925 0 0 1 7.04 4.52 5.925 5.925 0 0 1-4.52 7.04c-3.56 0.77-8.42 2.08-14.57 3.73-25.33 6.79-72.48 19.44-125.63 19.48h-0.23z" fill="#D0EECB" p-id="17287"></path><path d="M431.3 147.24s-90.06 79.65 30.28 241.11M456.83 391.89c-27.88-37.41-46.87-73.66-56.45-107.73-7.75-27.58-9.39-53.82-4.89-78 7.76-41.62 30.9-62.49 31.88-63.35l7.84 8.86-3.92-4.43 3.93 4.42c-0.21 0.19-21.43 19.55-28.25 57.48-9.1 50.63 11.41 111.38 59.34 175.68l-9.48 7.07z" fill="#B1F1A8" p-id="17288"></path><path d="M430.25 817.9c-2.83 0-5.33-2.04-5.82-4.92a5.922 5.922 0 0 1 4.84-6.83c79.72-13.6 136.25-49.29 168.04-106.07 37.46-66.92 33.88-151.99 24.29-211.57-10.47-65.05-30.21-114.74-30.41-115.23-1.21-3.03 0.26-6.48 3.29-7.69 3.03-1.22 6.48 0.25 7.69 3.29 0.2 0.5 20.36 51.21 31.06 117.49 6.3 39.02 8.16 75.78 5.53 109.27-3.31 42.14-13.78 79.21-31.12 110.2-33.61 60.07-92.96 97.75-176.39 111.99-0.33 0.04-0.67 0.07-1 0.07z" fill="#D0EECB" p-id="17289"></path><path d="M617.36 600.19c-2.17 0-4.25-1.19-5.29-3.26a5.908 5.908 0 0 1 2.63-7.94c84.2-42.37 124.36-113.5 119.36-211.42-3.77-73.84-33.15-136.01-33.45-136.63a5.912 5.912 0 0 1 2.78-7.89 5.915 5.915 0 0 1 7.89 2.78c1.25 2.6 30.61 64.65 34.58 140.79 2.35 45.02-4.79 85.48-21.22 120.25-20.59 43.57-55.78 78.12-104.62 102.69-0.86 0.43-1.77 0.63-2.66 0.63z" fill="#D0EECB" p-id="17290"></path><path d="M535.39 609.73c-41.75 0-78.6-13.43-109.75-40.05-2.48-2.12-2.78-5.86-0.65-8.34a5.912 5.912 0 0 1 8.34-0.66c59.53 50.87 139.48 49.92 237.65-2.8 74.14-39.82 131.02-95.66 131.59-96.22 2.32-2.3 6.07-2.28 8.37 0.05s2.28 6.07-0.05 8.37c-0.58 0.57-58.68 57.61-134.31 98.23-44.71 24.01-86.78 37.73-125.05 40.77-5.46 0.43-10.84 0.65-16.14 0.65z" fill="#D0EECB" p-id="17291"></path><path d="M463.78 819.94c-54.28 0-131.37-18.61-177.09-39.22-0.45-0.2-0.89-0.42-1.33-0.66-43.59-23.35-79.74-54.87-107.45-93.69-23.82-33.37-41.99-73-54.01-117.79-20.9-77.78-20.46-159.16-17.27-228.51 0.44-9.68 2.62-20.83 4.93-32.65 6.04-30.93 13.57-69.43-6.54-103.08-7.18-12.01-4.47-26.02 6.91-35.68 10.63-9.03 28.16-12.46 41.08-1.55 31.48 26.58 73.04 73.12 86.56 116.8 4.98 16.09 16.99 27.77 32.12 31.26 6.79 1.56 14.41 2.46 22.48 3.41 20.49 2.42 43.71 5.16 63.33 19.99 22.44 16.96 35.62 46.56 40.31 90.49 0.09 0.82 0.23 2.42 0.44 4.67 7.24 79.84 16.12 115.53 22.29 131.42 0.11 0.29 0.4 1.06 1.61 0.89 0.61-0.08 1.36-0.4 1.46-1.45 2.31-23.26 7.11-71.66 38.15-87.11 20.91-10.4 48.74-4.67 85.09 17.54 1.94 1.18 3.99 1.48 5.79 0.82 1.96-0.72 3.49-2.47 4.32-4.94 0.9-2.7 1.86-5.63 2.89-8.74 12.22-37.23 30.68-93.5 59.29-106.51 14.28-6.49 25.94-29.12 27.47-45.36 5.08-54.1 39.5-88.86 67.48-108.49 36.95-25.92 77.8-36.72 103.71-38.19 14.79-0.83 40.22 2.77 41.7 21.58 2.9 36.68-24.48 51.94-42.6 62.04-6.8 3.79-13.23 7.37-15.37 10.57a596.15 596.15 0 0 1-3.13 4.65c-16.85 24.97-17.17 25.45 2.13 93.77l0.04 0.16c12.69 50.18 16.88 101.52 12.11 148.47-5.44 53.59-22.08 101.6-49.47 142.72-25.49 38.28-60.24 70.24-103.27 95-47.04 27.07-104.57 45.81-170.98 55.71-7.59 1.14-16.07 1.66-25.18 1.66zM134.19 172.12c-5.33 0-10.66 2.21-14.6 5.56-2.6 2.21-10.61 10.22-4.42 20.59 22.43 37.54 14.43 78.51 8 111.42-2.22 11.37-4.32 22.11-4.72 30.92-4.51 98.31-15.08 328.55 172.5 429.03 0.2 0.11 0.4 0.2 0.6 0.3 51.8 23.35 146.48 43.98 195.66 36.65 124.65-18.58 214.2-67.56 266.15-145.57 67.44-101.25 51.36-219.89 35.76-281.65-19.99-70.77-20-74.65-0.53-103.52 0.98-1.45 2.01-2.98 3.1-4.61 3.72-5.58 11.01-9.64 19.45-14.34 18.22-10.15 38.87-21.66 36.56-50.77-0.81-10.21-23.27-11.04-29.24-10.7-51.64 2.92-151.6 45.79-160.08 135.97-1.86 19.8-15.52 46.47-34.35 55.03-23.88 10.86-42.79 68.47-52.94 99.42-1.03 3.14-2 6.09-2.91 8.81-1.96 5.87-6.15 10.36-11.49 12.3-5.17 1.89-11.01 1.22-16.02-1.84-32.13-19.63-56.91-25.37-73.65-17.04-25.18 12.53-29.55 56.54-31.65 77.68-0.63 6.32-5.3 11.14-11.64 12.01-6.25 0.86-11.97-2.5-14.24-8.33-9.37-24.14-17.13-69.44-23.04-134.64-0.2-2.16-0.33-3.7-0.42-4.49-4.32-40.5-16-67.42-35.68-82.31-17.06-12.9-37.66-15.33-57.58-17.68-8.4-0.99-16.33-1.93-23.74-3.63-19.28-4.44-34.52-19.12-40.77-39.29-11.95-38.59-50.24-83.68-82.89-111.26-3.35-2.82-7.26-4.02-11.18-4.02z" fill="#89DBBA" p-id="17292"></path><path d="M497.17 704.48a215.41 197.03 0 1 0 430.82 0 215.41 197.03 0 1 0-430.82 0Z" fill="#E95A6B" p-id="17293"></path><path d="M712.916346 825.32096a61.08 84.7 41.529 1 0 112.312038-126.816269 61.08 84.7 41.529 1 0-112.312038 126.816269Z" fill="#ED8A96" p-id="17294"></path><path d="M623.13 592.37v30.84c0 15.94 17.87 24.94 30.21 15.23l56.14-44.19c6.1-4.8 14.46-5.31 21.07-1.26l54.44 33.28c14.01 8.57 31.3-3.99 28.01-20.36l-5.52-27.49c-1.63-8.14 2.03-16.43 9.09-20.55l57.39-33.5c14.91-8.7 11.53-31.64-5.24-35.44L717.5 472.39c-2.97-0.67-6.05-0.6-8.98 0.22l-152.96 24.75c-15.52 4.31-18.9 25.3-5.55 34.48l64.81 44.57c5.2 3.59 8.31 9.56 8.31 15.96z" fill="#B1F1A8" p-id="17295"></path><path d="M676.3 505.85l10.85-138.37c2.96-16.78 18.17-27.84 33.96-24.69 15.79 3.15 26.19 19.31 23.22 36.09l-10.85 138.37" fill="#B1F1A8" p-id="17296"></path></svg>