<?xml version="1.0" standalone="no"?><!DOCTYPE svg PUBLIC "-//W3C//DTD SVG 1.1//EN" "http://www.w3.org/Graphics/SVG/1.1/DTD/svg11.dtd"><svg height="1080" legacy-metrics="false" node-id="1" sillyvg="true" template-height="1080" template-width="1080" version="1.1" viewBox="0 0 1080 1080" width="1080" xmlns="http://www.w3.org/2000/svg" xmlns:xlink="http://www.w3.org/1999/xlink"><defs node-id="44"></defs><path d="M 716.30 777.19 L 694.09 787.62 C 696.38 799.07 699.85 817.74 700.94 824.78 L 709.78 820.43 L 714.23 833.15 C 714.23 833.15 722.38 812.94 727.49 806.42 C 732.60 799.90 737.05 798.92 737.05 798.92 Z M 674.24 797.00 L 670.77 798.63 L 674.77 805.15 C 674.77 805.15 617.84 845.00 603.72 853.80 C 589.60 862.60 586.33 863.00 586.33 863.00 L 595.24 873.65 L 650.44 848.22 L 682.83 833.66 L 685.83 832.18 Z" fill="#c2dc82" fill-rule="nonzero" id="path1924-5" node-id="7" stroke="none" target-height="96.46002" target-width="150.71997" target-x="586.33" target-y="777.19"></path><path d="M 903.00 235.55 C 902.99 237.95 901.04 239.89 898.64 239.89 C 896.24 239.89 894.30 237.94 894.30 235.54 C 894.30 233.14 896.25 231.19 898.65 231.19 C 899.81 231.19 900.91 231.65 901.73 232.47 C 902.55 233.29 903.00 234.39 903.00 235.55 Z" fill="#efca87" fill-rule="nonzero" id="path6976-5" node-id="8" stroke="none" target-height="8.699997" target-width="8.700012" target-x="894.3" target-y="231.19"></path><path d="M 923.14 235.55 C 923.14 237.95 921.19 239.90 918.79 239.90 L 918.79 239.90 C 917.02 239.90 915.43 238.84 914.75 237.21 C 914.08 235.58 914.45 233.71 915.70 232.46 C 916.95 231.21 918.82 230.84 920.45 231.51 C 922.08 232.19 923.14 233.78 923.14 235.55 Z" fill="#efca87" fill-rule="nonzero" id="path6978-9" node-id="9" stroke="none" target-height="8.700745" target-width="8.700745" target-x="914.4393" target-y="231.19925"></path><path d="M 791.61 599.58 C 791.61 599.58 790.94 607.42 791.06 610.74 C 791.18 614.06 782.77 621.74 777.87 634.81 C 772.97 647.88 766.58 667.05 766.58 667.05 L 713.13 629.24 C 713.13 629.24 711.77 605.36 713.13 593.39 C 714.49 581.42 715.44 585.57 715.44 585.57 C 715.44 585.57 771.68 609.85 772.16 609.92 C 772.64 609.99 767.88 598.63 767.88 598.63 C 767.88 598.63 787.73 600.40 788.28 600.40 C 789.40 600.19 790.52 599.92 791.61 599.58 Z" fill="#aac3da" fill-rule="nonzero" id="path6980-2" node-id="10" stroke="none" target-height="82.16211" target-width="79.067505" target-x="712.5425" target-y="584.8879"></path><path d="M 267.05 468.48 L 252.83 474.31 C 252.83 474.31 246.83 487.64 243.58 493.76 C 240.33 499.88 236.92 500.83 228.35 504.91 C 219.78 508.99 207.81 522.59 195.57 537.15 C 183.33 551.71 165.24 580.81 152.57 597.54 C 139.90 614.27 130.13 613.73 125.36 617.67 C 120.59 621.61 119.79 632.09 119.79 632.09 C 119.79 632.09 130.67 649.09 186.17 650.18 C 241.67 651.27 258.12 632.77 258.12 632.77 L 262.43 639.77 C 257.99 632.06 255.92 622.20 254.88 619.21 C 253.36 614.87 244.44 596.83 244.23 579.66 C 244.02 562.49 253.79 549.66 245.53 549.66 C 237.27 549.66 220.32 542.66 220.11 540.10 C 219.90 537.54 241.19 545.31 249.66 543.35 C 258.13 541.39 293.56 528.35 301.82 518.35 C 306.27 512.97 308.24 505.84 309.13 500.35 C 305.81 501.41 302.43 502.27 299.00 502.91 C 288.22 504.84 277.45 503.30 266.10 492.91 C 254.75 482.52 267.10 468.48 267.10 468.48 Z M 262.75 640.22 L 264.53 643.11 L 264.60 642.98 C 263.93 642.10 263.31 641.18 262.75 640.22 Z" fill="#f37a81" fill-rule="nonzero" id="path6982-6" node-id="11" stroke="none" target-height="181.69998" target-width="189.34" target-x="119.79" target-y="468.48"></path><path d="M 812.21 601.00 L 787.46 612.10 C 787.46 612.10 795.15 622.16 796.57 623.66 C 797.99 625.16 804.12 628.42 802.42 639.66 C 800.72 650.90 798.00 676.32 796.64 685.84 C 795.28 695.36 806.44 720.39 808.20 727.46 C 809.96 734.53 813.37 751.27 813.37 751.27 L 836.90 738.48 C 836.90 738.48 839.90 729.91 843.84 730.05 C 847.78 730.19 866.28 744.60 866.28 744.60 L 881.65 757.39 L 901.00 745.26 C 901.00 745.26 903.17 738.73 896.92 724.45 C 890.67 710.17 880.73 663.38 873.79 654.81 C 866.85 646.24 869.99 639.57 855.57 629.81 C 841.15 620.05 835.00 615.09 831.87 604.62 C 828.74 594.15 827.11 592.92 827.11 592.92 Z" fill="#aac3da" fill-rule="nonzero" id="path6986-9" node-id="12" stroke="none" target-height="164.47003" target-width="113.87103" target-x="787.46" target-y="592.92"></path><path d="M 713.53 311.76 L 714.76 508.59 L 713.76 543.95 C 712.94 549.00 709.45 553.21 704.64 554.95 C 696.48 557.80 670.09 557.26 670.09 557.26 L 694.44 573.72 C 694.44 573.72 725.86 585.14 728.17 565.29 C 730.48 545.44 728.67 353.29 728.67 331.69 C 728.67 310.09 713.48 311.74 713.48 311.74 Z" fill="#f9f1cb" fill-rule="nonzero" id="path6988-2" node-id="13" stroke="none" target-height="265.20874" target-width="59.253967" target-x="670.09" target-y="311.74"></path><path d="M 650.43 579.28 C 650.43 579.28 504.62 581.59 495.77 576.78 C 486.92 571.97 491.35 561.20 491.35 561.20 L 631.79 562.04 Z" fill="#f9f1cb" fill-rule="nonzero" id="path6990-7" node-id="14" stroke="none" target-height="18.621033" target-width="160.18872" target-x="490.24127" target-y="561.2"></path><path d="M 602.53 371.72 C 602.53 371.72 607.05 382.21 605.42 389.42 C 603.79 396.63 599.94 399.42 595.03 395.48 C 590.12 391.54 584.00 378.00 584.00 378.00 C 584.00 378.00 575.82 388.68 571.69 391.57 C 567.56 394.46 561.49 396.28 561.59 391.37 C 561.65 388.03 563.51 380.37 564.72 375.64 C 557.18 377.24 534.84 381.97 525.83 384.38 C 515.29 387.21 512.14 393.73 513.99 401.38 C 514.87 405.02 515.81 411.38 516.54 417.02 C 518.40 417.86 520.72 418.26 524.18 418.83 C 532.45 420.17 535.43 419.40 535.43 419.40 C 535.43 419.40 535.43 436.14 540.62 439.50 C 545.81 442.86 543.89 444.31 549.95 444.31 C 556.01 444.31 570.25 440.56 575.25 438.16 C 580.25 435.76 586.12 431.16 593.71 435.08 C 601.30 439.00 611.32 444.41 619.49 438.45 C 627.66 432.49 628.63 418.63 628.63 418.06 C 628.63 417.49 633.05 413.63 633.82 413.34 C 634.59 413.05 641.37 412.94 647.11 410.82 C 647.11 405.68 647.27 398.82 648.77 394.36 C 651.23 386.98 636.94 378.07 627.77 375.61 C 625.04 374.88 621.33 373.95 617.47 373.01 C 611.47 372.95 602.61 371.79 602.61 371.79 Z" fill="#f9f1cb" fill-rule="nonzero" id="path6992-8" node-id="15" stroke="none" target-height="72.59" target-width="135.5058" target-x="513.53064" target-y="371.72"></path><path d="M 610.23 452.52 L 547.71 455.21 L 547.71 455.21 C 547.71 455.21 543.10 463.67 537.52 474.83 C 536.94 475.98 536.23 477.22 535.45 478.51 C 536.82 478.94 537.58 479.51 537.45 480.04 C 536.99 482.65 528.69 501.40 520.86 508.47 C 513.34 515.25 499.91 516.76 498.81 516.87 L 498.50 517.03 C 501.64 520.90 506.56 525.26 513.79 526.29 C 526.70 528.14 532.38 522.45 539.15 511.69 C 545.92 500.93 542.22 517.07 536.84 523.53 C 531.46 529.99 542.37 534.75 550.06 532.59 C 557.75 530.43 561.58 533.36 563.12 528.75 C 564.66 524.14 567.58 516.92 567.73 522.91 C 567.88 528.90 572.65 531.98 579.26 530.60 C 580.26 530.39 582.15 530.10 584.43 529.77 C 584.56 523.56 584.66 516.43 584.43 513.68 C 584.04 509.07 571.57 492.17 571.57 492.17 L 604.05 509.07 L 608.57 497.14 C 608.57 497.14 614.27 515.36 620.20 525.02 C 625.44 524.26 629.39 523.61 630.12 523.22 C 632.74 521.84 630.89 515.69 630.59 512.62 C 630.29 509.55 635.04 514.31 637.66 519.22 C 640.28 524.13 656.87 518.46 656.56 516.15 C 656.25 513.84 627.03 504.15 623.40 476.72 C 622.99 476.23 622.51 475.72 622.13 475.21 C 610.97 461.46 610.20 452.51 610.20 452.51 Z" fill="#f9f1cb" fill-rule="nonzero" id="path6994-0" node-id="16" stroke="none" target-height="80.57532" target-width="158.06" target-x="498.5" target-y="452.51"></path><path d="M 205.69 668.92 C 205.69 668.92 218.19 684.50 237.24 705.28 C 256.29 726.06 260.90 753.00 260.90 753.00 L 224.35 720.88 Z" fill="#c2e5df" fill-rule="nonzero" id="path6996-0" node-id="17" stroke="none" target-height="84.08002" target-width="55.20999" target-x="205.69" target-y="668.92"></path><path d="M 328.46 379.57 C 328.46 383.74 325.08 387.12 320.91 387.12 L 320.91 387.12 C 316.74 387.12 313.36 383.74 313.36 379.57 C 313.36 375.40 316.74 372.02 320.91 372.02 C 325.08 372.02 328.46 375.40 328.46 379.57 Z" fill="#e8a1a4" fill-rule="nonzero" id="path7004-5" node-id="18" stroke="none" target-height="15.100006" target-width="15.100006" target-x="313.36" target-y="372.02"></path><path d="M 891.65 706.24 C 891.65 706.24 878.19 680.46 921.28 681.62 C 964.37 682.78 946.47 725.09 948.21 730.48 C 949.95 735.87 950.32 760.48 950.32 760.48 C 950.32 760.48 933.89 751.09 917.43 748.17 C 900.97 745.25 901.94 747.31 901.94 747.31 C 901.94 747.31 902.42 743.65 899.06 732.50 C 895.70 721.35 891.65 706.24 891.65 706.24 Z" fill="#f9f1cb" fill-rule="nonzero" id="path7008-4" node-id="19" stroke="none" target-height="78.859985" target-width="60.799988" target-x="889.6479" target-y="681.62"></path><path d="M 955.51 813.68 C 955.51 813.68 936.06 846.46 915.66 855.57 C 895.26 864.68 924.09 868.22 925.45 874.34 C 926.81 880.46 907.36 895.15 873.76 896.79 C 840.16 898.43 832.96 902.79 832.96 902.79 C 832.96 902.79 918.38 906.33 932.25 899.39 C 946.12 892.45 954.42 890.39 962.31 868.39 C 970.20 846.39 963.06 807.11 963.06 807.11 Z" fill="#f9f1cb" fill-rule="nonzero" id="path7010-3" node-id="20" stroke="none" target-height="96.58252" target-width="133.05103" target-x="832.96" target-y="807.11"></path><path d="M 761.82 431.73 C 761.82 431.73 758.42 458.53 783.72 459.48 C 809.02 460.43 934.84 465.06 950.62 457.99 C 966.40 450.92 969.39 448.99 969.93 414.73 C 970.47 380.47 972.93 256.95 971.29 246.07 C 969.65 235.19 954.43 235.19 954.43 235.19 L 955.51 362.00 C 955.51 362.00 956.87 425.38 950.34 436.13 C 943.81 446.88 923.68 446.46 888.86 446.33 C 854.04 446.20 776.92 445.78 776.92 445.78 C 776.92 445.78 763.32 444.02 761.82 431.78 Z" fill="#f9f1cb" fill-rule="nonzero" id="path7012-6" node-id="21" stroke="none" target-height="226.62885" target-width="210.16663" target-x="761.6787" target-y="235.19"></path><path d="M 1051.11 905.00 C 1051.11 917.59 949.27 929.18 785.21 935.27 C 621.15 941.36 420.77 941.00 262.00 934.29 C 103.23 927.58 24.13 915.63 34.60 903.06 L 536.00 905.00 Z" fill="#f9f1cb" fill-rule="nonzero" id="path7014-2" node-id="22" stroke="none" target-height="36.52002" target-width="1017.401" target-x="33.70896" target-y="903.06"></path><path d="M 310.18 291.61 C 306.45 291.71 302.79 292.62 299.45 294.27 C 284.45 301.44 267.29 335.35 257.29 347.08 C 247.29 358.81 220.29 370.99 195.13 383.81 C 169.97 396.63 155.58 407.94 146.45 422.50 C 137.32 437.06 136.00 446.84 136.00 455.75 C 136.00 464.66 135.13 476.40 146.64 492.91 C 158.15 509.42 172.72 506.60 184.89 488.35 C 197.06 470.10 207.50 473.79 207.50 473.79 C 207.50 473.79 203.15 465.09 227.50 466.18 C 251.85 467.27 258.58 465.53 271.40 441.84 C 284.22 418.15 287.70 384.84 287.70 384.84 C 287.70 384.84 294.77 388.10 295.31 388.32 C 295.85 388.54 300.85 388.32 304.44 377.45 C 308.03 366.58 302.92 367.45 298.44 365.60 C 293.96 363.75 294.96 360.50 304.31 359.96 C 313.66 359.42 325.61 348.11 329.41 338.55 C 333.21 328.99 341.58 334.20 341.58 334.20 L 358.86 344.20 L 353.10 348.20 L 353.43 367.20 C 353.43 367.20 366.14 352.20 370.27 342.64 C 374.40 333.08 375.05 329.71 370.59 315.58 C 366.13 301.45 355.59 308.73 347.34 312.43 C 339.09 316.13 340.82 313.95 333.87 304.82 C 328.65 297.97 320.32 291.43 310.15 291.62 Z M 281.89 362.61 C 284.80 362.83 287.63 363.68 290.18 365.10 C 290.18 365.10 292.45 383.28 292.45 383.85 C 292.45 384.42 291.31 386.12 281.18 382.33 C 271.05 378.54 270.57 368.13 276.18 364.15 C 277.87 363.01 279.88 362.47 281.91 362.61 Z" fill="#9a702d" fill-rule="nonzero" id="path7098-5" node-id="23" stroke="none" target-height="212.18152" target-width="237.65125" target-x="136" target-y="291.61"></path><path d="M 122.18 635.39 C 120.63 639.83 117.13 652.56 120.70 669.68 C 125.16 691.04 148.06 715.68 158.82 730.38 C 169.58 745.08 179.72 765.11 178.64 774.03 C 177.56 782.95 162.35 821.36 154.64 829.03 C 146.93 836.70 139.58 834.87 143.42 846.55 C 147.26 858.23 153.25 869.45 167.08 866.84 C 180.91 864.23 182.61 855.77 183.08 852.84 C 183.55 849.91 186.77 837.01 197.08 824.84 C 207.39 812.67 230.59 796.72 231.35 774.59 C 232.11 752.46 224.35 720.81 224.35 720.81 C 224.35 720.81 257.56 749.41 260.90 752.93 C 264.24 756.45 287.90 775.36 297.13 790.11 C 306.36 804.86 313.72 819.16 316.95 832.53 C 318.85 840.40 317.95 845.13 319.47 848.81 C 338.15 849.65 345.07 839.94 342.47 834.99 C 339.40 829.15 334.02 809.32 327.41 782.89 C 320.80 756.46 310.00 745.60 301.59 731.00 C 293.18 716.40 262.86 661.22 258.25 652.62 C 253.64 644.02 249.33 647.70 233.97 653.85 C 218.61 660.00 190.78 664.76 155.59 657.69 C 136.32 653.82 126.83 643.69 122.18 635.39 Z" fill="#c0a9d1" fill-rule="nonzero" id="path7100-7" node-id="24" stroke="none" target-height="231.81897" target-width="223.81836" target-x="119.15259" target-y="635.39"></path><path d="M 942.19 235.55 C 942.18 237.95 940.23 239.90 937.83 239.90 L 937.83 239.90 C 936.07 239.90 934.48 238.84 933.80 237.21 C 933.13 235.58 933.50 233.70 934.75 232.45 C 936.00 231.21 937.88 230.84 939.51 231.51 C 941.13 232.19 942.19 233.79 942.19 235.55 Z" fill="#efca87" fill-rule="nonzero" id="path7018-5" node-id="25" stroke="none" target-height="8.700439" target-width="8.701355" target-x="933.48865" target-y="231.19955"></path><path d="M 654.48 305.18 C 654.48 307.58 652.53 309.53 650.13 309.53 C 647.73 309.53 645.78 307.58 645.78 305.18 C 645.78 302.78 647.73 300.83 650.13 300.83 L 650.13 300.83 C 652.53 300.83 654.48 302.78 654.48 305.18 Z" fill="#efca87" fill-rule="nonzero" id="path7020-7" node-id="26" stroke="none" target-height="8.700012" target-width="8.699951" target-x="645.78" target-y="300.83"></path><path d="M 674.61 305.18 C 674.61 307.58 672.66 309.53 670.26 309.53 C 667.86 309.53 665.91 307.58 665.91 305.18 C 665.91 302.78 667.86 300.83 670.26 300.83 C 672.66 300.83 674.61 302.78 674.61 305.18 Z" fill="#efca87" fill-rule="nonzero" id="path7022-2" node-id="27" stroke="none" target-height="8.700012" target-width="8.700012" target-x="665.91" target-y="300.83"></path><path d="M 693.65 305.18 C 693.65 307.58 691.70 309.53 689.30 309.53 C 686.90 309.53 684.95 307.58 684.95 305.18 C 684.95 302.78 686.90 300.83 689.30 300.83 C 690.45 300.83 691.56 301.28 692.38 302.10 C 693.20 302.92 693.65 304.03 693.65 305.18 Z" fill="#efca87" fill-rule="nonzero" id="path7024-3" node-id="28" stroke="none" target-height="8.700012" target-width="8.700012" target-x="684.95" target-y="300.83"></path><path d="M 759.29 547.45 C 758.76 549.45 757.49 551.17 755.74 552.28 C 750.90 555.47 749.45 544.19 753.17 545.51 C 754.64 546.12 756.34 545.63 757.26 544.33 C 758.58 542.77 759.83 545.43 759.26 547.45 Z" fill="#483613" fill-rule="nonzero" id="path7026-3" node-id="29" stroke="none" target-height="8.983948" target-width="8.327942" target-x="751.07367" target-y="543.87024"></path><path d="M 786.00 554.85 C 786.00 559.02 782.62 562.40 778.45 562.40 C 774.28 562.40 770.90 559.02 770.90 554.85 C 770.90 550.68 774.28 547.30 778.45 547.30 L 778.45 547.30 C 782.62 547.30 786.00 550.68 786.00 554.85 Z" fill="#e8a1a4" fill-rule="nonzero" id="path7028-2" node-id="30" stroke="none" target-height="15.100037" target-width="15.099976" target-x="770.9" target-y="547.3"></path><path d="M 340.44 383.22 C 339.62 385.12 339.54 387.27 340.23 389.22 C 342.04 394.73 350.18 386.78 346.44 385.51 C 344.91 385.06 343.89 383.60 344.00 382.00 C 343.93 380.00 341.30 381.27 340.47 383.19 Z" fill="#483613" fill-rule="nonzero" id="path7030-0" node-id="31" stroke="none" target-height="10.1006775" target-width="7.6364746" target-x="339.76764" target-y="380.99292"></path><path d="M 359.54 343.00 L 359.54 343.06 L 359.54 343.00 Z" fill="#483613" fill-rule="nonzero" id="path7094-9" node-id="32" stroke="#000000" stroke-linecap="butt" stroke-width="0.43" target-height="0.05999756" target-width="0" target-x="359.54" target-y="343"></path><path d="M 839.93 742.23 C 839.93 742.23 844.27 754.94 835.69 760.59 C 827.11 766.24 808.31 772.76 808.31 772.76 L 869.31 763.42 Z" fill="#f2d0b9" fill-rule="nonzero" id="path2913-5" node-id="33" stroke="none" target-height="30.53003" target-width="61" target-x="808.31" target-y="742.23"></path><path d="M 690.73 167.66 C 682.81 167.66 673.09 167.66 660.85 167.72 C 592.50 168.01 531.07 169.45 476.01 172.08 C 420.33 174.74 411.09 176.52 401.84 186.41 C 392.59 196.30 392.89 194.53 392.11 248.23 C 391.73 274.23 391.11 298.89 390.73 303.08 C 390.35 307.27 389.59 323.03 389.02 338.08 C 388.72 346.08 388.41 354.08 388.13 360.85 C 389.72 353.39 392.05 346.10 395.08 339.10 L 395.67 321.32 C 396.00 311.55 396.76 293.27 397.36 280.70 C 397.97 267.77 398.15 247.44 397.76 233.88 C 396.99 206.63 397.66 201.13 402.69 193.65 C 408.21 185.43 415.10 182.18 431.16 180.20 C 448.40 178.07 523.23 175.58 665.32 172.41 C 672.69 172.24 679.20 172.16 685.22 172.19 L 685.22 172.19 C 702.04 172.22 718.83 173.39 735.49 175.69 C 750.68 177.64 754.99 179.69 758.58 186.61 C 761.05 191.39 761.32 193.06 761.70 206.30 C 762.06 218.65 761.85 221.40 760.27 225.09 C 758.03 230.32 758.09 227.90 757.84 336.09 C 757.72 384.62 758.05 420.25 758.64 424.55 C 759.24 428.73 760.33 432.82 761.90 436.74 C 764.62 442.74 764.53 441.86 765.50 466.37 C 765.93 477.29 766.09 486.65 765.74 489.73 C 767.13 489.36 768.96 488.12 771.33 485.27 L 770.65 465.27 C 770.54 459.35 770.11 453.45 769.37 447.58 C 768.78 445.35 768.81 445.34 772.03 446.94 C 775.61 448.73 803.24 449.45 877.15 449.70 C 937.75 449.90 948.15 448.08 954.08 436.13 C 956.70 430.87 956.92 429.33 957.93 409.22 C 958.58 396.33 958.75 369.39 958.37 341.22 C 958.02 315.53 957.61 280.11 957.46 262.51 C 957.21 235.32 956.91 229.80 955.46 225.76 C 953.73 220.58 949.92 216.36 944.94 214.11 C 940.63 211.97 943.64 211.99 839.10 213.19 C 781.85 213.85 773.90 214.19 768.88 216.26 C 767.38 216.87 767.15 215.52 766.77 203.93 C 766.39 192.34 766.02 190.25 763.63 185.26 C 758.49 174.54 753.56 172.07 731.95 169.42 C 721.95 168.19 714.51 167.77 690.77 167.72 Z M 565.44 190.05 C 549.59 190.05 544.13 190.36 543.39 191.05 C 540.39 194.05 544.24 194.85 563.14 195.42 C 598.14 196.48 624.37 196.42 627.68 195.27 C 631.62 193.89 631.84 191.65 628.09 190.92 C 626.55 190.63 607.15 190.24 584.98 190.08 C 577.17 190.02 570.73 189.99 565.44 190.00 Z M 498.12 190.88 L 476.51 191.00 C 450.81 191.15 441.08 191.85 428.86 194.48 C 421.53 196.05 416.34 200.93 413.29 209.12 C 411.09 215.06 411.01 216.61 410.50 267.74 L 410.00 320.26 C 410.00 320.26 411.07 320.73 416.61 317.78 L 416.61 269.18 C 416.61 222.10 417.11 214.59 420.66 207.63 C 424.13 200.84 427.61 199.42 445.56 197.47 C 451.66 196.81 464.64 196.47 476.63 196.47 L 476.63 196.47 C 488.63 196.47 499.63 196.76 501.80 197.41 C 506.20 198.73 508.46 200.79 512.65 207.33 C 518.71 216.77 512.88 216.06 584.48 216.07 L 642.26 216.07 C 645.91 216.32 649.44 216.19 652.26 213.82 C 654.39 212.00 659.17 209.00 662.03 205.82 C 666.92 200.46 667.60 200.06 673.20 199.38 C 676.48 198.97 691.05 198.88 705.58 199.18 C 735.93 199.79 739.58 200.55 741.43 206.73 C 742.89 211.54 743.64 243.52 744.74 347.73 C 745.26 397.73 746.09 451.88 746.59 468.08 C 747.20 488.23 747.19 496.72 746.50 498.64 C 748.75 497.25 751.09 496.01 753.50 494.94 L 752.83 494.87 L 752.75 485.54 C 752.75 480.41 752.49 475.07 752.28 473.67 C 751.46 468.21 749.79 361.21 749.73 310.91 C 749.73 281.73 749.10 245.66 748.38 230.76 C 746.90 200.07 746.80 199.76 738.78 196.10 C 734.38 194.10 731.96 193.93 705.10 193.60 C 679.74 193.30 675.28 193.47 669.10 195.08 C 662.92 196.69 661.65 197.42 658.95 201.08 C 656.96 203.67 654.55 205.90 651.81 207.68 L 647.75 210.08 L 586.30 210.62 C 552.51 210.91 523.94 210.77 522.82 210.31 C 521.70 209.85 519.00 206.72 516.82 203.37 C 514.64 200.02 510.48 196.24 508.20 194.03 C 505.31 191.23 501.81 190.82 498.20 190.82 Z M 932.84 217.00 L 932.84 217.00 C 934.16 216.97 935.48 217.02 936.79 217.15 C 942.95 218.08 947.59 221.15 949.44 225.62 C 951.23 229.90 952.83 244.78 952.09 250.29 L 951.59 253.98 L 916.92 253.48 C 897.85 253.20 872.42 252.94 860.41 252.89 C 848.40 252.84 821.74 253.21 801.17 253.72 L 763.76 254.65 L 764.10 241.35 C 764.39 229.77 764.71 227.68 766.56 225.19 C 771.01 219.19 770.00 219.29 825.10 219.19 C 852.88 219.12 888.38 218.49 903.99 217.79 C 915.70 217.27 926.93 216.98 932.84 217.03 Z M 680.35 218.00 C 679.63 217.99 678.95 218.33 678.53 218.92 C 677.53 220.52 677.27 236.07 678.21 238.54 C 678.51 239.39 679.25 240.00 680.14 240.14 C 682.14 240.14 682.68 237.67 682.68 227.84 C 682.68 220.44 682.37 218.64 681.05 218.13 C 680.83 218.05 680.59 218.00 680.35 218.00 Z M 667.35 220.95 C 666.99 221.05 666.66 221.25 666.41 221.53 C 665.08 222.84 665.41 239.68 666.83 241.94 C 668.11 244.01 670.27 243.35 670.94 240.69 C 671.85 237.05 670.46 224.18 668.94 222.11 C 668.31 221.26 667.85 220.89 667.36 220.95 Z M 701.23 223.95 C 697.29 223.88 694.94 224.27 694.09 225.12 C 692.82 226.40 692.37 237.29 693.55 238.46 C 694.39 239.31 714.47 239.36 716.66 238.53 C 717.53 238.19 718.15 237.40 718.26 236.47 C 718.26 235.68 719.44 234.58 720.88 234.03 C 723.88 232.90 723.70 230.66 720.61 230.20 C 719.22 229.83 718.07 228.86 717.48 227.56 C 716.59 225.62 715.36 225.12 710.08 224.56 C 706.54 224.19 703.60 223.98 701.23 223.94 Z M 658.41 228.47 C 656.21 228.47 655.05 234.47 656.32 239.16 C 658.51 247.30 661.59 242.27 660.37 232.54 C 660.00 229.87 659.30 228.42 658.37 228.42 Z M 708.61 230.00 C 712.51 230.00 713.19 230.30 713.19 232.00 C 713.19 233.70 712.51 234.00 708.61 234.00 C 704.71 234.00 704.04 233.70 704.04 232.00 C 704.04 230.30 704.68 230.00 708.57 230.00 Z M 466.61 233.34 C 465.96 233.34 465.30 233.41 464.66 233.53 C 462.33 233.97 461.35 234.71 461.35 236.05 C 461.31 237.04 461.79 237.97 462.62 238.51 C 463.99 239.11 471.27 238.39 472.68 237.51 C 475.44 235.80 471.17 233.29 466.61 233.34 Z M 487.25 234.15 C 486.57 234.10 485.89 234.20 485.25 234.43 C 483.40 235.13 483.25 238.76 484.99 239.48 L 486.45 240.07 C 487.55 240.54 491.85 237.81 491.85 236.64 C 491.85 235.47 489.47 234.25 487.28 234.15 Z M 648.79 235.08 C 646.91 235.08 645.86 236.79 646.58 238.68 C 647.58 241.19 650.26 240.40 650.26 237.61 C 650.26 236.08 649.68 235.08 648.79 235.08 Z M 442.00 235.18 C 435.68 235.27 430.78 236.84 430.78 238.96 C 430.74 239.83 430.96 240.68 431.42 241.42 C 432.16 242.16 439.42 241.30 446.02 239.69 C 452.85 238.03 452.18 235.62 444.79 235.23 C 443.84 235.23 442.90 235.17 442.00 235.17 Z M 851.20 258.40 L 851.20 258.40 C 866.86 258.40 888.91 258.56 907.20 258.89 L 951.44 259.70 L 951.89 305.51 C 952.55 372.08 952.23 417.21 951.03 426.31 C 949.39 438.75 945.17 441.95 928.48 443.42 C 915.00 444.61 846.82 445.21 834.48 444.26 C 828.90 443.83 815.41 443.43 804.48 443.38 C 793.55 443.33 782.85 443.26 780.62 443.23 C 774.03 443.13 768.90 438.18 765.08 432.02 C 762.92 428.53 763.31 423.51 762.79 419.02 L 763.27 342.66 C 763.56 296.58 763.78 258.87 763.83 258.87 L 788.49 258.87 C 802.03 258.87 824.31 258.69 838.00 258.47 C 841.42 258.41 845.93 258.39 851.14 258.38 Z M 657.86 282.31 C 638.96 282.21 616.61 283.02 609.55 284.31 C 608.16 284.57 592.85 285.47 575.55 286.31 C 517.55 289.16 505.55 289.91 493.41 291.44 C 486.78 292.28 480.52 292.70 479.50 292.37 C 474.78 290.88 464.80 300.52 461.25 310.00 C 459.52 314.64 459.25 317.06 459.71 322.85 C 460.04 326.77 460.53 338.66 460.79 349.27 C 461.05 359.88 461.18 391.96 462.01 419.61 C 462.84 447.26 460.69 479.40 461.01 491.97 C 462.36 545.61 464.87 557.12 476.31 562.18 C 480.19 563.90 488.87 564.18 524.45 565.18 C 553.53 565.94 571.52 565.92 590.65 565.07 C 605.10 564.43 620.18 564.22 624.17 564.62 L 631.41 565.33 C 631.41 565.33 627.41 559.61 623.83 556.78 C 624.71 558.49 622.42 558.71 615.88 558.71 C 611.02 558.71 587.38 558.94 563.36 559.21 C 539.34 559.48 511.61 559.43 501.74 559.10 C 481.21 558.41 476.01 557.92 471.87 549.68 C 469.12 544.20 468.12 531.62 467.11 489.94 C 466.57 467.43 469.11 424.41 466.82 353.20 L 466.19 333.76 L 481.77 333.16 C 490.34 332.83 527.29 331.64 563.87 330.52 C 649.07 327.91 683.87 326.52 690.82 325.42 C 695.20 324.84 699.61 324.53 704.03 324.48 L 711.64 324.40 L 711.64 433.87 C 711.64 537.67 711.54 543.49 709.81 546.14 C 705.49 552.73 694.13 555.68 677.68 554.48 L 667.98 553.76 C 667.98 553.76 673.25 557.48 679.98 561.38 C 678.55 560.20 679.50 560.29 681.74 560.65 C 687.29 561.55 700.95 559.22 706.74 556.37 C 710.20 554.91 713.07 552.32 714.87 549.02 L 717.66 544.27 L 717.31 424.43 C 716.99 313.01 716.84 304.30 715.19 300.52 C 712.91 295.29 708.49 290.90 701.56 286.99 C 696.14 283.93 695.67 283.86 674.85 282.74 C 670.02 282.48 664.10 282.34 657.85 282.31 Z M 652.92 288.00 C 662.70 288.00 672.43 288.27 680.85 288.85 C 691.96 289.61 694.54 290.13 699.51 292.62 C 707.71 296.73 711.03 301.67 711.80 310.92 L 712.40 318.09 L 702.40 318.79 C 696.87 319.17 687.79 319.89 682.20 320.40 C 676.61 320.91 657.20 321.82 639.04 322.40 C 620.88 322.98 587.75 324.17 565.40 324.97 C 543.05 325.77 513.81 326.69 500.40 326.97 C 486.99 327.25 473.61 327.74 470.66 327.97 C 464.31 328.55 463.80 327.86 464.66 319.87 C 465.30 313.64 469.01 305.76 473.18 301.81 C 478.02 297.22 496.10 295.10 549.18 292.90 C 577.69 291.72 603.10 290.35 624.85 288.83 C 633.34 288.27 643.15 288.00 652.92 288.00 Z M 911.92 292.72 C 908.01 292.74 904.13 293.49 900.49 294.92 C 889.67 299.71 879.72 311.22 867.49 333.08 C 855.49 354.62 848.39 363.62 840.77 367.08 C 836.08 369.23 834.20 368.84 829.77 364.85 C 826.71 362.09 825.91 361.85 821.17 362.32 C 810.94 363.32 796.95 372.43 789.93 382.62 C 786.07 388.22 784.93 393.51 787.01 395.62 C 787.48 396.09 791.01 396.92 794.94 397.45 C 798.87 397.98 809.56 398.18 818.78 397.89 C 849.98 396.89 856.69 392.35 876.71 358.47 C 883.15 347.56 888.45 341.61 893.93 339.14 C 896.18 338.14 898.20 337.48 898.43 337.71 C 898.66 337.94 899.60 348.52 900.53 361.22 C 902.84 392.65 903.02 393.74 906.13 394.81 C 907.88 395.33 909.76 395.26 911.46 394.60 C 914.05 393.60 914.26 393.12 914.26 387.66 C 914.26 384.44 914.96 362.18 915.80 338.20 C 916.80 309.20 917.01 294.27 916.33 293.60 C 915.65 292.93 914.03 292.68 911.90 292.68 Z M 908.07 298.00 L 911.71 298.00 L 911.03 306.89 C 910.66 311.78 910.31 319.78 910.26 324.68 L 910.17 333.58 L 904.84 332.92 C 902.16 332.57 899.46 332.38 896.76 332.35 C 889.50 332.59 880.09 340.99 872.62 353.87 C 865.15 366.75 856.31 379.11 851.54 383.31 C 844.48 389.52 838.46 391.31 820.02 392.44 C 811.23 393.00 803.81 393.38 803.53 393.27 C 803.25 393.16 800.17 392.92 796.68 392.72 C 793.19 392.52 790.33 391.99 790.33 391.54 C 790.33 389.98 796.15 382.77 801.21 378.07 C 806.63 373.04 813.13 369.33 820.21 367.22 C 823.84 366.22 824.31 366.33 826.14 368.65 C 830.07 373.65 837.51 375.65 842.48 373.00 C 850.63 368.69 859.48 358.00 868.59 341.67 C 879.59 321.89 882.10 317.99 888.59 311.17 C 896.96 302.29 903.34 298.00 908.15 298.00 Z M 905.62 338.73 C 905.86 338.74 906.11 338.77 906.35 338.81 L 908.65 339.13 L 908.92 364.27 C 909.10 380.82 908.85 389.41 908.16 389.41 C 907.47 389.41 907.16 386.67 907.16 383.01 C 907.16 376.88 905.76 355.27 904.62 343.88 C 904.17 339.36 904.17 338.63 905.62 338.72 Z M 613.50 354.87 C 612.22 354.87 609.02 357.00 605.99 359.87 C 602.29 363.38 599.10 365.35 595.30 366.47 C 586.08 369.21 580.49 368.23 571.78 362.35 C 564.20 357.23 562.56 356.77 556.60 358.05 C 550.84 359.29 543.54 364.96 543.54 368.20 C 543.54 369.74 542.78 370.11 539.66 370.11 C 535.12 370.11 521.21 374.11 513.66 377.58 C 509.01 379.71 508.07 379.84 505.92 378.65 C 501.79 376.36 494.53 376.84 491.97 379.57 C 488.97 382.74 489.04 387.91 492.09 390.62 L 494.41 392.68 L 491.00 396.00 C 488.48 398.52 487.66 400.23 487.66 402.94 C 487.58 404.65 488.19 406.33 489.34 407.60 C 490.50 408.87 492.12 409.62 493.83 409.70 C 495.20 409.70 495.41 410.56 495.02 414.60 C 494.66 418.28 494.97 419.91 496.26 421.20 C 499.03 423.97 503.49 423.32 507.62 419.53 L 511.30 416.16 L 514.77 417.93 C 518.13 419.32 521.64 420.33 525.23 420.93 L 532.23 422.18 L 533.40 429.11 C 534.71 436.90 536.91 440.35 542.40 443.11 C 545.98 444.93 546.13 445.19 546.08 450.44 C 546.08 455.44 545.49 456.74 538.24 467.82 C 523.54 490.29 511.37 504.31 498.13 514.06 C 494.64 516.62 487.68 519.56 487.35 520.58 C 486.35 523.83 492.80 529.36 497.14 533.08 C 502.59 537.74 509.35 539.67 520.27 539.67 C 527.96 539.67 529.73 540.02 533.99 542.41 C 539.84 545.67 545.99 545.97 552.88 543.31 C 556.88 541.78 558.42 541.67 562.83 542.61 C 570.04 544.16 575.63 544.01 579.17 542.18 C 580.50 541.49 581.62 541.18 582.01 541.39 L 582.01 541.01 C 582.01 540.83 581.40 538.01 580.65 534.94 L 580.65 535.61 L 577.43 536.68 C 575.43 537.33 570.32 537.49 564.23 537.10 C 556.41 536.59 553.29 536.80 549.80 538.10 C 543.66 540.33 541.93 540.10 534.96 536.61 C 529.41 533.79 528.26 533.56 522.18 534.12 C 510.71 535.12 499.88 531.20 497.01 524.90 C 495.46 521.49 495.34 521.73 499.66 519.51 C 504.83 516.85 515.06 507.82 522.42 499.42 C 528.86 492.06 549.68 461.71 549.68 459.67 C 549.68 458.79 553.99 458.46 565.68 458.46 C 582.78 458.46 601.83 457.02 606.07 455.46 C 606.64 455.21 607.25 455.04 607.87 454.97 L 607.87 454.97 C 608.59 454.97 608.93 455.34 609.21 456.24 C 610.99 461.85 613.90 467.29 620.21 476.79 C 632.21 494.84 647.16 508.02 661.16 512.91 L 667.68 515.19 L 663.58 519.28 C 659.65 523.34 654.23 525.60 648.58 525.54 C 645.34 525.84 642.14 526.52 639.05 527.54 C 632.73 529.54 631.27 529.91 628.50 528.80 C 630.65 530.73 634.50 533.23 641.66 536.74 C 636.17 532.54 639.21 532.10 649.96 530.80 C 659.54 529.64 666.96 525.80 670.50 519.97 C 674.23 513.97 673.60 512.97 662.71 507.77 C 657.49 505.33 652.47 502.47 647.71 499.22 C 636.12 490.44 622.31 473.27 616.03 459.84 C 613.17 453.71 612.73 451.84 613.26 447.98 C 613.79 444.12 614.26 443.30 616.55 442.75 C 624.55 440.75 630.76 432.75 631.63 423.07 L 632.16 417.24 L 638.32 414.85 C 647.13 411.44 650.38 411.85 655.13 416.85 C 658.23 420.11 659.74 420.94 662.57 420.94 C 667.74 420.94 669.90 418.16 669.24 412.34 C 668.77 408.15 668.92 407.74 670.91 407.74 C 677.10 407.74 679.77 400.59 675.56 395.25 L 673.56 392.64 L 676.12 390.08 C 679.32 386.89 679.35 384.96 676.27 381.88 C 673.77 379.37 665.92 377.52 662.82 378.70 C 661.82 379.09 655.42 376.55 646.52 372.21 C 638.47 368.29 631.19 365.09 630.34 365.09 C 629.49 365.09 627.62 363.70 626.19 362.00 C 623.19 358.49 616.89 354.93 613.57 354.93 Z M 613.82 359.81 L 617.82 362.46 C 621.70 365.03 623.58 367.57 622.44 368.71 C 620.64 370.52 607.83 370.76 606.09 369.02 C 605.84 368.77 607.47 366.59 609.72 364.19 Z M 562.51 362.28 L 562.51 362.28 C 563.44 362.28 564.01 362.73 564.95 363.58 C 567.51 365.89 566.70 366.58 559.32 368.53 C 552.22 370.37 552.59 370.35 550.64 369.05 C 549.32 368.17 549.38 367.84 551.05 366.56 C 553.22 365.24 555.54 364.19 557.96 363.43 C 559.41 362.83 560.95 362.44 562.51 362.28 Z M 571.96 369.28 L 576.96 371.41 L 581.96 373.54 L 579.72 377.54 C 577.91 380.53 575.85 383.37 573.56 386.01 C 568.35 391.94 566.19 393.07 564.85 390.55 C 563.51 388.03 565.53 380.08 569.15 373.91 Z M 629.11 369.95 L 638.38 374.50 C 643.47 377.00 649.38 379.66 651.54 380.40 C 653.70 381.14 655.91 382.64 656.48 383.71 C 658.11 386.71 656.87 395.90 654.10 401.28 C 651.72 405.92 651.32 406.21 646.56 406.83 C 643.17 407.36 639.85 408.29 636.68 409.60 C 632.15 411.60 631.78 411.60 631.27 409.97 C 628.27 400.24 626.27 402.41 626.27 415.63 C 626.27 424.10 625.94 426.06 623.89 429.63 C 619.12 437.95 612.00 439.14 597.29 434.10 C 589.08 431.28 587.96 431.10 582.95 432.18 C 577.98 433.49 573.11 435.16 568.38 437.18 C 558.04 441.51 553.38 442.48 549.23 441.23 C 540.35 438.57 536.82 427.95 539.77 412.82 C 541.34 404.82 541.23 403.68 538.89 403.68 C 537.13 403.68 534.77 408.06 533.83 413.06 C 533.05 417.23 534.38 417.06 520.65 414.42 C 514.72 413.27 514.49 413.10 512.20 408.30 C 509.43 402.34 508.45 395.70 509.39 389.20 L 510.06 384.69 L 519.42 381.49 C 537.27 375.40 545.82 373.29 547.97 374.44 C 549.12 375.06 552.63 375.25 556.38 374.90 L 562.81 374.30 L 561.17 377.48 C 560.00 380.30 559.27 383.29 559.02 386.33 C 558.60 391.09 558.87 392.45 560.73 394.79 C 564.16 399.12 568.79 398.66 574.49 393.40 C 576.98 391.11 579.22 388.56 581.15 385.78 C 582.32 383.90 583.58 382.38 583.95 382.41 C 584.32 382.44 586.15 385.64 587.95 389.53 C 592.15 398.34 597.39 401.46 603.83 398.99 C 608.12 397.34 609.94 385.85 607.01 378.85 L 605.57 375.41 L 610.97 375.96 C 618.32 376.72 623.41 375.60 626.46 372.55 Z M 596.56 372.45 C 597.90 372.32 598.62 373.32 600.15 376.90 C 601.23 379.85 602.15 382.85 602.90 385.90 C 603.80 389.10 602.27 394.62 599.90 394.62 L 597.28 392.57 C 594.75 390.57 590.11 381.57 588.72 375.93 C 588.09 373.38 588.28 373.14 590.94 373.12 C 592.62 373.10 594.30 372.91 595.94 372.54 C 596.14 372.48 596.35 372.44 596.56 372.42 Z M 499.35 383.36 C 500.80 383.31 502.24 383.56 503.58 384.10 C 504.27 384.53 504.52 386.10 504.22 387.64 C 503.62 390.82 503.53 390.84 499.22 388.98 C 496.13 387.64 494.29 385.14 495.50 383.98 C 495.92 383.55 497.58 383.37 499.31 383.41 Z M 663.98 383.48 C 664.60 383.48 665.47 383.65 666.68 383.85 C 672.78 384.85 673.54 386.05 669.18 387.85 C 663.62 390.18 662.37 389.85 662.37 386.26 C 662.37 384.31 662.37 383.57 663.43 383.47 L 664.00 383.47 Z M 663.13 394.58 L 663.13 394.58 C 664.54 394.58 671.88 399.13 672.28 400.33 C 672.78 401.87 668.28 401.91 664.10 400.41 C 661.83 399.58 661.40 398.95 661.94 397.19 C 662.18 396.31 662.51 395.45 662.94 394.64 C 662.94 394.59 663.04 394.58 663.13 394.58 Z M 500.74 397.77 C 501.59 397.64 502.46 397.97 503.00 398.64 C 503.54 399.54 503.77 400.59 503.66 401.64 C 503.47 402.73 501.82 403.26 497.91 403.48 L 492.43 403.79 L 493.99 401.45 C 495.61 399.32 498.07 398.00 500.74 397.81 Z M 660.07 404.24 L 661.79 407.56 C 662.74 409.40 663.22 411.44 663.19 413.51 L 662.87 416.14 L 659.57 413.35 C 655.73 410.10 655.65 409.71 658.17 406.59 Z M 505.07 407.70 C 505.40 407.70 506.16 408.78 506.76 410.11 C 507.71 412.19 507.50 412.78 505.15 414.49 C 500.44 417.91 499.90 418.09 499.90 416.20 C 499.90 414.31 503.93 407.69 505.00 407.68 Z M 585.80 437.15 C 587.34 437.15 591.38 438.25 594.80 439.61 C 598.07 440.93 601.43 441.99 604.86 442.78 C 608.43 443.44 608.69 443.71 608.07 446.16 C 607.87 447.20 607.53 448.21 607.07 449.16 C 605.82 450.42 596.36 451.51 579.65 452.35 C 549.29 453.87 550.71 454.01 550.71 449.41 C 550.71 447.02 551.12 446.77 555.18 446.59 C 557.67 446.48 564.82 444.34 571.34 441.76 C 577.86 439.18 584.34 437.14 585.83 437.14 Z M 415.34 526.81 C 415.34 526.81 408.73 531.81 408.93 531.81 C 408.93 531.81 410.20 587.81 409.27 657.28 C 408.27 731.93 408.33 743.64 409.84 767.47 C 410.77 782.14 411.97 804.75 412.52 817.71 C 413.07 830.67 413.98 843.38 414.52 845.94 C 415.83 851.75 419.52 857.72 423.68 860.67 C 430.44 865.49 433.49 865.79 485.44 866.82 C 512.44 867.35 534.86 867.58 535.27 867.33 C 536.54 866.55 568.09 868.42 574.42 867.14 L 575.00 867.00 C 575.00 867.00 572.33 863.20 576.79 857.57 L 569.47 861.15 L 516.15 861.15 C 486.81 861.15 455.76 860.83 447.15 860.44 C 431.88 859.74 431.42 859.65 427.86 856.77 C 420.12 850.52 419.18 846.12 417.61 808.67 C 417.04 795.08 416.12 779.84 415.61 774.82 C 414.61 765.42 414.61 759.00 415.08 612.73 Z M 399.90 538.75 C 399.90 538.75 394.55 542.57 394.58 542.93 C 395.12 550.34 394.24 631.93 393.34 652.93 C 391.88 686.79 391.76 844.13 393.18 855.55 C 394.60 866.97 397.05 877.18 399.98 883.85 C 401.29 886.85 402.37 889.48 402.37 889.69 C 402.37 889.90 401.98 890.10 400.73 889.69 C 403.73 891.59 408.13 897.00 415.15 899.23 C 414.84 897.77 414.25 893.23 412.62 892.01 C 404.11 885.72 397.41 859.17 397.28 831.16 C 397.05 784.61 398.33 663.16 399.28 643.27 C 399.94 629.03 400.35 600.13 400.20 579.04 Z M 585.52 597.75 C 580.96 597.75 576.10 597.75 571.18 597.82 C 541.02 598.09 535.18 598.37 534.42 599.63 C 533.92 600.40 533.92 601.40 534.42 602.17 C 535.57 603.54 615.62 604.17 617.62 602.85 C 620.39 600.99 618.01 598.85 612.46 598.16 C 610.23 597.89 599.24 597.74 585.57 597.75 Z M 535.78 643.75 C 500.45 643.75 472.12 644.01 471.78 644.48 C 470.20 647.04 485.03 648.48 523.18 649.38 C 562.26 650.32 644.33 649.72 659.62 648.38 C 670.94 647.38 673.78 646.67 673.20 644.95 C 673.00 644.18 594.67 643.71 535.78 643.77 Z M 478.54 686.80 C 478.54 686.80 470.79 687.24 470.79 689.11 C 470.79 691.97 478.65 691.11 478.79 691.24 C 478.93 691.37 499.61 691.72 524.79 692.04 C 581.54 692.78 579.38 692.81 579.89 691.28 C 580.96 688.01 574.96 687.55 526.56 687.17 Z M 622.63 687.88 C 617.32 687.94 612.01 688.37 606.76 689.17 C 598.92 690.35 595.56 690.06 596.76 692.06 C 597.54 693.32 597.32 695.73 622.01 693.50 C 636.32 692.21 640.01 693.20 640.01 691.50 C 640.00 689.52 633.00 687.85 622.63 687.90 Z M 598.63 737.94 C 577.68 737.86 529.33 740.07 524.99 741.39 C 524.01 741.49 523.26 742.32 523.26 743.31 C 523.26 744.30 524.01 745.13 524.99 745.23 L 524.99 745.23 C 525.99 745.53 533.40 745.49 541.50 745.16 C 549.60 744.83 572.18 744.27 591.69 743.94 C 618.62 743.47 627.25 743.02 627.57 742.06 C 628.43 739.48 622.04 738.44 602.43 737.99 C 601.30 737.99 600.03 737.99 598.63 737.99 Z M 492.90 742.00 C 488.47 742.00 484.83 742.26 484.37 742.73 C 482.86 744.24 483.87 745.06 488.43 746.03 C 493.57 747.11 508.93 746.41 510.30 745.03 C 510.91 744.42 511.08 743.60 510.69 743.20 C 509.88 742.40 500.29 741.93 492.90 742.00 Z M 568.56 805.00 C 557.56 805.23 548.25 813.73 548.18 826.10 C 548.12 834.94 552.50 840.51 561.81 843.46 C 564.95 844.46 573.24 843.58 577.46 841.81 C 587.91 837.44 592.73 826.88 588.69 817.21 C 586.69 812.38 584.54 810.08 579.85 807.69 C 576.37 805.87 572.49 804.95 568.56 805.00 Z M 567.21 811.00 C 583.04 810.54 590.54 827.17 576.45 835.40 C 568.67 839.95 557.45 837.81 554.75 831.25 C 551.62 823.68 556.75 812.54 563.94 811.32 C 565.02 811.14 566.11 811.03 567.21 811.00 Z" fill="#efca87" fill-rule="nonzero" id="path7111-5" node-id="34" stroke="none" target-height="731.56995" target-width="570.423" target-x="388.13" target-y="167.66"></path><path d="M 305.21 409.78 C 305.23 414.65 306.66 419.40 309.34 423.47 C 313.79 430.21 317.60 433.25 318.03 433.58 C 318.46 433.91 322.70 417.28 322.70 417.28 Z" fill="#f2d0b9" fill-rule="nonzero" id="path1899-4" node-id="35" stroke="none" target-height="23.799988" target-width="17.49002" target-x="305.21" target-y="409.78"></path><path d="M 698.58 577.46 C 698.58 577.46 693.26 592.34 679.02 590.39 C 664.78 588.44 646.86 573.33 646.86 573.33 L 693.80 614.40 L 702.39 577.46 Z" fill="#f2d0b9" fill-rule="nonzero" id="path1913-5" node-id="36" stroke="none" target-height="41.070007" target-width="55.53003" target-x="646.86" target-y="573.33"></path><path d="M 768.89 774.14 C 768.89 774.14 723.14 724.72 704.89 712.33 C 686.64 699.94 672.00 695.47 668.70 707.64 C 665.40 719.81 683.70 804.79 689.56 817.17 C 695.42 829.55 694.67 834.24 702.93 833.58 C 711.19 832.92 709.23 821.74 709.23 821.74 L 701.41 763.60 L 737.05 798.92 Z" fill="#c2dc82" fill-rule="nonzero" id="path1922-8" node-id="37" stroke="none" target-height="133.16986" target-width="100.546875" target-x="668.34314" target-y="700.45715"></path><path d="M 779.87 480.66 C 771.50 480.77 764.33 496.09 761.50 497.61 C 758.67 499.13 749.22 495.33 747.50 503.91 C 745.78 512.49 751.50 535.36 751.50 535.36 C 751.50 535.36 757.26 519.00 761.18 513.36 C 763.58 509.92 768.51 506.75 773.18 505.36 L 773.26 505.10 C 773.26 505.10 785.71 495.26 790.16 506.63 C 794.61 518.00 788.39 534.63 794.54 539.56 C 800.69 544.49 814.25 540.93 818.71 543.56 C 823.17 546.19 821.06 546.15 815.06 547.84 C 809.06 549.53 798.43 551.96 798.36 551.98 C 798.48 552.38 798.54 552.80 798.55 553.22 C 799.20 556.63 805.55 585.13 809.55 591.22 C 813.06 596.47 834.15 581.92 846.72 573.07 C 846.32 571.59 845.90 567.69 845.21 565.55 C 841.60 554.33 843.39 550.55 843.94 536.26 C 844.49 521.97 849.80 516.26 834.26 507.35 C 818.72 498.44 788.26 480.62 779.93 480.73 Z" fill="#9a702d" fill-rule="nonzero" id="path1909-8" node-id="38" stroke="none" target-height="111.66031" target-width="99.51941" target-x="747.20056" target-y="480.66"></path><path d="M 795.27 577.00 C 795.27 577.00 794.72 584.60 792.01 588.51 C 789.30 592.42 788.20 594.00 788.20 594.00 L 783.42 586.93 Z" fill="#f2d0b9" fill-rule="nonzero" id="path2915-0" node-id="39" stroke="none" target-height="17" target-width="11.850037" target-x="783.42" target-y="577"></path><path d="M 268.05 251.58 C 266.86 251.62 265.70 252.02 264.73 252.72 C 260.55 255.46 258.73 263.84 258.68 280.26 C 258.68 292.26 258.94 294.97 260.46 297.26 C 262.53 300.43 262.35 300.37 265.62 298.88 C 270.10 296.88 272.67 288.17 273.99 270.67 C 274.88 258.91 272.43 251.67 268.05 251.57 Z M 267.61 256.86 L 268.32 260.80 C 269.12 265.15 267.95 279.58 266.19 287.08 C 265.56 289.73 264.64 292.16 264.14 292.47 C 262.06 293.76 264.04 265.56 266.44 259.71 Z M 215.00 258.58 C 212.16 258.68 210.42 260.75 210.46 264.26 C 210.52 274.26 225.87 294.82 240.30 304.26 C 247.83 309.18 249.75 309.26 250.59 304.76 C 251.43 300.26 249.59 296.69 238.86 281.94 C 229.53 269.05 220.80 259.77 217.13 258.85 C 216.43 258.67 215.71 258.59 214.99 258.61 Z M 217.27 265.84 C 217.86 265.78 218.98 266.47 220.71 268.11 C 224.28 271.49 239.55 291.50 242.92 297.23 C 244.16 299.33 244.85 301.04 244.46 301.04 C 243.08 301.04 229.46 287.22 224.94 281.23 C 218.63 272.90 215.50 266.00 217.25 265.84 Z M 325.31 277.70 C 323.88 277.60 322.46 278.02 321.31 278.88 C 319.55 280.64 321.71 282.76 325.31 282.76 C 327.42 282.76 329.60 284.09 333.19 287.58 C 337.19 291.51 338.36 293.41 339.28 297.79 C 339.85 300.30 340.22 302.84 340.38 305.41 L 340.33 307.64 L 339.07 305.38 C 336.48 300.72 329.57 294.53 324.16 292.01 C 320.10 290.13 316.39 289.31 310.67 289.01 C 303.74 288.67 302.11 288.94 297.28 291.31 C 287.43 296.12 278.71 306.37 265.23 328.95 C 258.95 339.70 250.36 348.92 240.09 355.95 C 236.03 358.66 223.91 365.31 213.17 370.72 C 192.75 381.01 177.17 389.96 167.74 396.87 C 141.08 416.37 129.00 436.00 127.59 461.91 C 127.07 471.48 127.24 472.86 129.95 480.50 C 136.21 498.18 148.01 511.96 159.37 514.84 L 164.00 516.00 L 145.29 525.24 C 134.23 530.70 122.22 535.79 115.92 537.70 C 103.77 541.38 99.10 543.54 95.92 546.96 C 92.38 550.76 89.51 558.35 88.81 565.75 C 88.24 571.91 87.81 572.93 84.42 576.19 C 82.36 578.19 80.42 580.47 80.20 581.30 C 79.78 582.59 79.20 582.55 75.64 580.96 C 69.91 578.38 66.04 579.03 64.10 582.96 C 62.70 585.75 62.24 585.96 59.53 585.24 C 55.53 584.14 45.91 583.91 43.00 584.85 C 40.09 585.79 38.48 589.69 39.78 593.12 C 40.17 594.07 40.51 595.04 40.78 596.03 C 39.50 596.56 38.15 596.89 36.78 597.03 C 33.30 597.59 30.66 599.79 30.66 602.13 C 30.66 604.24 37.71 610.06 42.40 611.82 C 54.83 616.47 82.95 619.47 91.57 617.07 C 92.97 616.68 96.00 617.00 98.45 617.81 C 102.34 619.09 103.31 619.05 107.36 617.51 C 111.59 615.89 112.24 615.89 116.91 617.44 L 121.91 619.10 L 119.36 622.85 C 117.36 625.85 116.94 627.33 117.47 630.16 C 117.79 631.66 117.98 633.19 118.05 634.73 C 118.05 635.29 117.68 641.53 117.35 648.61 C 116.12 674.30 121.62 687.54 145.91 717.50 C 158.70 733.27 164.62 741.65 168.51 749.50 C 172.16 756.86 175.78 767.67 176.00 771.85 C 176.08 773.62 173.95 779.77 170.87 786.57 C 167.96 793.00 163.53 803.28 161.02 809.43 C 155.14 823.82 152.70 827.43 146.59 830.76 C 143.84 832.26 140.96 834.65 140.20 836.08 C 138.26 839.71 138.70 847.98 141.00 851.23 L 143.68 855.02 C 144.15 855.68 139.86 864.72 133.27 876.96 C 127.10 888.41 122.05 898.35 122.05 899.05 C 122.05 900.05 118.30 900.32 106.63 900.32 L 44.69 900.32 C 33.55 900.32 27.61 901.39 27.61 903.32 C 27.57 904.18 27.81 905.02 28.29 905.73 C 29.15 906.59 1009.54 906.36 1038.13 905.50 C 1056.57 904.94 1058.98 904.68 1059.27 903.15 C 1059.71 900.88 1055.94 900.21 1041.42 899.98 C 1035.15 899.87 1032.24 899.71 1030.95 899.24 L 1023.39 899.08 L 1013.39 899.63 C 1007.73 899.95 999.57 900.23 995.27 900.27 L 987.45 900.34 L 980.45 900.34 L 959.55 900.34 C 949.55 900.34 941.06 900.19 939.06 899.99 C 932.06 900.47 918.81 899.78 918.81 899.78 L 918.81 899.78 L 825.12 900.10 C 754.06 900.34 735.49 900.25 732.12 899.37 L 727.75 900.37 L 713.75 900.37 C 698.51 900.37 699.05 900.71 704.07 894.24 C 706.07 892.01 706.41 889.24 705.81 886.24 L 704.55 880.99 C 703.28 875.70 701.94 869.32 701.55 866.81 L 700.88 862.24 L 710.49 862.24 L 710.49 862.24 C 710.49 862.24 710.36 860.24 710.31 857.56 C 710.26 855.19 708.84 852.69 709.40 844.76 C 708.86 845.72 708.11 846.56 707.21 847.20 C 701.56 851.38 700.15 851.20 694.98 845.77 C 691.09 841.68 689.64 839.00 686.84 830.70 C 672.40 787.80 657.29 727.74 657.29 713.00 C 657.29 700.00 661.84 690.00 667.73 690.00 L 667.73 690.00 C 674.73 690.00 680.09 693.42 705.02 713.76 C 718.71 724.92 736.30 738.76 744.12 744.56 C 765.50 760.35 773.12 766.31 773.12 767.36 C 773.12 767.88 771.50 768.98 769.53 769.80 C 767.29 770.86 765.38 772.52 764.01 774.58 C 763.48 775.48 763.09 776.15 762.68 776.75 C 761.28 782.03 759.68 787.59 759.68 787.59 C 759.68 787.59 759.23 791.53 759.12 792.54 C 758.72 796.78 758.12 802.38 757.98 803.48 C 757.35 808.59 761.36 812.88 766.50 806.96 L 767.75 805.52 L 771.96 800.62 L 776.44 801.71 C 779.11 802.41 781.85 802.75 784.61 802.71 C 788.98 802.71 790.00 802.29 792.77 799.28 C 794.51 797.39 797.69 791.71 799.84 786.67 C 804.04 776.81 803.76 777.03 813.20 775.77 C 826.20 774.05 862.26 768.02 865.52 767.04 C 868.37 766.19 870.34 766.30 874.63 767.58 C 881.89 769.73 887.72 769.71 888.56 767.53 C 889.13 766.04 888.77 764.60 886.45 759.04 C 885.98 757.92 887.83 756.48 893.52 753.57 C 895.71 752.44 897.26 751.66 898.60 751.10 C 906.46 745.86 904.48 739.53 904.25 738.25 L 904.25 738.25 C 903.88 737.36 903.58 736.43 903.37 735.49 C 902.78 733.09 900.45 726.33 898.20 720.49 C 895.95 714.65 891.78 700.99 888.95 690.19 C 886.12 679.39 882.71 667.87 881.38 664.57 C 881.38 664.57 875.78 651.69 875.14 650.41 C 869.72 639.58 864.65 633.63 855.67 627.58 C 844.17 619.80 835.42 611.00 834.10 606.00 C 831.37 595.56 831.42 595.28 836.37 592.69 C 841.00 590.26 846.37 585.55 848.88 581.74 C 850.09 579.91 850.06 578.74 848.72 573.62 C 846.06 563.44 845.72 551.54 847.72 537.43 C 850.99 513.98 848.57 510.36 819.30 495.09 C 798.83 484.42 789.46 479.58 783.99 477.95 C 775.30 475.63 764.94 488.85 763.94 490.95 C 762.64 493.72 761.31 495.95 760.99 495.83 C 760.67 495.71 758.69 495.48 756.59 495.25 L 753.45 494.93 C 746.57 494.10 746.03 499.60 745.91 500.27 C 744.91 505.91 745.43 526.66 746.91 533.35 C 747.14 534.35 747.30 535.26 747.41 536.03 C 747.87 537.58 747.92 539.23 747.58 540.81 C 746.66 545.02 746.58 551.99 746.77 555.43 C 746.99 556.68 747.21 558.27 747.49 560.37 C 749.59 576.05 757.34 589.79 765.65 592.53 C 768.65 593.53 770.45 593.42 775.92 591.94 L 782.54 590.15 L 784.41 592.58 C 787.68 596.84 787.01 597.17 777.12 596.16 C 769.12 595.35 767.70 595.44 766.24 596.90 C 764.78 598.36 764.76 599.10 765.71 601.62 C 767.14 605.43 767.06 605.43 755.50 601.56 C 742.19 597.12 720.57 585.56 714.86 579.87 C 710.72 575.72 709.71 575.21 705.65 575.21 C 701.59 575.21 699.58 574.21 690.65 568.45 C 684.54 564.45 681.35 562.45 680.06 561.35 C 673.30 557.45 668.06 553.73 668.06 553.73 L 652.62 543.91 C 647.52 540.67 643.94 538.37 641.72 536.68 C 636.49 533.87 632.79 531.42 628.56 528.74 C 627.96 528.50 627.32 528.22 626.56 527.84 C 622.56 525.92 619.15 519.01 614.73 503.61 C 612.56 496.07 611.73 494.42 609.93 494.16 C 607.55 493.81 605.39 497.05 604.14 502.85 C 603.75 504.67 603.23 506.15 602.99 506.15 C 600.30 504.49 597.70 502.69 595.20 500.76 C 591.81 498.28 584.82 493.49 578.43 489.26 C 569.92 483.62 564.92 492.13 568.05 496.14 C 571.05 499.95 574.69 503.52 577.67 507.24 C 580.65 510.96 581.48 512.55 581.48 516.24 C 581.48 517.82 581.15 522.32 581.00 527.04 L 580.76 534.97 C 580.85 540.52 582.37 542.26 582.57 542.66 C 583.79 545.15 588.52 549.41 592.01 550.91 C 598.19 553.79 605.20 554.35 611.75 552.47 C 618.08 550.84 618.17 550.85 620.61 553.13 C 621.88 554.18 623.01 555.41 623.94 556.77 C 627.54 559.60 631.53 565.32 631.53 565.32 L 640.16 573.09 C 658.72 589.80 687.28 613.28 690.59 614.55 C 691.34 614.84 691.96 616.55 692.01 618.26 C 692.13 624.66 694.20 628.26 699.57 631.26 C 705.57 634.67 708.42 635.94 711.87 636.81 C 713.87 637.32 714.54 637.01 714.98 635.31 C 715.51 633.31 715.88 633.45 720.76 637.53 C 728.51 644.00 753.17 661.64 761.26 666.53 C 763.65 667.97 764.06 668.87 764.06 672.87 C 764.06 679.79 766.21 685.73 772.52 696.30 C 780.84 710.30 781.68 712.67 780.90 720.50 C 780.30 726.50 772.04 753.37 770.16 755.39 C 769.16 756.39 741.03 735.63 715.82 715.29 C 681.97 687.99 675.82 683.95 667.97 683.95 C 663.76 683.95 662.77 684.40 659.49 687.85 C 654.70 692.85 651.84 701.46 651.84 710.85 C 651.84 718.95 656.84 743.85 664.67 774.74 C 669.19 792.56 669.61 795.07 668.20 795.86 C 667.32 796.35 662.14 800.07 656.68 804.12 C 612.59 836.88 595.26 848.64 580.27 855.97 L 576.96 857.58 C 571.44 860.69 573.80 867.29 573.83 867.38 C 574.20 868.57 547.77 878.53 521.26 887.17 C 506.88 891.86 498.35 895.17 495.60 897.23 L 491.48 900.23 L 418.67 900.23 C 418.67 900.23 415.43 895.90 400.73 889.70 C 399.49 889.30 397.39 888.45 393.94 886.99 C 385.24 883.30 376.60 878.11 366.70 870.63 C 360.11 865.63 358.84 864.20 358.23 860.96 C 357.78 858.69 357.07 856.49 356.09 854.39 C 354.84 851.96 354.91 851.14 356.72 847.04 C 359.17 841.50 358.59 838.14 354.64 834.96 C 352.27 833.04 351.17 830.23 347.59 816.96 C 341.40 794.01 333.59 768.26 330.64 760.96 C 326.08 749.74 320.18 738.77 306.41 715.90 C 299.00 703.61 288.34 684.80 282.71 674.10 C 277.08 663.40 271.07 652.37 269.37 649.61 C 267.67 646.85 266.28 644.08 266.28 643.46 C 266.28 642.84 267.72 640.30 269.47 637.81 C 273.81 631.65 274.47 625.00 271.33 618.81 C 267.38 611.78 262.85 605.09 257.78 598.81 C 256.15 596.97 255.65 594.70 255.31 587.58 C 254.81 577.26 256.87 568.20 262.52 555.80 L 265.96 548.24 L 273.49 545.32 C 277.62 543.71 285.69 540.21 291.42 537.55 L 301.83 532.70 L 301.83 540.00 C 301.83 552.51 303.74 565.14 306.49 571.16 C 311.23 581.51 318.94 587.16 326.82 585.93 C 331.70 585.20 340.82 579.08 346.23 572.87 C 348.03 570.82 350.34 569.14 351.36 569.14 C 354.94 569.14 369.47 561.20 381.80 552.51 C 388.51 547.79 415.35 526.79 415.35 526.79 L 418.45 522.50 C 425.45 512.86 426.16 503.96 421.11 489.95 L 418.52 482.76 L 420.60 480.11 C 424.94 474.60 422.60 464.58 415.25 457.56 C 412.02 454.46 411.79 453.88 412.75 451.14 C 413.40 448.74 413.59 446.24 413.31 443.77 C 412.83 439.52 412.92 439.36 416.71 437.68 C 424.34 434.32 432.91 420.20 433.71 409.68 C 434.10 404.31 433.91 403.68 431.34 401.68 C 426.40 397.79 419.78 399.14 413.21 405.39 C 410.27 408.19 409.67 408.49 410.84 406.60 C 412.00 404.48 412.93 402.24 413.62 399.92 C 414.18 397.28 415.93 395.05 418.35 393.87 C 427.07 389.18 434.74 373.69 441.62 346.87 C 447.01 325.87 445.93 317.12 437.47 313.59 C 432.98 311.71 424.67 311.71 420.17 313.59 C 404.42 321.24 399.80 332.22 397.90 334.46 C 393.43 339.73 389.05 356.71 388.18 360.78 C 387.94 366.78 387.72 371.84 387.60 374.07 C 387.21 381.70 387.43 383.17 389.49 386.76 C 391.07 389.32 393.15 391.54 395.60 393.28 C 400.71 396.60 400.76 398.92 395.68 396.80 C 391.17 394.91 387.75 395.63 385.60 398.92 C 383.45 402.21 384.37 404.73 389.25 410.04 L 393.11 414.22 L 391.65 419.79 C 390.82 423.06 390.42 426.42 390.47 429.79 C 390.73 433.84 391.64 435.19 395.10 436.61 C 394.96 438.27 394.62 439.91 394.10 441.49 C 393.10 445.32 392.16 446.57 389.44 447.86 C 387.15 448.95 385.88 450.38 385.50 452.29 C 385.31 453.85 384.25 455.16 382.76 455.67 C 375.76 457.45 366.45 470.06 357.76 489.37 C 349.76 507.10 343.27 519.84 338.02 527.89 C 335.47 531.80 333.36 534.65 333.36 534.21 C 333.36 533.21 339.67 511.41 343.62 498.99 C 347.82 485.74 349.52 477.99 349.80 470.71 L 350.03 464.53 L 354.33 462.88 C 358.89 461.14 364.28 455.82 365.99 451.36 C 368.34 445.26 367.23 439.51 361.40 427.58 C 355.40 415.31 353.13 407.95 352.04 397.13 C 352.04 397.13 353.85 375.77 355.77 372.75 C 356.64 371.04 357.67 369.42 358.85 367.91 C 363.85 361.29 370.97 347.37 374.02 338.36 C 375.72 333.27 376.11 330.25 375.77 324.26 C 374.77 307.12 365.47 300.13 352.01 306.39 L 346.82 308.81 L 346.16 301.75 C 345.16 290.68 341.70 284.21 334.53 279.84 C 331.73 278.27 328.55 277.49 325.34 277.56 Z M 51.10 900.25 L 47.79 895.46 C 48.19 896.10 48.57 896.70 48.94 897.22 Z M 309.92 295.52 C 317.03 295.71 323.82 298.50 329.00 303.37 C 331.70 306.30 334.05 309.53 336.00 313.00 C 337.95 316.49 340.24 319.35 341.09 319.35 C 341.94 319.35 344.09 318.26 345.87 316.93 C 354.33 310.58 362.08 308.61 365.42 311.93 C 372.93 319.44 371.31 333.51 360.56 354.16 C 356.40 362.16 356.20 362.37 355.56 359.45 C 354.20 353.09 354.56 349.97 356.72 349.28 C 359.72 348.34 362.40 343.93 360.91 342.44 C 360.03 341.56 359.44 341.57 358.52 342.44 C 355.90 345.07 351.03 343.85 346.66 339.44 C 344.36 337.14 342.48 334.85 342.48 334.36 C 342.48 333.87 341.82 333.47 341.00 333.47 C 340.18 333.47 337.63 337.13 335.29 341.62 C 330.93 350.00 326.49 354.69 318.48 359.39 C 312.98 362.61 303.58 365.04 299.65 364.26 C 297.01 363.73 296.65 363.92 296.93 365.56 C 297.12 366.62 298.76 368.18 300.56 369.01 C 303.56 370.41 303.78 370.82 303.20 374.09 C 302.11 380.18 300.20 384.75 298.70 384.75 C 296.37 384.75 293.91 378.27 292.19 367.55 C 290.38 356.29 290.19 355.81 287.94 355.81 C 286.56 355.81 286.43 357.12 286.94 365.71 C 287.14 369.95 287.56 374.17 288.20 378.37 C 288.84 381.02 288.75 381.09 285.83 380.25 C 278.94 378.25 274.44 372.74 275.92 368.07 C 276.59 365.97 279.85 364.54 282.61 365.14 C 285.19 365.70 284.16 362.48 281.32 361.14 C 277.46 359.29 272.19 361.56 270.42 365.85 C 266.58 375.10 276.22 386.30 288.01 386.30 C 294.01 386.30 294.39 387.62 292.23 402.30 C 287.28 435.91 274.23 463.46 260.60 469.16 C 255.87 471.16 246.92 470.92 235.73 468.56 C 219.73 465.19 207.09 466.42 200.64 471.97 C 197.31 474.84 198.13 477.05 201.98 475.58 C 203.44 475.03 204.81 474.76 204.98 474.98 C 205.98 475.98 182.11 502.89 175.98 507.70 C 171.41 511.27 168.11 511.90 162.69 510.25 C 152.03 507.01 142.01 495.85 135.87 480.39 C 130.29 466.39 131.48 453.64 140.00 436.09 C 144.09 427.66 146.00 425.15 155.46 415.66 C 168.91 402.18 183.55 392.35 210.64 378.61 C 238.56 364.44 252.78 355.61 259.44 348.19 C 262.25 345.07 270.44 332.94 276.39 322.96 C 282.67 312.49 292.08 302.01 298.70 298.12 C 302.13 296.21 306.01 295.28 309.93 295.44 Z M 211.43 313.18 C 203.83 313.12 196.95 314.04 194.49 315.87 C 191.31 318.24 190.32 321.71 192.19 323.96 C 192.86 324.77 195.53 326.08 198.11 326.87 C 206.48 329.45 234.23 328.39 240.11 325.27 C 242.62 323.94 242.32 320.66 239.52 318.83 C 238.22 317.98 233.36 316.32 228.73 315.15 C 223.05 313.83 217.25 313.16 211.42 313.15 Z M 428.43 318.57 C 433.25 318.48 436.62 320.14 437.97 323.40 C 439.61 327.40 437.50 339.40 432.30 355.89 C 426.00 375.66 420.54 385.80 414.44 389.00 C 411.86 389.99 409.12 390.49 406.36 390.46 C 401.62 390.46 400.73 390.08 397.17 386.52 C 393.38 382.73 393.23 382.32 393.23 375.81 C 393.23 367.31 395.62 355.53 399.23 346.14 C 402.32 338.14 411.34 325.64 412.85 324.45 C 413.60 323.87 414.85 323.14 415.74 322.51 C 417.98 321.02 420.46 319.93 423.07 319.30 C 424.80 318.90 426.57 318.67 428.35 318.62 Z M 208.30 319.33 L 211.83 319.33 C 219.83 319.47 228.75 320.33 228.75 321.48 C 228.75 322.63 202.61 322.48 199.86 321.48 C 198.03 320.76 198.06 320.66 200.36 320.04 C 202.98 319.54 205.64 319.31 208.30 319.36 Z M 418.76 337.64 C 413.90 337.75 407.76 347.64 404.38 360.71 C 402.19 369.30 401.91 374.36 403.47 377.28 C 405.03 380.20 409.19 379.73 412.69 375.94 C 419.26 368.84 425.69 350.64 424.11 343.83 C 423.30 340.43 420.85 337.59 418.76 337.64 Z M 341.58 342.64 L 344.32 345.20 C 345.77 346.56 347.29 347.84 348.87 349.05 C 350.51 350.23 350.61 351.50 349.87 363.05 C 349.59 367.35 349.36 370.19 349.10 372.05 C 348.84 377.31 348.18 383.98 346.40 388.05 L 344.00 393.71 C 340.28 402.86 335.42 408.81 329.00 412.10 C 321.93 415.72 317.00 415.20 310.41 410.16 C 305.72 406.58 304.17 406.92 305.27 411.30 C 305.96 414.03 313.27 419.87 315.99 419.87 C 318.71 419.87 318.91 420.70 317.42 425.67 C 316.59 428.60 316.11 431.62 316.01 434.67 C 316.01 438.25 315.47 439.44 312.89 441.62 C 306.95 446.62 299.17 444.09 296.63 436.36 C 295.96 434.30 295.08 432.31 294.00 430.43 C 292.81 428.60 292.89 427.12 294.62 419.88 C 295.73 415.25 297.17 407.04 297.82 401.65 C 298.93 392.50 299.21 391.72 301.82 390.19 C 304.66 388.56 305.39 386.82 308.82 373.58 C 309.75 369.94 310.41 369.25 314.09 368.04 C 323.25 365.04 335.33 354.63 339.77 345.95 Z M 417.27 344.27 C 417.53 344.32 417.77 344.45 417.95 344.65 C 419.46 346.16 415.95 359.82 412.54 365.83 C 410.86 368.76 409.27 371.16 409.00 371.16 C 407.79 371.16 408.74 364.53 411.12 356.30 C 413.50 348.07 415.61 344.03 417.27 344.30 Z M 406.34 397.56 C 407.76 397.56 408.02 398.26 407.69 401.12 C 407.24 404.96 406.40 405.50 404.49 403.20 C 402.89 401.26 404.10 397.56 406.34 397.56 Z M 391.00 401.71 C 393.71 401.71 406.42 410.63 406.42 412.80 C 406.42 414.32 405.29 413.98 399.67 410.80 C 394.77 407.98 389.58 402.89 390.60 401.88 C 390.71 401.78 390.85 401.74 391.00 401.75 Z M 346.42 403.43 L 347.05 406.32 C 348.95 414.87 351.11 420.85 355.66 430.17 C 361.41 441.92 361.97 446.17 358.43 451.35 C 356.86 453.52 355.02 455.47 352.94 457.15 L 349.73 459.60 L 348.15 454.18 C 345.26 444.23 335.90 436.12 327.33 436.12 C 323.71 436.12 323.24 435.82 322.65 433.12 C 322.03 430.29 323.30 423.62 324.92 421.25 C 325.34 420.63 327.29 419.60 329.26 418.96 C 333.71 417.51 339.73 412.62 343.53 407.38 Z M 425.22 405.98 C 428.49 405.98 428.47 409.67 425.48 417.49 C 423.86 421.47 421.52 425.12 418.56 428.24 C 416.00 430.90 413.15 433.07 412.23 433.07 C 410.00 433.07 408.47 430.00 407.79 424.15 C 407.29 419.83 407.47 419.26 409.62 418.34 C 411.22 417.57 412.31 416.04 412.51 414.28 C 412.92 411.81 414.10 410.67 418.69 408.28 C 421.56 406.77 423.69 406.00 425.21 405.99 Z M 398.81 417.34 L 398.81 417.34 C 399.37 417.39 399.91 417.57 400.38 417.87 C 403.23 419.39 403.02 424.99 400.00 427.81 C 396.49 431.12 395.92 430.57 396.55 424.46 C 397.09 419.21 397.55 417.36 398.81 417.34 Z M 402.87 433.48 L 402.87 433.48 C 403.54 433.43 404.43 434.15 405.62 435.66 C 406.81 437.17 407.89 438.96 407.83 439.39 C 407.77 439.82 407.67 442.46 407.58 445.26 C 407.49 448.06 407.09 450.26 406.67 450.26 C 405.43 450.13 399.49 447.84 398.94 447.26 C 398.20 446.51 401.04 434.97 402.26 433.75 C 402.42 433.58 402.63 433.48 402.86 433.46 Z M 290.40 435.75 L 292.16 439.23 C 293.31 441.41 294.71 443.45 296.33 445.30 L 298.74 447.88 L 296.08 451.88 C 292.52 457.26 286.66 463.38 283.53 465.00 C 280.09 466.77 277.27 467.41 275.21 466.88 C 273.76 466.51 274.04 465.71 277.05 461.77 C 280.93 456.69 284.61 449.88 288.14 441.24 Z M 325.91 441.12 L 325.91 441.12 C 328.05 441.19 330.14 441.71 332.07 442.63 C 339.02 446.26 343.16 453.58 344.13 463.96 C 344.91 472.39 343.36 480.72 337.36 500.18 C 334.61 509.06 331.60 520.10 330.66 524.72 C 329.81 529.02 328.58 533.24 327.00 537.33 C 325.53 540.54 325.13 543.33 325.36 548.93 C 325.71 557.52 327.73 559.74 328.85 552.76 L 329.54 548.40 L 331.28 553.50 C 333.79 560.89 335.92 564.64 338.97 567.04 C 342.02 569.44 341.75 570.25 333.97 576.44 C 324.49 583.95 316.13 580.58 310.84 567.13 C 309.12 562.75 308.49 558.27 307.92 546.31 L 307.19 531.08 L 312.04 526.51 C 317.83 521.06 319.76 517.42 321.68 508.39 C 323.52 499.66 323.51 492.05 321.63 482.23 C 320.00 473.69 318.82 471.52 316.86 473.47 C 315.94 474.40 315.95 476.84 316.86 484.06 C 318.34 495.13 318.52 494.85 307.35 498.37 C 297.35 501.51 284.80 501.46 278.24 498.25 C 272.42 495.41 265.24 487.83 265.24 484.56 C 265.24 481.29 268.14 473.04 269.77 471.69 C 270.77 470.89 271.82 470.91 273.68 471.76 C 277.06 473.29 282.39 472.24 286.97 469.13 L 290.63 466.65 L 290.63 471.24 C 290.63 479.89 295.06 484.19 301.47 481.75 C 306.02 480.02 310.93 475.82 313.94 471.07 C 315.94 467.93 317.04 466.99 317.82 467.78 C 319.71 469.67 324.41 469.02 326.37 466.60 C 328.69 463.73 328.86 453.80 326.70 446.69 C 325.87 443.95 325.17 441.59 325.17 441.45 C 325.17 441.31 325.45 441.14 325.91 441.12 Z M 319.48 444.31 C 320.69 444.45 321.20 446.96 322.17 453.20 C 324.10 465.63 320.56 466.39 315.37 454.66 L 313.00 449.28 L 316.30 446.33 C 317.79 445.00 318.77 444.23 319.49 444.33 Z M 305.00 450.00 C 305.45 449.97 305.90 450.01 306.33 450.12 C 307.83 450.40 308.94 451.31 308.94 452.27 C 309.32 454.39 310.00 456.45 310.94 458.39 L 312.94 462.85 L 309.73 467.85 C 307.88 470.70 305.56 473.23 302.88 475.32 C 300.88 476.68 298.69 477.80 298.02 477.80 C 296.24 477.80 295.37 474.17 295.53 467.34 C 295.63 462.50 296.17 460.71 298.23 458.26 C 299.74 456.44 301.08 454.48 302.23 452.42 C 303.09 450.76 303.78 450.08 304.93 450.00 Z M 394.37 452.70 C 402.71 453.05 416.57 464.98 416.57 472.83 C 416.57 474.38 416.11 475.93 415.57 476.27 C 415.03 476.61 414.57 476.35 414.57 475.68 C 414.57 474.54 404.73 462.63 401.38 459.68 C 399.31 458.25 397.10 457.02 394.80 456.01 C 390.29 453.92 389.99 453.60 392.02 452.95 C 392.79 452.72 393.60 452.62 394.41 452.67 Z M 390.53 460.92 C 391.55 460.95 392.57 461.14 393.53 461.48 C 396.45 462.59 406.26 474.01 409.94 480.58 C 413.37 487.00 415.93 493.85 417.54 500.95 C 418.43 506.56 417.31 512.31 414.37 517.17 C 412.43 520.30 412.14 520.44 410.50 518.96 C 408.86 517.48 408.58 517.54 407.50 518.85 C 406.72 520.13 406.40 521.64 406.60 523.13 C 406.89 525.58 405.86 526.73 398.00 532.70 C 385.72 542.00 368.00 553.84 358.07 559.27 C 346.45 565.66 345.02 565.89 341.38 562.00 C 338.73 559.16 334.32 548.00 334.32 544.18 C 334.32 543.40 336.54 540.02 339.25 536.65 C 345.37 529.06 352.70 515.91 360.70 498.15 C 364.08 490.65 368.47 481.61 370.45 478.07 L 374.05 471.62 L 377.25 473.42 C 381.83 476.00 393.38 487.75 395.75 492.23 C 399.00 498.40 402.42 496.85 400.29 490.18 C 398.29 484.09 391.65 476.07 384.51 471.29 L 377.90 466.85 L 380.90 464.31 C 383.61 462.07 387.02 460.86 390.53 460.88 Z M 218.91 472.65 C 224.91 472.65 249.01 477.01 249.01 478.15 C 249.01 479.68 243.95 487.96 239.27 494.08 C 235.92 498.48 233.39 500.50 228.01 503.08 C 222.63 505.66 218.65 508.91 209.40 518.24 C 202.54 525.21 196.06 532.55 190.00 540.22 C 185.77 545.81 181.43 550.52 180.35 550.71 C 179.27 550.90 175.64 551.25 172.29 551.52 C 161.40 552.39 156.90 547.34 155.81 533.06 L 155.26 525.76 L 160.16 523.89 C 172.78 519.07 187.54 505.99 206.16 483.09 C 214.41 472.96 214.75 472.68 218.84 472.65 Z M 260.33 475.88 C 260.48 475.87 260.63 475.90 260.77 475.97 C 260.97 476.18 260.68 478.03 260.12 480.09 C 257.02 491.28 269.25 503.89 285.41 506.17 C 292.23 507.17 302.79 505.60 312.24 502.27 L 318.09 500.21 L 317.48 502.95 C 315.62 511.42 313.71 516.56 311.38 519.32 C 309.75 521.26 303.95 524.75 295.90 528.63 L 272.59 539.92 L 262.13 545.00 L 258.71 551.79 C 251.43 566.26 248.10 581.61 250.10 591.52 C 250.72 594.58 251.30 597.57 251.39 598.15 C 251.70 600.15 238.39 611.02 231.31 614.58 C 225.93 617.07 220.34 619.08 214.60 620.58 C 202.33 623.69 184.50 624.58 174.36 622.58 C 165.00 620.95 156.07 617.40 148.15 612.15 L 144.29 609.71 L 152.02 601.49 C 160.54 592.43 169.54 580.15 181.29 561.57 C 190.27 547.14 200.91 533.81 213.00 521.85 C 224.19 510.58 229.85 506.75 238.65 504.53 C 247.93 502.19 247.86 502.24 245.30 500.16 L 243.00 498.33 L 245.60 494.90 C 249.01 490.40 253.04 481.90 253.04 479.14 C 253.04 477.46 253.87 476.82 256.71 476.28 C 257.90 476.04 259.10 475.90 260.31 475.88 Z M 781.57 482.88 C 782.64 482.88 788.57 485.79 794.80 489.35 C 801.03 492.91 812.25 498.90 819.80 502.68 C 842.64 514.10 843.99 515.81 842.55 531.43 C 841.18 546.21 841.62 567.82 843.41 573.43 C 844.91 578.12 844.91 578.14 841.91 581.35 C 837.91 585.60 832.87 588.74 827.29 590.46 C 824.26 591.44 821.36 592.78 818.65 594.46 C 810.20 599.82 810.14 599.83 807.88 597.35 C 806.66 595.98 805.59 594.49 804.69 592.89 C 802.69 588.89 799.47 573.89 799.52 568.19 C 799.52 562.87 800.78 555.38 801.83 554.33 C 802.10 554.06 805.03 553.46 808.35 552.99 C 812.21 552.35 815.96 551.20 819.50 549.55 C 824.23 547.15 829.95 541.78 829.95 539.73 C 829.95 537.68 827.72 537.73 824.95 539.73 C 818.45 544.36 810.72 547.10 803.74 547.25 C 795.52 547.41 790.82 545.60 788.67 541.44 C 786.52 537.28 785.87 527.74 787.10 518.94 C 788.89 506.08 786.63 501.16 778.91 501.18 C 771.19 501.20 759.31 508.76 757.57 514.88 C 757.25 516.00 755.89 519.83 754.57 523.39 C 751.44 531.65 750.79 530.09 750.79 514.39 C 750.79 500.47 751.27 499.57 758.34 500.39 C 762.64 500.87 762.95 500.72 765.90 496.71 C 772.48 487.77 778.05 482.88 781.63 482.88 Z M 575.63 495.18 C 576.81 495.35 577.91 495.83 578.84 496.58 C 584.02 499.97 591.31 504.93 597.67 509.46 C 601.47 512.17 604.96 514.14 605.44 513.85 C 605.92 513.56 606.86 510.98 607.55 508.12 L 608.79 502.93 L 611.55 511.49 C 616.33 526.37 617.26 527.49 634.93 539.19 C 652.19 550.63 696.75 579.10 698.12 579.56 C 698.59 579.71 698.12 581.67 697.05 583.90 C 694.83 588.54 691.82 601.08 691.82 605.67 C 691.82 607.38 691.48 608.73 691.06 608.67 C 689.06 608.43 641.28 567.05 630.95 556.57 C 623.59 549.11 623.44 548.86 625.21 546.91 C 626.21 545.81 626.72 544.42 626.35 543.82 C 625.60 542.61 622.91 543.10 614.67 545.92 C 603.67 549.71 591.10 547.26 587.67 540.66 C 585.91 537.26 586.75 516.97 587.19 515.33 C 587.91 512.62 588.00 513.13 580.08 503.20 C 578.85 501.65 577.68 500.20 576.63 498.81 C 574.91 496.60 574.63 495.23 575.63 495.17 Z M 404.36 501.33 C 402.99 501.50 403.05 506.47 404.60 508.02 C 406.15 509.57 407.11 509.56 407.76 507.86 C 408.41 506.16 406.39 501.94 404.65 501.37 C 404.56 501.33 404.47 501.31 404.37 501.32 Z M 778.54 506.33 C 778.80 506.33 779.06 506.34 779.32 506.38 C 781.95 506.75 781.85 505.48 781.04 529.06 C 780.79 536.63 781.11 539.00 782.87 542.87 C 785.10 547.74 789.11 551.31 793.64 552.45 C 795.99 553.04 796.19 553.45 795.35 555.63 C 794.82 557.01 794.35 561.48 794.35 565.56 L 794.35 573.00 L 789.87 577.13 C 786.95 579.72 783.74 581.97 780.30 583.83 C 777.37 585.30 774.26 586.39 771.06 587.08 C 767.22 587.69 766.64 587.46 763.44 584.08 C 758.82 579.17 755.27 571.41 753.31 561.89 C 752.31 557.05 751.78 554.46 751.90 552.81 C 751.79 549.44 752.18 546.07 753.07 542.81 C 753.88 539.74 755.02 536.77 756.47 533.95 C 756.93 532.17 758.20 528.95 760.47 523.34 C 761.80 520.19 762.96 516.97 763.94 513.69 C 763.94 511.53 774.20 506.52 778.54 506.34 Z M 150.54 528.56 L 150.54 533.44 C 150.54 540.91 153.29 548.84 157.15 552.44 C 161.57 556.61 168.22 558.44 173.43 557.05 C 175.58 556.46 177.51 556.14 177.71 556.35 C 178.23 556.87 163.48 579.46 157.77 586.90 C 149.82 597.25 138.11 608.90 133.77 610.74 C 131.63 611.67 129.43 612.43 127.17 613.01 C 122.59 614.01 114.17 611.01 107.89 606.27 C 94.55 596.18 89.28 566.59 98.48 553.46 C 102.57 547.63 103.48 547.86 104.24 554.96 C 105.24 563.72 108.47 573.56 111.59 577.27 C 115.83 582.27 116.52 579.65 113.47 570.01 C 111.85 564.59 110.76 559.02 110.21 553.38 L 109.64 545.25 L 116.64 543.39 C 125.46 541.05 139.43 535.32 145.72 531.47 Z M 794.95 580.56 L 796.55 585.79 C 798.65 592.63 801.28 597.59 803.96 599.79 C 806.10 601.55 806.07 601.58 800.47 604.07 C 797.20 605.51 793.87 606.78 790.47 607.88 C 786.22 609.15 783.71 611.82 784.53 614.20 C 784.77 614.87 783.74 617.20 782.25 619.48 C 780.76 621.76 778.25 625.75 776.72 628.48 C 775.19 631.21 771.95 639.41 769.55 646.76 L 765.20 660.14 L 763.47 656.00 C 762.06 652.27 760.90 648.45 760.00 644.57 C 758.73 639.04 757.89 637.21 756.61 637.21 C 755.61 637.21 754.68 638.30 754.33 640.00 C 753.79 642.59 755.45 651.41 757.33 655.88 C 758.27 658.14 746.05 650.11 727.59 636.34 L 715.15 627.06 L 715.00 620.20 C 714.71 611.38 714.98 602.54 715.81 593.75 L 716.40 588.38 L 721.66 591.52 C 733.89 598.74 746.87 604.60 760.38 609.00 C 767.64 611.29 774.30 613.78 775.18 614.54 C 775.96 615.26 776.93 615.74 777.98 615.92 C 780.30 615.92 779.11 612.15 775.10 606.78 C 772.87 603.78 771.04 601.28 771.04 601.22 C 771.04 601.16 775.72 601.63 781.45 602.28 C 787.18 602.93 792.27 603.09 792.77 602.64 C 794.01 601.51 791.56 593.10 789.06 589.93 L 787.06 587.39 L 790.98 583.98 Z M 706.48 580.56 C 707.48 580.56 708.65 581.30 709.91 582.65 C 711.85 584.71 712.01 585.49 711.11 588.53 C 709.49 594.02 708.82 614.53 709.97 623.53 C 710.40 626.29 710.68 629.07 710.80 631.86 C 708.57 630.88 706.42 629.73 704.38 628.41 C 699.00 625.24 698.09 624.26 697.57 621.10 C 695.97 611.46 697.82 596.10 701.80 585.97 C 703.21 582.27 704.70 580.51 706.44 580.57 Z M 88.14 581.56 C 88.90 581.48 89.52 583.10 90.38 586.72 C 92.13 594.18 97.06 603.81 101.19 607.85 C 103.12 609.73 104.47 611.63 104.19 612.07 C 103.39 613.38 101.49 612.99 97.90 610.80 C 92.60 607.57 84.30 587.63 86.52 583.47 C 87.17 582.27 87.68 581.61 88.14 581.56 Z M 121.19 584.66 L 120.88 584.66 C 118.70 585.39 118.94 587.18 121.64 590.39 C 124.34 593.60 128.19 594.69 128.19 592.26 C 128.19 590.48 122.98 584.95 121.19 584.65 Z M 71.13 586.42 C 72.57 586.64 73.95 587.11 75.23 587.80 C 79.57 589.80 80.37 590.62 81.96 595.10 C 82.96 597.89 84.85 602.43 86.17 605.19 C 87.13 607.05 87.93 609.00 88.54 611.00 C 88.54 612.65 69.12 611.15 54.93 608.40 C 46.85 606.84 39.08 604.07 40.05 603.11 C 40.35 602.80 44.88 602.11 50.05 601.66 C 61.62 600.57 72.05 597.73 72.79 595.49 C 73.08 594.59 72.62 592.49 71.79 590.91 C 70.17 587.80 69.79 586.41 71.07 586.39 Z M 49.27 590.74 L 51.40 590.74 C 56.56 590.86 63.60 591.58 64.45 592.42 C 64.91 592.89 62.68 593.79 59.45 594.42 C 48.93 596.53 45.86 595.82 45.86 591.29 C 45.86 590.93 47.22 590.76 49.21 590.72 Z M 135.27 596.62 C 132.83 596.62 132.72 599.22 135.10 600.62 C 137.98 602.30 140.43 601.92 140.43 599.80 C 140.43 597.68 138.56 596.64 135.27 596.64 Z M 826.51 596.62 C 826.70 596.62 827.39 599.24 828.05 602.45 C 830.36 613.54 840.62 622.67 854.44 632.82 L 859.98 636.88 L 867.88 648.75 C 875.51 663.91 878.08 670.96 883.51 691.58 C 886.01 701.08 889.80 713.19 891.92 718.50 C 896.16 729.05 899.10 738.50 899.10 741.60 C 898.96 742.95 898.33 744.20 897.32 745.11 C 894.62 747.04 891.79 748.78 888.86 750.34 L 882.08 754.00 L 879.62 751.36 C 876.21 747.69 857.99 734.03 855.42 733.22 C 851.90 732.10 853.03 730.81 858.13 730.14 C 866.71 729.01 868.54 728.49 868.54 727.14 C 868.54 725.57 865.39 724.59 860.29 724.57 C 856.91 724.57 856.57 724.29 856.06 721.13 C 855.23 716.05 844.98 689.33 841.06 681.90 C 835.65 671.80 830.92 670.33 834.94 680.01 C 836.14 682.90 836.94 685.44 836.75 685.65 C 836.56 685.86 835.13 685.55 833.62 684.98 C 829.82 683.53 824.92 683.66 824.92 685.21 C 824.92 685.90 828.55 688.44 832.98 690.83 L 841.00 695.20 L 844.20 703.55 C 845.96 708.13 848.54 714.76 849.94 718.28 C 852.85 725.62 852.18 727.63 846.84 727.63 C 842.51 727.63 837.09 731.15 835.69 734.85 C 834.79 737.24 832.48 739.02 825.26 742.93 C 820.16 745.69 815.71 747.93 815.36 747.93 C 815.01 747.93 814.70 746.22 814.70 744.12 C 814.70 738.47 812.09 728.47 808.22 719.12 C 802.74 705.88 799.47 693.39 799.47 685.83 C 799.72 680.19 800.43 674.59 801.62 669.07 C 803.04 661.47 803.93 653.79 804.29 646.07 C 804.59 638.94 805.23 633.07 805.71 633.07 C 808.28 633.07 805.71 628.93 798.90 621.88 L 791.21 613.97 L 796.89 611.85 C 804.82 608.77 812.44 604.94 819.65 600.42 C 823.19 598.27 826.25 596.51 826.43 596.51 Z M 255.51 603.84 C 269.11 624.52 268.65 622.09 260.02 627.47 C 243.59 637.71 227.43 643.82 210.02 646.39 C 199.84 647.89 168.61 648.48 160.35 647.39 C 144.85 645.23 131.64 640.24 125.47 634.19 C 121.65 630.45 121.47 628.53 124.16 623.19 C 125.72 620.14 126.91 619.14 129.64 618.63 C 132.20 617.99 134.64 616.92 136.84 615.47 C 138.14 614.52 139.51 613.68 140.94 612.95 C 142.28 613.82 143.52 614.83 144.66 615.95 C 149.37 620.26 160.15 625.62 167.87 627.50 C 195.67 634.27 230.59 626.59 248.62 609.72 C 252.28 606.30 255.39 603.72 255.53 603.89 Z M 788.90 619.92 L 794.28 624.63 L 799.65 629.35 L 799.20 642.69 C 798.99 650.59 798.08 658.45 796.49 666.19 C 793.43 679.92 793.28 693.79 796.13 700.72 C 797.27 703.51 799.24 708.72 800.51 712.40 C 801.78 716.08 804.17 722.84 805.84 727.53 C 807.65 732.64 808.86 737.95 809.44 743.35 L 809.99 750.65 L 800.99 755.03 C 795.99 757.44 789.12 760.72 785.64 762.31 C 782.16 763.90 779.19 765.22 779.02 765.22 C 777.96 764.43 776.97 763.54 776.07 762.56 L 773.42 759.91 L 776.82 752.56 C 781.38 742.69 785.31 728.77 786.00 720.05 C 786.69 711.33 785.40 707.31 777.62 694.45 C 770.73 683.06 769.22 679.01 769.17 671.70 C 769.08 660.41 779.30 631.70 786.63 622.70 Z M 266.90 629.43 C 266.97 629.43 267.01 629.43 267.03 629.43 C 267.23 629.64 266.70 631.43 265.85 633.51 C 264.06 637.78 263.76 637.93 262.33 635.26 C 261.48 633.66 261.78 632.91 263.97 631.18 C 264.83 630.41 265.82 629.81 266.90 629.40 Z M 257.62 636.23 C 257.87 636.23 258.39 637.72 258.79 639.53 C 260.15 645.81 288.42 698.53 303.27 722.53 C 314.95 741.40 323.13 757.09 327.62 769.25 C 330.51 777.06 339.96 809.25 346.05 832.01 C 346.78 834.56 348.10 836.91 349.90 838.86 C 352.45 841.21 352.52 841.54 351.27 845.16 C 349.78 849.52 344.97 852.76 337.27 854.61 C 332.82 855.67 332.11 855.55 327.11 852.87 L 321.63 850.00 L 320.99 842.38 C 319.59 825.88 312.37 807.82 299.25 788.05 C 293.55 779.47 287.74 773.46 270.47 758.31 C 245.98 736.82 225.35 716.77 223.94 713.10 C 223.25 711.31 219.28 700.93 215.12 690.04 C 210.96 679.15 207.24 669.44 206.85 668.46 C 206.52 667.52 205.70 666.84 204.72 666.68 C 201.30 666.68 202.99 672.68 217.57 711.87 C 228.89 742.34 232.23 764.58 227.75 779.52 C 224.70 789.68 218.85 798.46 207.90 809.34 C 190.11 827.01 180.68 841.59 180.53 851.64 L 180.45 856.53 L 173.36 861.14 C 165.68 866.14 164.76 866.34 160.06 864.30 C 151.93 860.76 144.40 850.30 144.40 842.51 C 144.40 838.65 144.64 838.37 151.10 834.61 C 158.62 830.23 160.18 827.83 167.66 809.18 C 175.83 788.80 179.77 780.92 181.66 781.18 C 185.66 781.67 186.16 780.66 183.89 776.18 C 182.72 773.91 181.83 771.50 181.25 769.01 C 180.19 762.27 174.64 748.13 170.09 740.58 C 167.39 736.10 159.29 725.07 152.09 716.05 C 131.20 689.96 125.82 680.36 122.99 664.15 C 121.82 657.37 121.99 642.01 123.26 640.73 C 123.65 640.35 125.26 640.99 126.95 642.16 C 139.17 650.86 165.14 655.23 193.88 653.41 C 217.88 651.89 233.41 648.10 250.25 639.63 C 254.00 637.74 257.25 636.19 257.53 636.19 Z M 230.21 729.93 C 230.44 729.70 235.59 734.25 241.64 740.05 C 247.69 745.85 259.73 756.81 268.39 764.40 C 287.31 781.00 288.96 782.74 295.51 793.14 C 302.51 804.16 308.24 815.95 312.58 828.27 C 315.77 837.27 316.21 839.69 315.72 844.63 C 315.21 849.76 315.43 850.76 317.64 853.38 C 319.80 855.55 322.35 857.29 325.16 858.51 C 329.16 860.23 330.31 861.28 330.84 863.69 C 331.48 865.78 332.68 867.65 334.32 869.09 C 335.95 870.46 338.01 873.98 339.23 877.49 C 340.39 880.81 342.74 887.30 344.46 891.91 L 347.58 900.29 L 275.58 900.29 C 206.92 900.29 203.58 900.21 203.12 898.45 C 202.78 897.14 199.02 895.34 190.06 892.20 C 176.46 887.45 167.74 883.43 161.06 878.82 L 156.80 875.89 L 159.33 873.37 C 160.67 872.00 162.43 871.11 164.33 870.84 C 167.47 870.84 177.41 865.43 181.79 861.34 C 184.52 858.78 185.09 857.50 185.09 853.90 C 185.09 843.81 191.19 834.24 209.99 814.90 C 222.65 801.73 225.00 798.74 229.00 790.78 C 236.71 775.37 237.45 761.22 231.71 738.38 C 230.60 733.96 229.88 730.16 230.12 729.92 Z M 845.21 733.23 L 845.21 733.23 C 846.68 733.13 848.58 734.23 853.49 737.56 C 865.88 745.97 879.49 757.85 881.93 762.42 C 882.45 763.42 882.52 764.14 882.08 764.07 C 881.64 764.00 878.08 763.20 874.18 762.29 C 867.80 760.81 866.44 760.03 860.97 754.69 C 856.65 750.64 852.01 746.93 847.11 743.60 C 840.38 739.14 839.49 738.22 840.46 736.66 C 841.34 735.43 842.48 734.41 843.80 733.66 C 844.23 733.41 844.71 733.26 845.21 733.21 Z M 837.59 743.15 L 844.72 748.47 C 848.77 751.51 852.66 754.77 856.37 758.22 L 860.89 762.65 L 835.00 766.92 C 820.78 769.27 807.42 771.38 805.30 771.61 C 800.64 772.10 799.65 773.35 794.96 784.61 C 791.11 793.87 788.32 797.73 785.49 797.74 C 782.97 797.63 780.46 797.35 777.97 796.91 L 773.97 796.24 C 771.85 795.85 769.69 796.68 768.37 798.39 C 767.52 799.45 766.11 801.17 765.01 802.56 C 763.21 804.84 761.83 803.56 762.43 801.15 C 763.35 797.57 764.89 791.45 765.53 788.26 C 767.68 777.52 768.53 775.85 772.95 774.52 C 774.95 773.90 790.36 766.58 807.11 758.28 Z M 690.44 749.72 C 688.97 751.19 690.20 754.26 694.78 760.55 C 699.36 766.84 699.78 767.88 700.28 774.64 C 700.88 782.25 709.80 833.90 710.81 835.53 C 710.82 835.56 710.82 835.60 710.81 835.63 C 711.73 831.74 712.94 827.93 714.44 824.23 C 714.18 824.13 714.03 823.51 713.84 822.51 C 711.59 811.07 707.02 784.24 707.27 784.03 C 707.52 783.82 708.92 783.08 710.56 782.24 C 711.24 781.81 712.00 781.53 712.80 781.41 C 714.26 781.34 715.80 782.68 720.72 786.94 C 724.67 790.36 729.22 794.12 730.83 795.28 L 733.77 797.39 L 738.58 793.57 L 730.69 787.40 C 726.36 784.01 715.69 774.01 706.91 765.18 C 698.13 756.35 690.73 749.40 690.40 749.72 Z M 705.98 773.34 L 705.98 773.34 C 706.98 773.34 709.14 775.59 709.14 776.59 C 709.14 778.33 706.30 777.29 705.79 775.37 C 705.51 774.25 705.59 773.37 705.98 773.37 Z M 671.00 801.00 C 671.20 801.20 673.59 808.10 676.31 816.32 L 681.26 831.32 L 678.15 832.21 C 671.59 834.09 663.53 837.81 630.82 854.10 C 612.25 863.35 596.48 870.92 595.82 870.92 C 593.37 870.92 586.02 859.64 588.04 858.92 C 592.33 857.50 645.16 820.56 664.23 805.66 C 667.77 802.89 670.83 800.80 671.03 801.00 Z M 683.00 836.35 C 683.21 836.35 684.85 839.35 686.64 842.97 C 688.43 846.59 691.24 850.59 692.87 851.80 C 695.49 853.73 695.87 854.62 695.87 859.26 C 695.87 865.61 698.29 880.02 700.33 885.79 C 701.76 889.79 701.73 890.05 699.26 892.36 C 697.66 893.92 696.25 895.65 695.06 897.54 L 693.40 900.33 L 632.19 900.33 C 598.51 900.33 570.96 899.99 570.97 899.57 C 570.97 898.37 577.97 887.02 581.40 882.72 C 584.01 879.41 584.92 878.90 587.34 879.38 C 591.01 880.12 604.74 874.04 638.50 856.75 C 658.80 846.35 680.63 836.35 683.04 836.35 Z M 708.46 852.00 C 708.96 851.89 709.21 852.38 709.60 853.58 C 709.95 854.35 710.07 855.21 709.94 856.05 C 708.76 857.05 704.26 857.41 703.01 856.63 C 701.76 855.85 701.86 855.63 703.53 855.00 C 704.86 854.47 706.10 853.74 707.22 852.84 C 707.57 852.48 707.99 852.19 708.46 852.00 Z M 350.92 855.82 L 351.07 855.82 C 351.58 857.00 352.03 858.21 352.42 859.44 C 353.48 862.58 353.42 862.85 350.79 863.89 C 346.30 865.68 339.05 866.09 337.63 864.62 C 335.69 862.62 336.11 860.62 338.49 860.62 C 339.67 860.62 342.93 859.47 345.74 858.05 C 347.41 857.16 349.14 856.40 350.93 855.77 Z M 146.92 861.88 C 147.07 861.70 149.27 863.14 151.81 865.08 C 156.06 868.32 156.29 868.72 154.70 870.08 C 152.21 872.26 149.38 872.76 145.62 871.69 L 142.31 870.75 L 144.47 866.46 C 145.71 864.12 146.81 862.05 147.00 861.87 Z M 581.68 862.15 C 582.19 862.20 582.57 862.87 583.14 864.38 C 584.18 866.62 585.58 868.67 587.29 870.45 C 590.82 874.10 589.52 875.45 584.55 873.45 C 579.92 871.51 577.55 865.24 580.55 862.77 C 580.85 862.45 581.25 862.24 581.69 862.19 Z M 355.10 868.42 C 355.64 868.39 356.13 868.76 356.24 869.29 C 357.03 871.35 370.07 881.46 378.06 886.21 C 384.35 889.64 390.84 892.67 397.51 895.29 L 410.00 900.19 L 381.30 900.19 C 356.49 900.19 352.61 900.04 352.61 898.72 C 352.61 896.58 348.81 885.72 345.43 878.15 L 342.59 871.81 L 345.32 871.23 C 347.55 870.68 349.75 870.02 351.91 869.23 C 352.94 868.78 354.03 868.48 355.15 868.34 Z M 575.10 872.51 L 577.30 874.70 L 579.50 876.90 L 576.39 880.22 C 572.79 884.06 566.25 894.79 565.71 897.75 C 565.35 899.75 564.43 899.75 533.43 900.05 C 515.88 900.20 501.73 900.11 501.98 899.86 C 502.23 899.61 511.09 896.58 521.68 893.13 C 544.22 885.77 556.26 881.29 567.19 876.19 Z M 140.93 876.35 L 140.93 876.35 C 141.01 876.37 141.09 876.39 141.17 876.41 C 143.20 876.99 145.27 877.40 147.36 877.65 C 150.66 878.11 153.36 879.47 157.17 882.55 C 163.36 887.55 170.10 891.01 184.25 896.29 L 194.66 900.18 L 161.33 900.23 L 128.00 900.23 L 128.70 897.95 C 129.08 896.69 131.70 891.18 134.48 885.70 C 138.13 878.55 139.73 876.17 140.93 876.29 Z" fill="#483613" fill-rule="nonzero" id="path7016-9" node-id="40" stroke="none" target-height="654.7" target-width="1031.6603" target-x="27.61" target-y="251.57"></path><path d="M 929.16 635.35 C 925.12 635.23 921.07 635.49 917.07 636.11 C 903.79 638.62 890.07 644.50 881.93 651.11 C 879.52 653.11 877.41 654.52 877.23 654.32 C 877.05 654.12 876.93 653.80 876.71 653.42 C 877.27 655.21 878.02 656.94 878.94 658.57 L 883.64 655.57 C 899.64 645.37 913.25 641.05 929.47 641.04 L 929.47 641.04 C 942.96 641.04 951.71 643.04 963.65 648.95 C 989.84 661.88 1001.14 684.91 997.55 718.06 C 995.55 736.95 991.17 751.45 983.16 766.06 C 977.24 776.85 958.59 804.68 950.73 814.44 C 931.85 837.91 926.28 846.72 932.36 843.44 C 934.96 842.05 945.54 830.91 954.01 820.64 L 961.45 811.64 L 962.36 816.08 C 962.85 818.53 963.31 828.76 963.36 838.81 C 963.44 853.66 963.12 858.33 961.61 863.70 C 956.30 882.56 947.61 890.88 926.34 897.38 L 918.81 899.69 C 918.81 899.69 932.10 900.38 939.06 899.90 C 938.76 899.90 938.60 899.84 938.60 899.81 C 938.60 899.56 941.34 897.90 944.68 896.12 C 960.11 887.90 968.21 871.85 969.68 846.57 C 970.33 835.30 969.07 820.23 966.68 811.17 L 965.30 805.86 L 970.91 797.96 C 985.57 777.32 992.91 764.03 997.98 748.60 C 1002.83 734.16 1004.97 718.95 1004.28 703.74 C 1003.42 685.33 999.28 672.88 990.47 661.90 C 982.40 651.90 965.63 641.50 951.28 637.67 C 946.01 636.27 937.05 635.42 929.14 635.35 Z M 921.92 735.73 C 916.43 735.71 910.99 736.89 906.00 739.18 C 905.22 739.51 904.69 739.31 904.20 738.27 L 904.20 738.32 C 904.42 739.60 906.40 745.92 898.54 751.17 C 901.91 749.76 903.85 749.84 910.54 750.24 C 922.38 750.95 931.84 754.06 948.98 762.91 C 959.29 768.22 962.26 769.36 963.24 768.36 C 964.82 766.77 960.43 763.00 949.99 757.00 C 935.99 749.00 923.39 744.94 911.41 744.68 C 904.41 744.52 904.18 744.45 907.15 743.20 C 912.65 740.89 922.23 740.49 929.79 742.26 C 933.60 743.15 937.18 743.61 937.72 743.26 C 939.42 742.26 935.61 739.00 930.72 737.32 C 927.89 736.35 924.93 735.82 921.94 735.75 Z M 762.62 776.73 C 761.08 779.02 759.36 780.09 749.46 786.47 L 738.56 793.47 L 733.75 797.29 L 727.64 804.57 C 724.01 808.95 720.77 813.63 717.96 818.57 C 715.74 822.78 714.89 824.31 714.42 824.11 C 712.92 827.81 711.71 831.62 710.79 835.50 C 711.05 837.21 711.01 838.96 710.67 840.66 C 710.51 842.06 710.09 843.42 709.43 844.66 C 708.87 852.58 710.29 855.08 710.34 857.45 C 710.40 860.14 710.52 862.13 710.52 862.13 L 710.52 862.18 L 711.68 867.73 C 713.97 878.65 720.05 891.83 725.68 897.94 L 727.74 900.21 L 727.74 900.21 L 727.74 900.21 L 732.10 899.21 C 731.65 899.09 731.45 898.96 731.45 898.81 C 731.45 898.02 729.68 894.68 727.52 891.41 C 721.82 882.47 718.00 872.46 716.31 862.00 C 714.95 854.00 714.90 851.38 716.00 843.77 C 719.18 821.77 730.75 804.77 751.25 792.03 C 755.45 789.41 759.11 787.48 759.38 787.75 C 759.38 789.36 759.27 790.97 759.06 792.57 C 759.18 791.57 759.62 787.57 759.62 787.57 C 759.62 787.57 761.19 782.01 762.62 776.73 Z" fill="#efca87" fill-rule="nonzero" id="path1907-3" node-id="41" stroke="none" target-height="264.86005" target-width="295.08887" target-x="709.2992" target-y="635.35"></path><path d="M 1033.76 752.45 C 1027.76 751.88 1018.11 767.45 1009.85 792.09 C 1002.95 812.69 997.62 841.33 997.43 858.92 L 997.35 866.23 L 995.46 862.18 C 994.25 859.36 993.40 856.40 992.92 853.37 C 992.00 846.65 988.39 845.69 985.13 851.28 C 981.53 857.44 980.53 869.96 982.94 878.80 C 983.58 881.17 983.56 881.18 980.94 879.49 C 979.13 878.42 977.04 877.94 974.94 878.10 C 971.88 878.39 971.54 878.76 971.29 881.97 C 971.03 885.35 973.55 890.71 978.79 897.97 L 980.44 900.26 L 987.44 900.26 L 983.44 894.91 C 981.39 892.17 979.51 889.30 977.81 886.33 L 976.14 883.09 L 980.74 884.66 C 984.26 885.86 985.74 887.08 987.22 889.92 C 989.22 893.85 993.05 897.86 993.93 896.98 C 994.22 896.68 993.01 892.15 991.23 886.91 C 988.01 877.41 985.91 860.62 987.95 860.62 C 988.45 860.62 989.63 862.80 990.57 865.47 C 992.64 871.29 998.88 878.90 1001.57 878.90 C 1003.69 878.90 1004.23 876.41 1002.35 875.25 C 999.35 873.38 1003.91 835.42 1010.25 809.84 C 1015.00 790.61 1025.86 764.16 1030.84 759.65 C 1031.28 759.16 1031.82 758.78 1032.42 758.53 C 1033.42 758.40 1032.69 761.77 1029.87 773.30 C 1021.39 808.03 1015.12 869.25 1018.87 880.41 C 1020.71 885.85 1023.79 886.57 1023.79 881.57 C 1023.79 875.69 1035.00 855.92 1040.18 852.65 C 1042.82 850.98 1041.65 854.28 1033.31 871.91 C 1029.19 880.63 1025.31 890.29 1024.68 893.38 L 1023.56 898.98 L 1023.25 898.98 C 1026.25 899.06 1027.63 899.08 1030.81 899.15 C 1030.13 898.90 1029.88 898.57 1029.88 898.15 C 1029.88 894.86 1033.14 885.80 1038.14 875.15 C 1048.76 852.57 1049.74 845.38 1042.14 845.38 C 1038.58 845.38 1030.00 854.52 1025.96 862.60 L 1022.73 869.07 L 1022.73 863.57 C 1022.78 847.73 1029.62 796.81 1034.35 777.34 C 1038.16 761.61 1038.54 757.57 1036.50 754.45 C 1035.89 753.37 1034.81 752.63 1033.58 752.45 Z M 60.23 789.55 C 53.03 789.55 47.23 813.79 48.29 839.32 C 48.61 846.86 49.52 856.00 50.29 859.63 C 50.87 861.88 51.28 864.18 51.50 866.49 C 51.38 866.63 49.50 864.49 47.30 861.74 C 42.24 855.39 39.21 853.82 36.58 856.19 C 35.50 857.21 34.83 858.58 34.69 860.06 C 34.69 866.22 42.30 886.51 47.76 895.46 L 51.08 900.25 L 57.19 900.25 L 54.09 895.42 C 49.55 888.34 43.17 874.25 41.38 867.34 C 40.13 862.53 40.10 861.62 41.20 862.77 C 44.12 865.77 57.26 885.64 60.20 891.41 C 62.31 895.58 63.59 897.14 64.31 896.41 C 65.03 895.68 64.40 892.41 62.31 885.88 C 55.31 864.44 52.41 845.48 53.31 827.64 C 53.89 816.44 56.77 800.77 58.96 796.86 C 59.15 796.52 59.30 796.23 59.44 796.20 L 59.44 796.20 C 60.07 796.08 60.53 800.86 63.14 827.54 C 66.80 864.94 72.84 888.90 77.45 884.29 C 78.03 883.72 79.16 877.82 79.98 871.19 C 81.64 857.67 85.28 842.14 88.40 835.26 L 90.48 830.69 L 90.48 836.79 C 90.31 842.22 89.82 847.63 89.00 853.00 C 88.14 858.58 86.76 867.65 85.92 873.15 C 84.36 883.45 84.63 887.02 86.92 887.02 C 87.67 887.02 91.58 883.35 95.63 878.86 C 99.68 874.37 103.20 870.93 103.47 871.20 C 104.27 872.00 97.93 882.58 91.19 891.71 L 91.19 891.71 L 84.93 900.18 L 91.19 900.18 L 93.80 897.39 C 100.80 889.86 109.80 873.45 109.80 868.01 C 109.89 860.08 105.66 860.75 97.09 870.01 C 90.96 876.62 90.33 877.01 90.87 874.33 C 92.11 868.03 94.52 848.62 95.09 840.33 C 95.84 829.48 94.89 825.71 91.30 825.33 C 89.11 825.07 88.21 825.77 86.10 829.39 C 82.31 835.90 78.51 848.14 76.48 860.39 L 74.68 871.30 L 72.44 860.64 C 70.06 849.30 68.08 833.53 66.12 810.37 C 64.79 794.69 63.32 789.55 60.18 789.55 Z" fill="#efca87" fill-rule="nonzero" id="path1934-5" node-id="42" stroke="none" target-height="147.81" target-width="1012.4118" target-x="34.69" target-y="752.45"></path></svg>