<?xml version="1.0" standalone="no"?><!DOCTYPE svg PUBLIC "-//W3C//DTD SVG 1.1//EN" "http://www.w3.org/Graphics/SVG/1.1/DTD/svg11.dtd"><svg height="253" legacy-metrics="false" node-id="1" sillyvg="true" template-height="253" template-width="257" version="1.1" viewBox="0 0 257 253" width="257" xmlns="http://www.w3.org/2000/svg" xmlns:xlink="http://www.w3.org/1999/xlink"><defs node-id="244"></defs><g node-id="633"><g node-id="644"><path d="M 247.84 121.50 C 247.84 81.60 215.42 49.26 175.42 49.26 C 174.80 49.26 174.18 49.29 173.56 49.30 C 160.94 28.14 137.79 13.94 111.30 13.94 C 71.30 13.94 38.88 46.29 38.88 86.19 C 38.88 86.71 38.91 87.22 38.92 87.74 C 38.92 109.34 2.28 123.63 2.28 150.54 C 2.28 190.44 34.70 222.78 74.70 222.78 C 76.98 222.78 79.22 222.66 81.44 222.46 C 110.78 222.46 114.83 248.75 137.32 248.75 C 174.29 248.75 204.77 221.11 209.18 185.42 C 219.36 160.51 247.84 149.24 247.84 121.50 Z" fill="#bddbff" fill-opacity="0.39" fill-rule="nonzero" group-id="1,12" node-id="248" stroke-linecap="butt" stroke-opacity="0.39" stroke-width="1" target-height="234.80501" target-width="245.56299" target-x="2.279" target-y="13.941"></path></g></g><g node-id="634"><g node-id="645"><path d="M 242.68 124.35 C 242.68 126.61 240.83 128.46 238.58 128.46 L 151.30 128.46 C 149.04 128.46 147.20 126.61 147.20 124.35 L 147.20 64.44 C 147.20 62.18 149.04 60.33 151.30 60.33 L 238.57 60.33 C 240.83 60.33 242.68 62.18 242.68 64.44 L 242.68 124.35 Z" fill="#e6eeff" fill-rule="nonzero" group-id="2,13" node-id="256" stroke="none" target-height="68.124" target-width="95.48399" target-x="147.196" target-y="60.333"></path><path d="M 238.57 129.96 L 151.30 129.96 C 148.21 129.96 145.70 127.44 145.70 124.35 L 145.70 64.44 C 145.70 61.35 148.21 58.83 151.30 58.83 L 238.57 58.83 C 241.66 58.83 244.18 61.35 244.18 64.44 L 244.18 124.35 C 244.18 127.44 241.66 129.96 238.57 129.96 Z M 151.30 61.83 C 149.86 61.83 148.70 63.00 148.70 64.44 L 148.70 124.35 C 148.70 125.79 149.86 126.96 151.30 126.96 L 238.57 126.96 C 240.01 126.96 241.18 125.79 241.18 124.35 L 241.18 64.44 C 241.18 63.00 240.01 61.83 238.57 61.83 L 151.30 61.83 Z" fill="#ccccde" fill-rule="nonzero" group-id="2,13" node-id="258" stroke="none" target-height="71.124" target-width="98.483" target-x="145.696" target-y="58.833"></path></g><g node-id="646"><path d="M 147.19 73.11 L 242.66 73.11 L 242.66 89.10 L 147.19 89.10 Z" fill="#d8d8f0" fill-rule="nonzero" group-id="2,14" node-id="263" stroke="none" target-height="15.991997" target-width="95.466995" target-x="147.195" target-y="73.105"></path><path d="M 244.16 90.60 L 145.69 90.60 L 145.69 71.61 L 244.16 71.61 L 244.16 90.60 Z M 148.69 87.60 L 241.16 87.60 L 241.16 74.61 L 148.69 74.61 L 148.69 87.60 Z" fill="#ccccde" fill-rule="nonzero" group-id="2,14" node-id="265" stroke="none" target-height="18.991997" target-width="98.466995" target-x="145.695" target-y="71.605"></path></g><path d="M 154.29 101.51 L 235.90 101.51 L 235.90 114.63 L 154.29 114.63 Z" fill="#ffe7d1" fill-rule="nonzero" group-id="2" node-id="268" stroke="none" target-height="13.115997" target-width="81.604996" target-x="154.293" target-y="101.514"></path><path d="M 154.29 114.63 L 167.41 101.51 L 172.22 101.51 L 159.10 114.63 Z" fill="#ffffff" fill-rule="nonzero" group-id="2,15" node-id="272" stroke="none" target-height="13.114998" target-width="17.925003" target-x="154.293" target-y="101.514"></path><path d="M 167.03 114.63 L 180.15 101.51 L 184.95 101.51 L 171.84 114.63 Z" fill="#ffffff" fill-rule="nonzero" group-id="2,15" node-id="274" stroke="none" target-height="13.114998" target-width="17.922989" target-x="167.029" target-y="101.514"></path><path d="M 179.77 114.63 L 192.88 101.51 L 197.69 101.51 L 184.57 114.63 Z" fill="#ffffff" fill-rule="nonzero" group-id="2,15" node-id="276" stroke="none" target-height="13.114998" target-width="17.922989" target-x="179.768" target-y="101.514"></path><path d="M 192.50 114.63 L 205.62 101.51 L 210.43 101.51 L 197.31 114.63 Z" fill="#ffffff" fill-rule="nonzero" group-id="2,15" node-id="278" stroke="none" target-height="13.114998" target-width="17.923996" target-x="192.502" target-y="101.514"></path><path d="M 205.24 114.63 L 218.35 101.51 L 223.16 101.51 L 210.05 114.63 Z" fill="#ffffff" fill-rule="nonzero" group-id="2,15" node-id="280" stroke="none" target-height="13.114998" target-width="17.921997" target-x="205.24" target-y="101.514"></path><path d="M 217.98 114.63 L 231.09 101.51 L 235.90 101.51 L 222.78 114.63 Z" fill="#ffffff" fill-rule="nonzero" group-id="2,15" node-id="282" stroke="none" target-height="13.114998" target-width="17.92099" target-x="217.977" target-y="101.514"></path></g><g node-id="635"><path d="M 159.44 20.17 C 160.17 17.95 162.44 15.22 164.49 14.11 L 164.50 14.11 C 166.55 12.99 166.55 11.18 164.50 10.06 L 164.49 10.06 C 162.44 8.95 160.05 6.44 159.19 4.49 C 158.32 2.54 156.91 2.54 156.05 4.49 C 155.19 6.44 152.80 8.95 150.75 10.06 L 150.74 10.06 C 148.68 11.18 148.68 12.99 150.74 14.11 L 150.75 14.11 C 152.80 15.22 155.07 17.95 155.79 20.17 L 156.30 21.73 C 157.03 23.95 158.21 23.95 158.93 21.73 L 159.44 20.17 Z" fill="#7fe5ff" fill-rule="nonzero" group-id="3" node-id="288" stroke="none" target-height="20.3715" target-width="16.838486" target-x="149.19751" target-y="3.0285"></path></g><g node-id="636"><path d="M 13.76 65.21 C 14.37 63.33 16.30 61.01 18.05 60.06 L 18.05 60.06 C 19.80 59.11 19.80 57.56 18.05 56.62 L 18.05 56.62 C 16.30 55.67 14.27 53.54 13.54 51.88 C 12.80 50.22 11.60 50.22 10.87 51.88 C 10.14 53.54 8.11 55.67 6.36 56.62 L 6.35 56.62 C 4.61 57.56 4.61 59.11 6.35 60.06 L 6.36 60.06 C 8.11 61.01 10.04 63.33 10.65 65.22 L 11.09 66.55 C 11.70 68.44 12.71 68.44 13.32 66.55 L 13.76 65.21 Z" fill="#9adfc0" fill-rule="nonzero" group-id="4" node-id="293" stroke="none" target-height="17.330994" target-width="14.319999" target-x="5.0435" target-y="50.63375"></path></g><g node-id="637"><g node-id="648"><path d="M 114.90 71.97 C 110.16 75.14 122.01 87.72 129.43 98.88 C 136.83 110.04 146.69 116.53 151.43 113.36 C 156.17 110.20 156.90 102.46 150.08 90.92 C 140.33 74.41 119.65 68.81 114.90 71.97 Z" fill="#fff3e8" fill-rule="nonzero" group-id="5,16" node-id="300" stroke="none" target-height="43.016327" target-width="41.250076" target-x="113.80612" target-y="71.14258"></path><path d="M 148.57 115.66 C 148.57 115.66 148.57 115.66 148.57 115.66 C 142.71 115.66 134.51 109.25 128.18 99.71 C 126.27 96.84 124.05 93.85 121.90 90.96 C 115.58 82.45 111.74 77.05 112.39 73.32 C 112.57 72.23 113.16 71.33 114.07 70.72 C 115.16 70.00 116.74 69.63 118.76 69.63 C 127.02 69.63 143.10 76.15 151.38 90.16 C 161.22 106.83 154.54 113.09 152.26 114.61 C 151.21 115.31 149.97 115.66 148.57 115.66 Z M 118.76 72.63 C 116.83 72.63 116.00 73.04 115.74 73.22 C 115.50 73.38 115.39 73.55 115.34 73.83 C 114.88 76.48 119.89 83.22 124.31 89.17 C 126.48 92.09 128.72 95.11 130.68 98.05 C 137.04 107.64 144.50 112.66 148.57 112.66 L 148.57 112.66 C 149.37 112.66 150.05 112.48 150.59 112.11 C 155.14 109.08 154.45 101.25 148.79 91.68 C 141.11 78.69 126.33 72.63 118.76 72.63 Z" fill="#ccccde" fill-rule="nonzero" group-id="5,16" node-id="302" stroke="none" target-height="46.036003" target-width="44.209152" target-x="112.386" target-y="69.628"></path></g><g node-id="649"><path d="M 115.08 71.97 C 119.82 75.14 107.97 87.72 100.56 98.88 C 93.15 110.04 83.30 116.53 78.56 113.36 C 73.82 110.20 73.08 102.46 79.90 90.92 C 89.65 74.41 110.33 68.81 115.08 71.97 Z" fill="#fff3e8" fill-rule="nonzero" group-id="5,17" node-id="307" stroke="none" target-height="43.016327" target-width="41.24868" target-x="74.92761" target-y="71.14258"></path><path d="M 81.41 115.66 C 80.01 115.66 78.77 115.31 77.72 114.61 C 75.44 113.09 68.76 106.82 78.61 90.16 C 86.88 76.15 102.96 69.63 111.22 69.63 C 113.24 69.63 114.82 70.00 115.91 70.72 C 116.83 71.33 117.41 72.23 117.60 73.32 C 118.24 77.05 114.40 82.45 108.09 90.96 C 105.94 93.85 103.72 96.84 101.81 99.71 C 95.47 109.25 87.28 115.66 81.41 115.66 Z M 111.22 72.63 C 103.65 72.63 88.87 78.69 81.19 91.69 C 75.54 101.25 74.85 109.08 79.39 112.11 C 79.94 112.48 80.62 112.66 81.41 112.66 C 85.48 112.66 92.94 107.64 99.31 98.05 C 101.26 95.11 103.50 92.09 105.68 89.17 C 110.09 83.22 115.10 76.49 114.64 73.83 C 114.59 73.55 114.48 73.38 114.24 73.22 C 113.98 73.04 113.15 72.63 111.22 72.63 Z" fill="#ccccde" fill-rule="nonzero" group-id="5,17" node-id="309" stroke="none" target-height="46.036003" target-width="44.208023" target-x="73.38798" target-y="69.628"></path></g><g node-id="650"><path d="M 141.09 100.97 C 141.09 116.99 129.44 123.76 115.08 123.76 C 100.71 123.76 89.06 116.99 89.06 100.97 C 89.06 84.95 100.71 71.97 115.08 71.97 C 129.44 71.97 141.09 84.96 141.09 100.97 Z" fill="#fff3e8" fill-rule="nonzero" group-id="5,18" node-id="314" stroke="none" target-height="51.787003" target-width="52.024994" target-x="89.065" target-y="71.974"></path><path d="M 115.08 125.26 C 97.85 125.26 87.56 116.18 87.56 100.97 C 87.56 84.16 99.91 70.47 115.08 70.47 C 130.25 70.47 142.59 84.15 142.59 100.97 C 142.59 116.18 132.31 125.26 115.08 125.26 Z M 115.08 73.47 C 101.56 73.47 90.56 85.81 90.56 100.97 C 90.56 120.19 107.71 122.26 115.08 122.26 C 122.45 122.26 139.59 120.19 139.59 100.97 C 139.59 85.81 128.59 73.47 115.08 73.47 Z" fill="#ccccde" fill-rule="nonzero" group-id="5,18" node-id="316" stroke="none" target-height="54.787003" target-width="55.024994" target-x="87.565" target-y="70.474"></path></g><g node-id="651"><path d="M 114.70 116.18 C 114.70 124.15 108.27 128.68 100.33 128.68 C 92.39 128.68 85.95 124.15 85.95 116.18 C 85.95 108.22 92.39 101.77 100.33 101.77 C 108.27 101.77 114.70 108.22 114.70 116.18 Z" fill="#fff3e8" fill-rule="nonzero" group-id="5,19" node-id="321" stroke="none" target-height="26.904" target-width="28.75" target-x="85.955" target-y="101.771"></path><path d="M 100.33 130.18 C 90.98 130.18 84.45 124.42 84.45 116.18 C 84.45 107.41 91.58 100.27 100.33 100.27 C 109.08 100.27 116.20 107.41 116.20 116.18 C 116.20 124.42 109.68 130.18 100.33 130.18 Z M 100.33 103.27 C 93.23 103.27 87.45 109.06 87.45 116.18 C 87.45 123.78 93.92 127.17 100.33 127.17 C 106.74 127.17 113.20 123.78 113.20 116.18 C 113.20 109.06 107.43 103.27 100.33 103.27 Z" fill="#ccccde" fill-rule="nonzero" group-id="5,19" node-id="323" stroke="none" target-height="29.904" target-width="31.75" target-x="84.455" target-y="100.271"></path></g><g node-id="652"><path d="M 144.14 116.18 C 144.14 124.15 137.70 128.68 129.76 128.68 C 121.83 128.68 115.39 124.15 115.39 116.18 C 115.39 108.22 121.83 101.77 129.76 101.77 C 137.70 101.77 144.14 108.22 144.14 116.18 Z" fill="#fff3e8" fill-rule="nonzero" group-id="5,20" node-id="328" stroke="none" target-height="26.904" target-width="28.749008" target-x="115.39" target-y="101.771"></path><path d="M 129.76 130.18 C 120.42 130.18 113.89 124.42 113.89 116.18 C 113.89 107.41 121.01 100.27 129.76 100.27 C 138.52 100.27 145.64 107.41 145.64 116.18 C 145.64 124.42 139.11 130.18 129.76 130.18 Z M 129.76 103.27 C 122.67 103.27 116.89 109.06 116.89 116.18 C 116.89 123.78 123.36 127.17 129.76 127.17 C 136.17 127.17 142.64 123.78 142.64 116.18 C 142.64 109.06 136.86 103.27 129.76 103.27 Z" fill="#ccccde" fill-rule="nonzero" group-id="5,20" node-id="330" stroke="none" target-height="29.904" target-width="31.749008" target-x="113.89" target-y="100.271"></path></g><g node-id="653"><path d="M 104.79 49.54 C 104.79 54.42 100.84 58.38 95.98 58.38 C 91.11 58.38 87.16 54.42 87.16 49.54 C 87.16 44.66 91.11 40.71 95.98 40.71 C 100.84 40.71 104.79 44.66 104.79 49.54 Z" fill="#fff3e8" fill-rule="nonzero" group-id="5,21" node-id="335" stroke="none" target-height="17.669998" target-width="17.626" target-x="87.164" target-y="40.707"></path><path d="M 95.98 59.88 C 90.29 59.88 85.66 55.24 85.66 49.54 C 85.66 43.84 90.29 39.21 95.98 39.21 C 101.66 39.21 106.29 43.84 106.29 49.54 C 106.29 55.24 101.66 59.88 95.98 59.88 Z M 95.98 42.21 C 91.94 42.21 88.66 45.50 88.66 49.54 C 88.66 53.59 91.94 56.88 95.98 56.88 C 100.01 56.88 103.29 53.59 103.29 49.54 C 103.29 45.50 100.01 42.21 95.98 42.21 Z" fill="#ccccde" fill-rule="nonzero" group-id="5,21" node-id="337" stroke="none" target-height="20.669998" target-width="20.626" target-x="85.664" target-y="39.207"></path></g><g node-id="654"><path d="M 142.72 49.54 C 142.72 54.42 138.77 58.38 133.91 58.38 C 129.04 58.38 125.10 54.42 125.10 49.54 C 125.10 44.66 129.04 40.71 133.91 40.71 C 138.77 40.71 142.72 44.66 142.72 49.54 Z" fill="#fff3e8" fill-rule="nonzero" group-id="5,22" node-id="342" stroke="none" target-height="17.669998" target-width="17.624" target-x="125.096" target-y="40.707"></path><path d="M 133.91 59.88 C 128.22 59.88 123.59 55.24 123.59 49.54 C 123.59 43.84 128.22 39.21 133.91 39.21 C 139.59 39.21 144.22 43.84 144.22 49.54 C 144.22 55.24 139.59 59.88 133.91 59.88 Z M 133.91 42.21 C 129.88 42.21 126.59 45.50 126.59 49.54 C 126.59 53.59 129.88 56.88 133.91 56.88 C 137.94 56.88 141.22 53.59 141.22 49.54 C 141.22 45.50 137.94 42.21 133.91 42.21 Z" fill="#ccccde" fill-rule="nonzero" group-id="5,22" node-id="344" stroke="none" target-height="20.669998" target-width="20.625" target-x="123.595" target-y="39.207"></path></g><g node-id="655"><path d="M 139.35 61.30 C 139.35 73.62 128.47 83.61 115.05 83.61 C 101.62 83.61 90.74 73.62 90.74 61.30 C 90.74 48.98 101.62 39.00 115.05 39.00 C 128.47 39.00 139.35 48.98 139.35 61.30 Z" fill="#fff3e8" fill-rule="nonzero" group-id="5,23" node-id="349" stroke="none" target-height="44.612" target-width="48.60601" target-x="90.742" target-y="38.998"></path><path d="M 115.05 85.11 C 100.82 85.11 89.24 74.43 89.24 61.30 C 89.24 48.18 100.82 37.50 115.05 37.50 C 129.27 37.50 140.85 48.18 140.85 61.30 C 140.85 74.43 129.27 85.11 115.05 85.11 Z M 115.05 40.50 C 102.47 40.50 92.24 49.83 92.24 61.30 C 92.24 72.78 102.47 82.11 115.05 82.11 C 127.62 82.11 137.85 72.78 137.85 61.30 C 137.85 49.83 127.62 40.50 115.05 40.50 Z" fill="#ccccde" fill-rule="nonzero" group-id="5,23" node-id="351" stroke="none" target-height="47.612" target-width="51.60601" target-x="89.242" target-y="37.498"></path></g><g node-id="656"><path d="M 129.31 74.51 C 129.31 79.60 122.79 83.73 114.75 83.73 C 106.71 83.73 100.19 79.60 100.19 74.51 C 100.19 69.42 106.71 65.29 114.75 65.29 C 122.79 65.29 129.31 69.42 129.31 74.51 Z" fill="#f2e7dc" fill-rule="nonzero" group-id="5,24" node-id="356" stroke="none" target-height="18.438004" target-width="29.118004" target-x="100.191" target-y="65.292"></path><path d="M 114.75 85.23 C 105.75 85.23 98.69 80.52 98.69 74.51 C 98.69 68.50 105.75 63.79 114.75 63.79 C 123.75 63.79 130.81 68.50 130.81 74.51 C 130.81 80.52 123.75 85.23 114.75 85.23 Z M 114.75 66.79 C 107.67 66.79 101.69 70.33 101.69 74.51 C 101.69 78.69 107.67 82.23 114.75 82.23 C 121.83 82.23 127.81 78.69 127.81 74.51 C 127.81 70.33 121.83 66.79 114.75 66.79 Z" fill="#ccccde" fill-rule="nonzero" group-id="5,24" node-id="358" stroke="none" target-height="21.438004" target-width="32.118004" target-x="98.691" target-y="63.792"></path></g><path d="M 119.35 72.78 C 119.35 74.16 117.29 75.28 114.75 75.28 C 112.21 75.28 110.15 74.16 110.15 72.78 C 110.15 71.40 112.21 69.14 114.75 69.14 C 117.29 69.14 119.35 71.40 119.35 72.78 Z" fill="#ccccde" fill-rule="nonzero" group-id="5" node-id="361" stroke="none" target-height="6.1449966" target-width="9.1989975" target-x="110.151" target-y="69.135"></path><path d="M 106.33 61.45 C 106.33 62.72 105.30 63.76 104.02 63.76 C 102.75 63.76 101.72 62.72 101.72 61.45 C 101.72 60.18 102.75 59.14 104.02 59.14 C 105.30 59.14 106.33 60.18 106.33 61.45 Z" fill="#ccccde" fill-rule="nonzero" group-id="5" node-id="363" stroke="none" target-height="4.6119995" target-width="4.6119995" target-x="101.717" target-y="59.144"></path><path d="M 128.28 61.45 C 128.28 62.72 127.26 63.76 125.99 63.76 C 124.72 63.76 123.69 62.72 123.69 61.45 C 123.69 60.18 124.72 59.14 125.99 59.14 C 127.26 59.14 128.28 60.18 128.28 61.45 Z" fill="#ccccde" fill-rule="nonzero" group-id="5" node-id="365" stroke="none" target-height="4.6119995" target-width="4.598007" target-x="123.687" target-y="59.144"></path><path d="M 104.16 90.47 L 104.16 90.47 C 104.57 90.12 114.41 82.12 126.18 90.52 L 126.18 90.52 C 126.68 90.88 127.37 90.76 127.72 90.26 C 128.08 89.76 127.96 89.07 127.47 88.71 L 127.47 88.71 C 114.28 79.29 102.85 88.67 102.74 88.76 L 102.74 88.76 C 102.27 89.16 102.20 89.86 102.60 90.33 C 102.99 90.80 103.69 90.86 104.16 90.47 L 104.16 90.47 Z" fill="#ccccde" fill-rule="nonzero" group-id="5" node-id="367" stroke="none" target-height="6.1804276" target-width="25.572243" target-x="102.34287" target-y="84.542076"></path></g><g node-id="638"><g node-id="657"><path d="M 218.85 186.08 L 230.62 168.26 L 240.80 186.08 L 240.80 238.84 L 240.80 239.19 L 186.41 239.19 L 186.41 186.08 L 240.80 186.08" fill="#e6f2f5" fill-rule="nonzero" group-id="6,25" node-id="374" stroke="none" target-height="70.928986" target-width="54.39" target-x="186.413" target-y="168.264"></path><path d="M 240.80 240.69 L 186.41 240.69 C 185.59 240.69 184.91 240.02 184.91 239.19 L 184.91 186.08 C 184.91 185.25 185.59 184.58 186.41 184.58 L 218.05 184.58 L 229.37 167.44 C 229.66 167.00 230.12 166.72 230.67 166.76 C 231.19 166.78 231.67 167.07 231.93 167.52 L 242.09 185.31 C 242.22 185.53 242.30 185.79 242.30 186.07 L 242.30 186.07 C 242.30 186.07 242.30 186.07 242.30 186.07 C 242.30 186.07 242.30 186.07 242.30 186.07 C 242.30 186.07 242.30 186.07 242.30 186.08 L 242.30 239.19 C 242.30 240.02 241.63 240.69 240.80 240.69 Z M 187.91 237.69 L 239.30 237.69 L 239.30 187.58 L 218.88 187.58 C 218.86 187.58 218.84 187.58 218.83 187.58 L 187.91 187.58 L 187.91 237.69 Z M 221.65 184.58 L 238.22 184.58 L 230.53 171.12 L 221.65 184.58 Z" fill="#ccccde" fill-rule="nonzero" group-id="6,25" node-id="376" stroke="none" target-height="73.928986" target-width="57.39" target-x="184.913" target-y="166.764"></path></g><g node-id="658"><path d="M 198.18 168.26 L 198.18 160.84 L 230.62 160.84 L 230.62 168.26 L 198.18 168.26" fill="#f0fcff" fill-rule="nonzero" group-id="6,26" node-id="381" stroke="none" target-height="7.429001" target-width="32.442993" target-x="198.182" target-y="160.835"></path><path d="M 230.62 169.76 L 198.18 169.76 C 197.35 169.76 196.68 169.09 196.68 168.26 L 196.68 160.84 C 196.68 160.01 197.35 159.34 198.18 159.34 L 230.62 159.34 C 231.45 159.34 232.12 160.01 232.12 160.84 L 232.12 168.26 C 232.12 169.09 231.45 169.76 230.62 169.76 Z M 199.68 166.76 L 229.12 166.76 L 229.12 162.34 L 199.68 162.34 L 199.68 166.76 Z" fill="#ccccde" fill-rule="nonzero" group-id="6,26" node-id="383" stroke="none" target-height="10.429001" target-width="35.442993" target-x="196.682" target-y="159.335"></path></g><g node-id="659"><path d="M 186.41 186.08 L 198.18 168.26 L 230.62 168.26 L 218.54 186.08 Z" fill="#f0fcff" fill-rule="nonzero" group-id="6,27" node-id="388" stroke="none" target-height="17.811996" target-width="44.212006" target-x="186.413" target-y="168.264"></path><path d="M 218.54 187.58 L 186.41 187.58 C 185.86 187.58 185.35 187.27 185.09 186.79 C 184.83 186.30 184.86 185.71 185.16 185.25 L 196.93 167.44 C 197.21 167.02 197.68 166.76 198.18 166.76 L 230.62 166.76 C 231.18 166.76 231.69 167.07 231.95 167.56 C 232.21 168.05 232.18 168.65 231.87 169.11 L 219.78 186.92 C 219.50 187.33 219.04 187.58 218.54 187.58 Z M 189.20 184.58 L 217.74 184.58 L 227.79 169.76 L 198.99 169.76 L 189.20 184.58 Z" fill="#ccccde" fill-rule="nonzero" group-id="6,27" node-id="390" stroke="none" target-height="20.811996" target-width="47.20822" target-x="184.91464" target-y="166.764"></path></g><g node-id="660"><path d="M 186.41 185.63 L 218.48 185.63 L 218.48 239.19 L 186.41 239.19 Z" fill="#f0fcff" fill-rule="nonzero" group-id="6,28" node-id="395" stroke="none" target-height="53.561996" target-width="32.069" target-x="186.413" target-y="185.631"></path><path d="M 218.48 240.69 L 186.41 240.69 C 185.59 240.69 184.91 240.02 184.91 239.19 L 184.91 185.63 C 184.91 184.80 185.59 184.13 186.41 184.13 L 218.48 184.13 C 219.31 184.13 219.98 184.80 219.98 185.63 L 219.98 239.19 C 219.98 240.02 219.31 240.69 218.48 240.69 Z M 187.91 237.69 L 216.98 237.69 L 216.98 187.13 L 187.91 187.13 L 187.91 237.69 Z" fill="#ccccde" fill-rule="nonzero" group-id="6,28" node-id="397" stroke="none" target-height="56.561996" target-width="35.069" target-x="184.913" target-y="184.131"></path></g></g><g node-id="639"><g node-id="661"><path d="M 91.52 130.65 C 91.52 130.65 91.52 132.63 91.52 137.45 C 91.52 145.27 84.58 148.16 79.74 148.16 L 38.51 148.16 C 29.83 148.16 25.53 142.52 25.53 137.70 C 25.53 132.89 25.53 130.65 25.53 130.65" fill="#ffeede" fill-rule="nonzero" group-id="7,29" node-id="405" stroke="none" target-height="17.51001" target-width="65.995" target-x="25.528" target-y="130.646"></path><path d="M 79.74 149.66 L 38.51 149.66 C 29.11 149.66 24.03 143.50 24.03 137.70 L 24.03 130.65 L 27.03 130.65 L 27.03 137.70 C 27.03 142.04 31.05 146.66 38.51 146.66 L 79.74 146.66 C 83.30 146.66 90.02 144.73 90.02 137.45 L 90.02 130.65 L 93.02 130.65 L 93.02 137.45 C 93.02 146.40 85.08 149.66 79.74 149.66 Z" fill="#ccccde" fill-rule="nonzero" group-id="7,29" node-id="407" stroke="none" target-height="19.01001" target-width="68.995" target-x="24.028" target-y="130.646"></path></g><g node-id="662"><path d="M 38.51 146.46 C 38.51 146.46 86.72 143.39 81.85 138.21 C 76.98 133.03 25.37 140.08 27.15 132.69 L 89.90 132.56 C 89.90 132.56 96.24 144.93 81.42 146.33 C 66.59 147.73 38.51 146.46 38.51 146.46 Z" fill="#c79d76" fill-opacity="0.12" fill-rule="nonzero" group-id="7,30" node-id="412" stroke-linecap="butt" stroke-opacity="0.12" stroke-width="1" target-height="14.416382" target-width="64.06729" target-x="27.152" target-y="132.563"></path></g><g node-id="663"><path d="M 26.50 115.75 C 26.50 99.56 39.11 86.44 58.54 86.44 C 77.96 86.44 90.57 99.56 90.57 115.75" fill="#ffeede" fill-rule="nonzero" group-id="7,31" node-id="417" stroke="none" target-height="29.303001" target-width="64.069" target-x="26.502" target-y="86.443"></path><path d="M 92.07 115.75 L 89.07 115.75 C 89.07 99.64 76.23 87.94 58.54 87.94 C 40.84 87.94 28.00 99.64 28.00 115.75 L 25.00 115.75 C 25.00 97.90 39.11 84.94 58.54 84.94 C 77.97 84.94 92.07 97.90 92.07 115.75 Z" fill="#ccccde" fill-rule="nonzero" group-id="7,31" node-id="419" stroke="none" target-height="30.803001" target-width="67.069" target-x="25.002" target-y="84.943"></path></g><g node-id="664"><path d="M 73.55 89.50 C 74.31 90.73 76.33 92.19 76.97 93.33 C 85.41 108.29 56.83 112.11 34.78 112.11 C 32.21 112.11 29.70 112.02 27.26 111.83 C 26.76 113.99 26.50 113.43 26.50 115.75 L 90.57 115.75 C 90.57 104.25 84.20 94.30 73.55 89.50 Z" fill="#c79d76" fill-opacity="0.12" fill-rule="nonzero" group-id="7,32" node-id="424" stroke-linecap="butt" stroke-opacity="0.12" stroke-width="1" target-height="26.245003" target-width="64.069" target-x="26.503" target-y="89.501"></path></g><g node-id="665"><path d="M 96.30 122.57 C 96.30 127.39 91.92 131.32 86.56 131.32 L 30.72 131.32 C 25.37 131.32 20.98 127.39 20.98 122.57 C 20.98 117.75 25.37 113.81 30.72 113.81 L 86.56 113.81 C 91.92 113.81 96.30 117.75 96.30 122.57 Z" fill="#ffd4db" fill-rule="nonzero" group-id="7,33" node-id="429" stroke="none" target-height="17.509995" target-width="75.316" target-x="20.983" target-y="113.815"></path><path d="M 86.56 132.82 L 30.72 132.82 C 24.52 132.82 19.48 128.22 19.48 122.57 C 19.48 116.92 24.52 112.31 30.72 112.31 L 86.56 112.31 C 92.76 112.31 97.80 116.92 97.80 122.57 C 97.80 128.23 92.76 132.82 86.56 132.82 Z M 30.72 115.31 C 26.18 115.31 22.48 118.57 22.48 122.57 C 22.48 126.57 26.18 129.82 30.72 129.82 L 86.56 129.82 C 91.10 129.82 94.80 126.57 94.80 122.57 C 94.80 118.57 91.10 115.31 86.56 115.31 L 30.72 115.31 Z" fill="#ccccde" fill-rule="nonzero" group-id="7,33" node-id="431" stroke="none" target-height="20.509995" target-width="78.316" target-x="19.483" target-y="112.315"></path></g></g><g node-id="640"><path d="M 246.14 151.82 C 247.16 148.67 250.37 144.82 253.28 143.24 L 253.29 143.24 C 256.20 141.66 256.20 139.08 253.29 137.51 L 253.28 137.50 C 250.38 135.93 247.00 132.38 245.78 129.62 C 244.55 126.86 242.55 126.86 241.33 129.62 C 240.11 132.38 236.73 135.93 233.83 137.50 L 233.82 137.51 C 230.91 139.08 230.91 141.66 233.82 143.24 L 233.83 143.24 C 236.73 144.82 239.95 148.68 240.97 151.82 L 241.70 154.04 C 242.72 157.18 244.39 157.18 245.42 154.04 L 246.14 151.82 Z" fill="#ffb0b8" fill-rule="nonzero" group-id="8" node-id="437" stroke="none" target-height="28.846992" target-width="23.834244" target-x="231.63826" target-y="127.54725"></path></g><g node-id="641"><g node-id="666"><path d="M 78.81 166.30 C 78.81 156.36 70.39 156.81 70.22 156.80 C 70.22 156.80 54.70 156.80 51.64 156.80 C 51.64 156.80 42.81 156.80 42.81 166.30" fill="#ebebfa" fill-rule="nonzero" group-id="9,34" node-id="444" stroke="none" target-height="9.500015" target-width="35.996998" target-x="42.814" target-y="156.79599"></path><path d="M 80.31 166.30 L 77.31 166.30 C 77.31 163.58 76.62 161.52 75.27 160.17 C 73.50 158.41 70.99 158.28 70.29 158.30 L 70.23 158.29 L 70.23 158.30 L 51.64 158.30 C 50.89 158.30 44.31 158.58 44.31 166.30 L 41.31 166.30 C 41.31 155.42 51.53 155.30 51.64 155.30 L 70.29 155.30 C 70.30 155.30 70.31 155.30 70.31 155.30 C 71.67 155.30 74.90 155.58 77.38 158.04 C 79.33 159.97 80.31 162.75 80.31 166.30 Z" fill="#ccccde" fill-rule="nonzero" group-id="9,34" node-id="446" stroke="none" target-height="11" target-width="38.996998" target-x="41.314" target-y="155.296"></path></g><g node-id="667"><path d="M 23.72 209.59 C 23.72 213.24 26.68 216.20 30.32 216.20 L 91.30 216.20 C 94.95 216.20 97.91 213.24 97.91 209.59 L 97.91 172.90 C 97.91 169.26 94.95 166.30 91.30 166.30 L 30.32 166.30 C 26.68 166.30 23.72 169.26 23.72 172.90 L 23.72 209.59 Z" fill="#ebebfa" fill-rule="nonzero" group-id="9,35" node-id="451" stroke="none" target-height="49.899002" target-width="74.188995" target-x="23.718" target-y="166.299"></path><path d="M 91.30 217.70 L 30.32 217.70 C 25.85 217.70 22.22 214.06 22.22 209.59 L 22.22 172.90 C 22.22 168.43 25.85 164.80 30.32 164.80 L 91.30 164.80 C 95.77 164.80 99.41 168.43 99.41 172.90 L 99.41 209.59 C 99.41 214.06 95.77 217.70 91.30 217.70 Z M 30.32 167.80 C 27.51 167.80 25.22 170.09 25.22 172.90 L 25.22 209.59 C 25.22 212.41 27.51 214.70 30.32 214.70 L 91.30 214.70 C 94.12 214.70 96.41 212.41 96.41 209.59 L 96.41 172.90 C 96.41 170.09 94.12 167.80 91.30 167.80 L 30.32 167.80 Z" fill="#ccccde" fill-rule="nonzero" group-id="9,35" node-id="453" stroke="none" target-height="52.899002" target-width="77.188995" target-x="22.218" target-y="164.799"></path></g><g node-id="668"><path d="M 88.11 202.97 C 88.11 218.05 75.89 230.27 60.81 230.27 C 45.73 230.27 33.51 218.05 33.51 202.97 C 33.51 187.89 45.73 175.66 60.81 175.66 C 75.89 175.66 88.11 187.89 88.11 202.97 Z" fill="#f0f0ff" fill-rule="nonzero" group-id="9,36" node-id="458" stroke="none" target-height="54.606003" target-width="54.606" target-x="33.509" target-y="175.663"></path><path d="M 60.81 231.77 C 44.93 231.77 32.01 218.85 32.01 202.97 C 32.01 187.08 44.93 174.16 60.81 174.16 C 76.69 174.16 89.61 187.08 89.61 202.97 C 89.61 218.85 76.69 231.77 60.81 231.77 Z M 60.81 177.16 C 46.58 177.16 35.01 188.74 35.01 202.97 C 35.01 217.19 46.58 228.77 60.81 228.77 C 75.04 228.77 86.61 217.19 86.61 202.97 C 86.61 188.74 75.04 177.16 60.81 177.16 Z" fill="#ccccde" fill-rule="nonzero" group-id="9,36" node-id="460" stroke="none" target-height="57.60701" target-width="57.606" target-x="32.009" target-y="174.163"></path></g><g node-id="669"><path d="M 80.28 202.78 C 80.28 213.66 71.56 222.47 60.81 222.47 C 50.06 222.47 41.35 213.66 41.35 202.78 C 41.35 191.90 50.06 183.08 60.81 183.08 C 71.56 183.08 80.28 191.90 80.28 202.78 Z" fill="#ecdced" fill-rule="nonzero" group-id="9,37" node-id="465" stroke="none" target-height="39.393005" target-width="38.927002" target-x="41.349" target-y="183.081"></path><path d="M 60.81 223.97 C 49.25 223.97 39.85 214.47 39.85 202.78 C 39.85 191.09 49.25 181.58 60.81 181.58 C 72.37 181.58 81.78 191.09 81.78 202.78 C 81.78 214.47 72.37 223.97 60.81 223.97 Z M 60.81 184.58 C 50.91 184.58 42.85 192.75 42.85 202.78 C 42.85 212.81 50.91 220.97 60.81 220.97 C 70.72 220.97 78.78 212.81 78.78 202.78 C 78.78 192.75 70.72 184.58 60.81 184.58 Z" fill="#ccccde" fill-rule="nonzero" group-id="9,37" node-id="467" stroke="none" target-height="42.393005" target-width="41.927002" target-x="39.849" target-y="181.582"></path></g><path d="M 69.26 202.78 C 69.26 207.45 65.48 211.23 60.81 211.23 C 56.15 211.23 52.36 207.45 52.36 202.78 C 52.36 198.11 56.15 194.33 60.81 194.33 C 65.48 194.33 69.26 198.11 69.26 202.78 Z" fill="#ccccde" fill-rule="nonzero" group-id="9" node-id="470" stroke="none" target-height="16.90001" target-width="16.900002" target-x="52.362" target-y="194.329"></path></g><g node-id="642"><path d="M 133.27 231.09 C 133.88 229.20 135.82 226.88 137.56 225.94 L 137.57 225.93 C 139.32 224.99 139.32 223.44 137.57 222.49 L 137.56 222.49 C 135.82 221.54 133.79 219.41 133.05 217.75 C 132.32 216.09 131.12 216.09 130.38 217.75 C 129.65 219.41 127.62 221.54 125.87 222.49 L 125.87 222.49 C 124.12 223.44 124.12 224.98 125.87 225.93 L 125.87 225.94 C 127.62 226.88 129.55 229.20 130.16 231.09 L 130.60 232.42 C 131.21 234.31 132.22 234.31 132.83 232.42 L 133.27 231.09 Z" fill="#dec2ff" fill-rule="nonzero" group-id="10" node-id="474" stroke="none" target-height="17.3275" target-width="14.322998" target-x="124.5565" target-y="216.50925"></path></g><g node-id="643"><g node-id="670"><path d="M 72.55 124.86 L 205.44 124.86 L 205.44 251.56 L 72.55 251.56 Z" fill="#f0f0ff" fill-rule="nonzero" group-id="11,38" node-id="480" stroke="none" target-height="126.699005" target-width="132.893" target-x="72.549" target-y="124.86"></path><path d="M 206.94 253.06 L 71.05 253.06 L 71.05 123.36 L 206.94 123.36 L 206.94 253.06 Z M 74.05 250.06 L 203.94 250.06 L 203.94 126.36 L 74.05 126.36 L 74.05 250.06 Z" fill="#6e6e96" fill-rule="nonzero" group-id="11,38" node-id="482" stroke="none" target-height="129.699" target-width="135.893" target-x="71.049" target-y="123.36"></path></g><g node-id="671"><path d="M 72.55 242.10 L 205.44 242.10 L 205.44 250.94 L 72.55 250.94 Z" fill="#6e6e96" fill-opacity="0.15" fill-rule="nonzero" group-id="11,39" node-id="487" stroke-linecap="butt" stroke-opacity="0.15" stroke-width="1" target-height="8.843994" target-width="132.893" target-x="72.549" target-y="242.098"></path></g><g node-id="672"><path d="M 213.40 167.22 L 213.40 151.52 C 213.40 136.04 199.69 132.04 192.39 132.04 L 84.93 132.04 C 69.90 132.04 65.03 144.22 65.03 151.52 L 65.03 167.22 L 213.40 167.22 Z" fill="#edaddb" fill-rule="nonzero" group-id="11,40" node-id="492" stroke="none" target-height="35.183" target-width="148.368" target-x="65.032" target-y="132.037"></path><path d="M 214.90 168.72 L 63.53 168.72 L 63.53 151.52 C 63.53 143.09 69.23 130.54 84.93 130.54 L 192.39 130.54 C 200.18 130.54 214.90 134.92 214.90 151.52 L 214.90 168.72 Z M 66.53 165.72 L 211.90 165.72 L 211.90 151.52 C 211.90 133.74 193.19 133.54 192.39 133.54 L 84.93 133.54 C 77.54 133.54 66.53 138.33 66.53 151.52 L 66.53 165.72 Z" fill="#6e6e96" fill-rule="nonzero" group-id="11,40" node-id="494" stroke="none" target-height="38.183" target-width="151.368" target-x="63.532" target-y="130.537"></path></g><g node-id="673"><path d="M 151.57 186.22 L 190.00 186.22 L 190.00 250.94 L 151.57 250.94 Z" fill="#f5c2c2" fill-rule="nonzero" group-id="11,41" node-id="499" stroke="none" target-height="64.718994" target-width="38.430008" target-x="151.566" target-y="186.223"></path><path d="M 190.00 252.44 L 151.57 252.44 C 150.74 252.44 150.07 251.77 150.07 250.94 L 150.07 186.22 C 150.07 185.39 150.74 184.72 151.57 184.72 L 190.00 184.72 C 190.82 184.72 191.50 185.39 191.50 186.22 L 191.50 250.94 C 191.50 251.77 190.82 252.44 190.00 252.44 Z M 153.07 249.44 L 188.50 249.44 L 188.50 187.72 L 153.07 187.72 L 153.07 249.44 Z" fill="#6e6e96" fill-rule="nonzero" group-id="11,41" node-id="501" stroke="none" target-height="67.718994" target-width="41.430008" target-x="150.066" target-y="184.722"></path><path d="M 157.30 192.08 L 157.30 216.18 L 184.55 216.18 L 184.55 192.08 L 157.30 192.08 Z M 157.30 246.00 L 184.55 246.00 L 184.55 221.91 L 157.30 221.91 L 157.30 246.00 Z" fill="#e08787" fill-rule="nonzero" group-id="11,41" node-id="503" stroke="none" target-height="53.916" target-width="27.24501" target-x="157.301" target-y="192.084"></path><path d="M 184.55 247.50 L 157.30 247.50 C 156.47 247.50 155.80 246.83 155.80 246.00 L 155.80 221.91 C 155.80 221.08 156.47 220.41 157.30 220.41 L 184.55 220.41 C 185.37 220.41 186.05 221.08 186.05 221.91 L 186.05 246.00 C 186.05 246.83 185.37 247.50 184.55 247.50 Z M 158.80 244.50 L 183.05 244.50 L 183.05 223.41 L 158.80 223.41 L 158.80 244.50 Z M 184.55 217.68 L 157.30 217.68 C 156.47 217.68 155.80 217.00 155.80 216.18 L 155.80 192.08 C 155.80 191.26 156.47 190.58 157.30 190.58 L 184.55 190.58 C 185.37 190.58 186.05 191.26 186.05 192.08 L 186.05 216.18 C 186.05 217.00 185.37 217.68 184.55 217.68 Z M 158.80 214.68 L 183.05 214.68 L 183.05 193.58 L 158.80 193.58 L 158.80 214.68 Z" fill="#6e6e96" fill-rule="nonzero" group-id="11,41" node-id="505" stroke="none" target-height="56.916" target-width="30.24501" target-x="155.801" target-y="190.584"></path><path d="M 148.51 179.28 L 193.25 179.28 L 193.25 186.16 L 148.51 186.16 Z" fill="#f0f0ff" fill-rule="nonzero" group-id="11,41" node-id="507" stroke="none" target-height="6.883011" target-width="44.739" target-x="148.506" target-y="179.277"></path><path d="M 193.25 187.66 L 148.51 187.66 C 147.68 187.66 147.01 186.99 147.01 186.16 L 147.01 179.28 C 147.01 178.45 147.68 177.78 148.51 177.78 L 193.25 177.78 C 194.07 177.78 194.75 178.45 194.75 179.28 L 194.75 186.16 C 194.75 186.99 194.07 187.66 193.25 187.66 Z M 150.01 184.66 L 191.75 184.66 L 191.75 180.78 L 150.01 180.78 L 150.01 184.66 Z" fill="#6e6e96" fill-rule="nonzero" group-id="11,41" node-id="509" stroke="none" target-height="9.883011" target-width="47.739" target-x="147.006" target-y="177.777"></path><g node-id="685"><path d="M 148.51 183.19 L 193.25 183.19 L 193.25 186.16 L 148.51 186.16 Z" fill="#6e6e96" fill-opacity="0.15" fill-rule="nonzero" group-id="11,41,53" node-id="513" stroke-linecap="butt" stroke-opacity="0.15" stroke-width="1" target-height="2.9629974" target-width="44.739" target-x="148.506" target-y="183.195"></path></g><g node-id="686"><path d="M 157.30 192.08 L 184.55 192.08 L 184.55 195.52 L 157.30 195.52 Z" fill="#6e6e96" fill-opacity="0.25" fill-rule="nonzero" group-id="11,41,54" node-id="518" stroke-linecap="butt" stroke-opacity="0.25" stroke-width="1" target-height="3.4389954" target-width="27.24501" target-x="157.301" target-y="192.084"></path></g><g node-id="687"><path d="M 157.30 221.91 L 184.55 221.91 L 184.55 225.64 L 157.30 225.64 Z" fill="#6e6e96" fill-opacity="0.25" fill-rule="nonzero" group-id="11,41,55" node-id="523" stroke-linecap="butt" stroke-opacity="0.25" stroke-width="1" target-height="3.729004" target-width="27.24501" target-x="157.301" target-y="221.912"></path></g><path d="M 151.57 186.35 L 190.00 186.35 L 190.00 189.79 L 151.57 189.79 Z" fill="#6e6e96" fill-opacity="0.15" fill-rule="nonzero" group-id="11,41,56" node-id="528" stroke-linecap="butt" stroke-opacity="0.15" stroke-width="1" target-height="3.4389954" target-width="38.430008" target-x="151.566" target-y="186.35"></path></g><g node-id="674"><path d="M 84.07 180.19 L 135.85 180.19 L 135.85 223.66 L 84.07 223.66 Z" fill="#f0f0ff" fill-rule="nonzero" group-id="11,42" node-id="534" stroke="none" target-height="43.47" target-width="51.782005" target-x="84.072" target-y="180.186"></path><path d="M 135.85 225.16 L 84.07 225.16 C 83.24 225.16 82.57 224.48 82.57 223.66 L 82.57 180.19 C 82.57 179.36 83.24 178.69 84.07 178.69 L 135.85 178.69 C 136.68 178.69 137.35 179.36 137.35 180.19 L 137.35 223.66 C 137.35 224.48 136.68 225.16 135.85 225.16 Z M 85.57 222.16 L 134.35 222.16 L 134.35 181.69 L 85.57 181.69 L 85.57 222.16 Z" fill="#6e6e96" fill-rule="nonzero" group-id="11,42" node-id="536" stroke="none" target-height="46.47" target-width="54.782005" target-x="82.572" target-y="178.685"></path><path d="M 79.95 224.02 L 140.34 224.02 L 140.34 232.02 L 79.95 232.02 Z" fill="#f0f0ff" fill-rule="nonzero" group-id="11,42" node-id="538" stroke="none" target-height="8.001999" target-width="60.387" target-x="79.954" target-y="224.021"></path><path d="M 140.34 233.52 L 79.95 233.52 C 79.12 233.52 78.45 232.85 78.45 232.02 L 78.45 224.02 C 78.45 223.19 79.12 222.52 79.95 222.52 L 140.34 222.52 C 141.17 222.52 141.84 223.19 141.84 224.02 L 141.84 232.02 C 141.84 232.85 141.17 233.52 140.34 233.52 Z M 81.45 230.52 L 138.84 230.52 L 138.84 225.52 L 81.45 225.52 L 81.45 230.52 Z" fill="#6e6e96" fill-rule="nonzero" group-id="11,42" node-id="540" stroke="none" target-height="11.001999" target-width="63.387" target-x="78.454" target-y="222.521"></path><g node-id="689"><path d="M 79.95 228.17 L 140.34 228.17 L 140.34 237.09 L 79.95 237.09 Z" fill="#6e6e96" fill-opacity="0.15" fill-rule="nonzero" group-id="11,42,57" node-id="544" stroke-linecap="butt" stroke-opacity="0.15" stroke-width="1" target-height="8.917999" target-width="60.387" target-x="79.954" target-y="228.168"></path></g><path d="M 89.51 185.37 L 130.74 185.37 L 130.74 219.03 L 89.51 219.03 Z" fill="#96d3ff" fill-rule="nonzero" group-id="11,42" node-id="547" stroke="none" target-height="33.660004" target-width="41.233" target-x="89.506" target-y="185.371"></path><path d="M 130.74 220.53 L 89.51 220.53 C 88.68 220.53 88.01 219.86 88.01 219.03 L 88.01 185.37 C 88.01 184.54 88.68 183.87 89.51 183.87 L 130.74 183.87 C 131.57 183.87 132.24 184.54 132.24 185.37 L 132.24 219.03 C 132.24 219.86 131.57 220.53 130.74 220.53 Z M 91.01 217.53 L 129.24 217.53 L 129.24 186.87 L 91.01 186.87 L 91.01 217.53 Z" fill="#6e6e96" fill-rule="nonzero" group-id="11,42" node-id="549" stroke="none" target-height="36.660004" target-width="44.233" target-x="88.006" target-y="183.871"></path><path d="M 89.51 185.37 L 130.74 185.37 L 130.74 189.89 L 89.51 189.89 Z" fill="#6e6e96" fill-opacity="0.15" fill-rule="nonzero" group-id="11,42,58" node-id="553" stroke-linecap="butt" stroke-opacity="0.15" stroke-width="1" target-height="4.5200043" target-width="41.233" target-x="89.506" target-y="185.371"></path><path d="M 90.27 216.23 L 92.42 216.23 L 122.28 186.37 L 106.74 186.37 L 90.27 202.85 Z" fill="#ffffff" fill-opacity="0.42" fill-rule="nonzero" group-id="11,42,59" node-id="558" stroke-linecap="butt" stroke-opacity="0.42" stroke-width="1" target-height="29.858994" target-width="32.017998" target-x="90.266" target-y="186.373"></path><path d="M 105.46 216.23 L 130.04 191.65 L 130.04 187.10 L 100.91 216.23 Z" fill="#ffffff" fill-opacity="0.31" fill-rule="nonzero" group-id="11,42,60" node-id="563" stroke-linecap="butt" stroke-opacity="0.31" stroke-width="1" target-height="29.12799" target-width="29.130997" target-x="100.907" target-y="187.104"></path></g><g node-id="675"><path d="M 227.87 235.49 C 224.89 235.49 222.10 236.34 219.74 237.81 C 218.50 237.44 217.18 237.24 215.82 237.24 C 208.24 237.24 202.09 243.39 202.09 250.97 L 243.35 250.97 C 243.35 242.42 236.42 235.49 227.87 235.49 Z" fill="#b8f0af" fill-rule="nonzero" group-id="11,43" node-id="569" stroke="none" target-height="15.475998" target-width="41.263" target-x="202.087" target-y="235.494"></path><path d="M 243.35 252.47 L 202.09 252.47 C 201.26 252.47 200.59 251.80 200.59 250.97 C 200.59 242.57 207.42 235.74 215.82 235.74 C 217.07 235.74 218.31 235.89 219.52 236.19 C 222.07 234.75 224.94 234.00 227.87 234.00 C 237.23 234.00 244.85 241.61 244.85 250.97 C 244.85 251.80 244.18 252.47 243.35 252.47 Z M 203.68 249.47 L 241.77 249.47 C 241.02 242.47 235.07 236.99 227.87 236.99 C 225.28 236.99 222.74 237.72 220.53 239.08 C 220.16 239.31 219.72 239.37 219.31 239.25 C 218.17 238.91 217.00 238.74 215.82 238.74 C 209.58 238.74 204.42 243.43 203.68 249.47 Z" fill="#6e6e96" fill-rule="nonzero" group-id="11,43" node-id="571" stroke="none" target-height="18.475998" target-width="44.263" target-x="200.587" target-y="233.995"></path></g><g node-id="676"><path d="M 72.55 168.58 L 205.44 168.58 L 205.44 173.90 L 72.55 173.90 Z" fill="#6e6e96" fill-opacity="0.2" fill-rule="nonzero" group-id="11,44" node-id="576" stroke-linecap="butt" stroke-opacity="0.2" stroke-width="1" target-height="5.3139954" target-width="132.893" target-x="72.549" target-y="168.582"></path></g><g node-id="677"><path d="M 72.55 124.86 L 205.44 124.86 L 205.44 130.25 L 72.55 130.25 Z" fill="#6e6e96" fill-opacity="0.2" fill-rule="nonzero" group-id="11,45" node-id="581" stroke-linecap="butt" stroke-opacity="0.2" stroke-width="1" target-height="5.3899994" target-width="132.893" target-x="72.549" target-y="124.86"></path></g><g node-id="678"><path d="M 66.80 115.35 L 211.19 115.35 L 211.19 124.86 L 66.80 124.86 Z" fill="#f0f0ff" fill-rule="nonzero" group-id="11,46" node-id="586" stroke="none" target-height="9.509003" target-width="144.39" target-x="66.8" target-y="115.351"></path><path d="M 211.19 126.36 L 66.80 126.36 C 65.97 126.36 65.30 125.69 65.30 124.86 L 65.30 115.35 C 65.30 114.52 65.97 113.85 66.80 113.85 L 211.19 113.85 C 212.02 113.85 212.69 114.52 212.69 115.35 L 212.69 124.86 C 212.69 125.69 212.02 126.36 211.19 126.36 Z M 68.30 123.36 L 209.69 123.36 L 209.69 116.85 L 68.30 116.85 L 68.30 123.36 Z" fill="#6e6e96" fill-rule="nonzero" group-id="11,46" node-id="588" stroke="none" target-height="12.509003" target-width="147.39" target-x="65.3" target-y="113.851"></path><g node-id="693"><path d="M 66.80 120.02 L 211.19 120.02 L 211.19 124.86 L 66.80 124.86 Z" fill="#6e6e96" fill-opacity="0.2" fill-rule="nonzero" group-id="11,46,61" node-id="592" stroke-linecap="butt" stroke-opacity="0.2" stroke-width="1" target-height="4.8410034" target-width="144.39" target-x="66.8" target-y="120.018"></path></g></g><g node-id="679"><path d="M 95.84 250.97 C 95.84 250.94 95.84 250.91 95.84 250.88 C 95.84 245.97 91.86 241.99 86.95 241.99 C 84.68 241.99 82.61 242.85 81.04 244.25 C 79.82 238.42 74.64 234.03 68.44 234.03 C 65.62 234.03 63.02 234.95 60.90 236.49 C 58.23 232.82 53.92 230.43 49.04 230.43 C 42.34 230.43 36.70 234.92 34.95 241.06 C 34.29 240.91 33.60 240.83 32.90 240.83 C 27.67 240.83 23.43 245.07 23.43 250.30 C 23.43 250.53 23.45 250.75 23.47 250.97 L 95.84 250.97 L 95.84 250.97 Z" fill="#b8f0af" fill-rule="nonzero" group-id="11,47" node-id="598" stroke="none" target-height="20.542007" target-width="72.413" target-x="23.432" target-y="230.428"></path><path d="M 95.84 252.47 L 23.47 252.47 C 22.67 252.47 22.02 251.85 21.97 251.06 L 21.96 250.91 C 21.95 250.71 21.93 250.51 21.93 250.30 C 21.93 244.25 26.85 239.33 32.90 239.33 C 33.24 239.33 33.58 239.35 33.92 239.38 C 36.28 233.16 42.31 228.93 49.04 228.93 C 53.71 228.93 58.16 230.99 61.22 234.49 C 63.41 233.21 65.89 232.53 68.44 232.53 C 74.46 232.53 79.80 236.33 81.88 241.82 C 83.42 240.95 85.16 240.49 86.95 240.49 C 92.68 240.49 97.34 245.15 97.34 250.88 C 97.34 250.92 97.34 251.02 97.34 251.06 C 97.34 251.46 97.18 251.79 96.90 252.08 C 96.62 252.36 96.24 252.47 95.84 252.47 Z M 24.98 249.47 L 94.22 249.47 C 93.58 246.09 90.57 243.49 86.95 243.49 C 85.14 243.49 83.40 244.16 82.04 245.37 C 81.64 245.73 81.08 245.85 80.57 245.68 C 80.06 245.51 79.68 245.09 79.57 244.56 C 78.47 239.33 73.80 235.53 68.44 235.53 C 66.04 235.53 63.74 236.28 61.78 237.71 C 61.11 238.19 60.17 238.04 59.69 237.37 C 57.21 233.97 53.23 231.93 49.04 231.93 C 43.20 231.93 38.00 235.85 36.39 241.47 C 36.17 242.24 35.40 242.69 34.62 242.53 C 34.04 242.40 33.46 242.33 32.90 242.33 C 28.79 242.33 25.39 245.46 24.98 249.47 Z" fill="#6e6e96" fill-rule="nonzero" group-id="11,47" node-id="600" stroke="none" target-height="23.541" target-width="75.412" target-x="21.933" target-y="228.929"></path></g><g node-id="680"><path d="M 84.93 132.03 L 108.91 132.03 L 108.91 167.22 L 84.93 167.22 Z" fill="#ffffff" fill-rule="nonzero" group-id="11,48" node-id="605" stroke="none" target-height="35.18599" target-width="23.974998" target-x="84.932" target-y="132.035"></path><path d="M 110.41 168.72 L 83.43 168.72 L 83.43 130.53 L 110.41 130.53 L 110.41 168.72 Z M 86.43 165.72 L 107.41 165.72 L 107.41 133.53 L 86.43 133.53 L 86.43 165.72 Z" fill="#6e6e96" fill-rule="nonzero" group-id="11,48" node-id="607" stroke="none" target-height="38.18599" target-width="26.974998" target-x="83.432" target-y="130.535"></path></g><g node-id="681"><path d="M 168.82 132.03 L 192.79 132.03 L 192.79 167.22 L 168.82 167.22 Z" fill="#ffffff" fill-rule="nonzero" group-id="11,49" node-id="612" stroke="none" target-height="35.18599" target-width="23.975006" target-x="168.818" target-y="132.035"></path><path d="M 194.29 168.72 L 167.32 168.72 L 167.32 130.53 L 194.29 130.53 L 194.29 168.72 Z M 170.32 165.72 L 191.29 165.72 L 191.29 133.53 L 170.32 133.53 L 170.32 165.72 Z" fill="#6e6e96" fill-rule="nonzero" group-id="11,49" node-id="614" stroke="none" target-height="38.18599" target-width="26.975006" target-x="167.318" target-y="130.535"></path></g><g node-id="682"><path d="M 126.08 132.03 L 150.06 132.03 L 150.06 167.22 L 126.08 167.22 Z" fill="#ffffff" fill-rule="nonzero" group-id="11,50" node-id="619" stroke="none" target-height="35.18599" target-width="23.97499" target-x="126.08" target-y="132.035"></path><path d="M 151.56 168.72 L 124.58 168.72 L 124.58 130.53 L 151.56 130.53 L 151.56 168.72 Z M 127.58 165.72 L 148.56 165.72 L 148.56 133.53 L 127.58 133.53 L 127.58 165.72 Z" fill="#6e6e96" fill-rule="nonzero" group-id="11,50" node-id="621" stroke="none" target-height="38.18599" target-width="26.97499" target-x="124.58" target-y="130.535"></path></g><g node-id="683"><path d="M 191.35 133.39 L 86.07 133.39 C 71.34 133.39 66.58 143.32 66.58 149.26 L 66.58 155.74 C 66.58 149.80 71.34 139.87 86.07 139.87 L 191.35 139.87 C 198.50 139.87 211.93 143.14 211.93 155.74 L 211.93 149.26 C 211.93 136.66 198.50 133.39 191.35 133.39 Z" fill="#ffffff" fill-opacity="0.28" fill-rule="nonzero" group-id="11,51" node-id="626" stroke-linecap="butt" stroke-opacity="0.28" stroke-width="1" target-height="22.352997" target-width="145.347" target-x="66.578" target-y="133.391"></path></g><path d="M 65.92 160.02 L 214.28 160.02 L 214.28 166.13 L 65.92 166.13 Z" fill="#c77cb0" fill-opacity="0.32" fill-rule="nonzero" group-id="11,52" node-id="631" stroke-linecap="butt" stroke-opacity="0.32" stroke-width="1" target-height="6.116989" target-width="148.37" target-x="65.915" target-y="160.016"></path></g></svg>