<?xml version="1.0" standalone="no"?><!DOCTYPE svg PUBLIC "-//W3C//DTD SVG 1.1//EN" "http://www.w3.org/Graphics/SVG/1.1/DTD/svg11.dtd"><svg t="1681702524662" class="icon" viewBox="0 0 1024 1024" version="1.1" xmlns="http://www.w3.org/2000/svg" p-id="5092" xmlns:xlink="http://www.w3.org/1999/xlink" width="200" height="200"><path d="M561.230769 728.615385a43.441231 43.441231 0 0 1-28.750769 51.869538l-10.830769 3.465846 43.047384 6.813539a118.153846 118.153846 0 0 0 51.396923-3.268923l228.155077-66.363077c26.978462-7.876923 55.926154-5.513846 81.289847 6.57723a26.269538 26.269538 0 0 1 4.332307 44.819693l-286.089846 212.164923a118.153846 118.153846 0 0 1-114.294154 14.808615l-212.992-85.188923A118.153846 118.153846 0 0 0 272.620308 905.846154H216.615385v-157.538462l294.793846-51.987692c22.528-4.017231 44.268308 10.121846 49.821538 32.295385z" fill="#FFB902" p-id="5093"></path><path d="M59.076923 708.923077m39.384615 0l78.769231 0q39.384615 0 39.384616 39.384615l0 157.538462q0 39.384615-39.384616 39.384615l-78.769231 0q-39.384615 0-39.384615-39.384615l0-157.538462q0-39.384615 39.384615-39.384615Z" fill="#FF9800" p-id="5094"></path><path d="M531.692308 315.076923m-315.076923 0a315.076923 315.076923 0 1 0 630.153846 0 315.076923 315.076923 0 1 0-630.153846 0Z" fill="#FF9800" p-id="5095"></path><path d="M425.078154 129.693538a39.384615 39.384615 0 0 1 51.987692-3.268923l3.702154 3.268923 78.769231 78.769231a39.384615 39.384615 0 0 1-51.987693 58.958769l-3.702153-3.268923-78.769231-78.76923a39.384615 39.384615 0 0 1 0-55.689847z" fill="#FFB902" p-id="5096"></path><path d="M638.306462 129.693538a39.384615 39.384615 0 0 0-51.987693-3.268923l-3.702154 3.268923-78.76923 78.769231a39.384615 39.384615 0 0 0 51.987692 58.958769l3.702154-3.268923 78.769231-78.76923a39.384615 39.384615 0 0 0 0-55.689847z" fill="#FFB902" p-id="5097"></path><path d="M649.846154 236.307692a39.384615 39.384615 0 0 1 4.608 78.493539L649.846154 315.076923H413.538462a39.384615 39.384615 0 0 1-4.608-78.493538L413.538462 236.307692h236.307692zM649.846154 354.461538a39.384615 39.384615 0 0 1 4.608 78.493539L649.846154 433.230769H413.538462a39.384615 39.384615 0 0 1-4.608-78.493538L413.538462 354.461538h236.307692z" fill="#FFB902" p-id="5098"></path><path d="M531.692308 236.307692a39.384615 39.384615 0 0 1 39.108923 34.776616L571.076923 275.692308v236.307692a39.384615 39.384615 0 0 1-78.493538 4.608L492.307692 512V275.692308a39.384615 39.384615 0 0 1 39.384616-39.384616z" fill="#FFB902" p-id="5099"></path></svg>