<?xml version="1.0" standalone="no"?><!DOCTYPE svg PUBLIC "-//W3C//DTD SVG 1.1//EN" "http://www.w3.org/Graphics/SVG/1.1/DTD/svg11.dtd"><svg t="1681704717740" class="icon" viewBox="0 0 1024 1024" version="1.1" xmlns="http://www.w3.org/2000/svg" p-id="24405" xmlns:xlink="http://www.w3.org/1999/xlink" width="200" height="200"><path d="M546.5884448 366.3644448s-107.40622187-74.63822187-214.8124448-69.1768896c-107.40622187 5.46133333-185.68533333 80.0995552-205.71022187 121.96977813s-54.61333333 40.04977813-67.3564448 58.25422187c-3.64088853 5.46133333-5.46133333 21.84533333 21.84533334 30.94755627 0 0-7.28177813 96.4835552 74.63822186 182.04444373s203.88977813 114.688 291.27111147 111.04711147 165.6604448-83.7404448 196.608-169.30133334c25.48622187-74.63822187 5.46133333-194.7875552-96.4835552-265.78488853z" fill="#CA783F" p-id="24406"></path><path d="M111.50222187 475.59111147s334.96177813-203.88977813 522.46755626-5.46133334l7.28177707-14.56355626S437.36177813 228.01066667 111.50222187 475.59111147zM102.4 508.35911147s138.35377813 83.7404448 334.96177813 131.072l-7.28177813 36.40888853c0-1.8204448-245.76-103.76533333-327.68-167.48088853zM135.168 626.688s81.92 147.456 231.1964448 165.6604448v-12.74311147c0-1.8204448-149.2764448-38.22933333-231.1964448-152.91733333zM107.86133333 493.7955552s214.8124448-16.384 351.34577814 34.5884448l-7.28177814 18.2044448c0 1.8204448-163.84-16.384-344.064-52.7928896z" fill="#CD8253" p-id="24407"></path><path d="M96.93866667 526.5635552s83.7404448 132.8924448 300.37333333 218.45333333v14.56355627S169.7564448 710.4284448 96.93866667 526.5635552zM113.32266667 457.38666667s78.27911147-132.8924448 263.9644448-129.2515552c1.8204448 0-154.73777813 9.10222187-263.9644448 129.2515552z" fill="#CD8253" p-id="24408"></path><path d="M517.46133333 812.37333333s18.2044448 94.66311147-29.12711146 143.81511147c0 0 94.66311147-36.40888853 127.43111146-112.86755627 1.8204448 0-74.63822187-47.3315552-98.304-30.9475552z" fill="#364223" p-id="24409"></path><path d="M486.51377813 786.88711147s-92.84266667 129.2515552-132.8924448 149.27644373c0 0 72.81777813-12.74311147 218.45333334-120.14933333-1.8204448 0-50.9724448-50.9724448-85.56088854-29.1271104z" fill="#608059" p-id="24410"></path><path d="M451.92533333 761.40088853s-214.8124448 81.92-293.0915552 165.6604448c0 0 287.63022187-85.56088853 453.29066667-131.072 1.8204448-1.8204448-138.35377813-36.40888853-160.19911147-34.5884448z" fill="#365528" p-id="24411"></path><path d="M444.6435552 703.14666667s-214.8124448 52.79288853-302.19377707 61.89511146-92.84266667 21.84533333-92.84266666 21.84533334 216.63288853 30.9475552 340.4231104 29.1271104 129.2515552-61.89511147 129.25155626-61.8951104-41.87022187-58.25422187-74.63822293-50.9724448z" fill="#62A533" p-id="24412"></path><path d="M271.70133333 657.6355552s-136.53333333-14.5635552-203.88977813 10.92266667c0 0 435.08622187 107.40622187 446.0088896 114.688l-118.3288896-114.688s-41.87022187 5.46133333-123.79022187-10.92266667z" fill="#3B6D25" p-id="24413"></path><path d="M464.6684448 765.04177813c-5.46133333 1.8204448-183.86488853-60.07466667-282.1688896-112.86755626-96.4835552-54.61333333-149.2764448-67.3564448-149.27644373-67.35644374s218.45333333 10.92266667 456.9315552 109.22666667c0 0 3.64088853 63.7155552-25.48622187 70.99733333z" fill="#5C9F39" p-id="24414"></path><path d="M461.0275552 664.91733333s-194.7875552-85.56088853-287.63022187-83.7404448c7.28177813 5.46133333 220.27377813 96.4835552 302.19377814 172.94222294l-14.56355627-89.20177814z" fill="#83AB4C" p-id="24415"></path><path d="M484.69333333 178.85866667c-3.64088853-9.10222187 109.22666667 207.53066667 160.19911147 242.11911146l-72.81777813 14.5635552c0 1.8204448-74.63822187-214.8124448-87.38133334-256.68266666z" fill="#65A446" p-id="24416"></path><path d="M652.17422187 393.67111147s-114.688-223.91466667-114.688-269.42577814c0 0 0 158.37866667 80.09955626 333.14133334l34.58844374-63.7155552z" fill="#709C3D" p-id="24417"></path><path d="M633.96977813 69.632s27.30666667 334.96177813 10.92266667 378.6524448c0 0 80.0995552-43.69066667 81.92-67.3564448 1.8204448-25.48622187-30.9475552-227.5555552-92.84266667-311.296z" fill="#508539" p-id="24418"></path><path d="M834.21866667 255.31733333s5.46133333 98.304-65.536 187.50577814l-34.5884448-10.92266667s87.38133333-125.61066667 100.1244448-176.58311147z" fill="#85B056" p-id="24419"></path><path d="M630.32888853 320.85333333s-125.61066667 58.25422187-149.27644373 85.56088854c-21.84533333 27.30666667-91.02222187 100.1244448-98.304 152.91733333-5.46133333 54.61333333-14.5635552 85.56088853 29.1271104 152.91733333s96.4835552 114.688 192.96711147 136.53333334c100.1244448 23.66577813 233.01688853 9.10222187 311.296-87.38133334s78.27911147-242.11911147 40.04977813-316.75733333c-38.22933333-74.63822187-109.22666667-129.2515552-143.81511147-132.89244373-30.9475552-3.64088853-120.14933333-20.02488853-182.0444448 9.10222186z" fill="#AF673D" p-id="24420"></path><path d="M539.30666667 775.9644448s45.51111147 16.384 65.536 16.384c25.48622187 1.8204448 116.5084448-12.74311147 136.53333333-29.12711147 20.02488853-16.384 20.02488853-27.30666667 27.30666667-32.768s67.3564448-25.48622187 87.38133333-47.3315552 32.768-49.152 32.768-49.152h14.5635552s87.38133333-129.2515552 32.768-231.1964448c-52.79288853-100.1244448-151.09688853-96.4835552-151.09688853-96.4835552l-12.74311147-3.6408896s-74.63822187-5.46133333-107.40622187 5.46133334c-32.768 10.92266667-134.71288853 52.79288853-187.50577813 103.76533333 0 0-58.25422187 61.89511147-85.56088853 120.14933333 0 0-34.5884448 76.45866667 0 145.63555627 40.04977813 83.7404448 147.456 98.304 147.456 98.304z" fill="#6F3C2B" p-id="24421"></path><path d="M457.38666667 479.232h-16.384s-65.536 74.63822187-34.5884448 160.19911147c30.9475552 87.38133333 111.04711147 111.04711147 149.2764448 116.50844373l81.92 10.92266667s83.7404448-9.10222187 120.14933333-45.5111104l83.7404448-43.69066667 18.20444373-27.30666667 10.92266667-7.28177813s50.9724448-92.84266667 50.9724448-136.53333333c1.8204448-43.69066667-7.28177813-138.35377813-120.14933333-171.12177814h-58.25422187l-78.27911147-9.10222186-61.89511146 34.5884448-45.5111104 23.66577706h-14.56355627s-72.81777813 50.9724448-85.56088853 94.66311147z" fill="#F3F3EB" p-id="24422"></path><path d="M781.42577813 391.85066667c-16.384-7.28177813-56.43377813 3.64088853-56.43377813 3.64088853s-25.48622187 0-40.04977813-3.64088853c-14.5635552-1.8204448-49.152 10.92266667-54.61333334 12.74311146-3.64088853 0-27.30666667 14.5635552-49.152 29.1271104-21.84533333 14.5635552-43.69066667 29.12711147-47.3315552 34.5884448-5.46133333 10.92266667-34.5884448 43.69066667-34.5884448 43.69066667s-49.152 60.07466667-12.7431104 127.43111147c32.768 60.07466667 87.38133333 47.3315552 116.50844374 54.61333333 29.12711147 7.28177813 67.3564448 0 67.3564448 0 21.84533333-1.8204448 56.43377813-23.66577813 56.43377813-23.66577813h18.20444373l41.87022294-30.9475552c30.9475552-27.30666667 45.51111147-80.0995552 45.5111104-80.09955627l12.74311146-9.10222187 10.92266667-45.51111146c-7.28177813-70.99733333-58.25422187-105.58577813-74.63822187-112.8675552z" fill="#E0DBC8" p-id="24423"></path><path d="M739.5555552 644.8924448c-1.8204448-41.87022187-34.5884448-49.152-54.61333333-72.81777813-29.12711147-34.5884448-29.12711147-61.89511147-40.04977707-85.56088854-12.74311147-34.5884448-40.04977813-47.3315552-65.536-50.9724448-21.84533333 14.5635552-43.69066667 29.12711147-47.33155627 34.5884448-5.46133333 10.92266667-34.5884448 43.69066667-34.58844373 43.69066667s-49.152 60.07466667-12.74311147 127.4311104c32.768 60.07466667 87.38133333 47.3315552 116.5084448 54.61333333 29.12711147 7.28177813 67.3564448 0 67.35644374 0 21.84533333-1.8204448 56.43377813-23.66577813 56.43377813-23.66577706h12.74311147c1.8204448-10.92266667 1.8204448-18.2044448 1.82044373-27.30666667z" fill="#EDEBD9" p-id="24424"></path><path d="M786.88711147 637.61066667c30.9475552-27.30666667 45.51111147-80.0995552 45.5111104-80.0995552l12.74311146-9.10222294 10.92266667-45.5111104c-5.46133333-70.99733333-56.43377813-105.58577813-72.81777813-112.86755626-16.384-7.28177813-56.43377813 3.64088853-56.43377707 3.6408896s-25.48622187 0-40.04977813-3.6408896-49.152 10.92266667-54.61333334 12.74311146c-3.64088853 0-27.30666667 14.5635552-49.152 29.12711147 23.66577813 5.46133333 50.9724448 18.2044448 65.536 50.97244373 9.10222187 25.48622187 9.10222187 50.9724448 40.04977814 85.5608896 20.02488853 23.66577813 54.61333333 30.9475552 54.61333333 72.81777707v23.66577813h5.46133333l38.22933334-27.30666666z" fill="#E0DBC8" p-id="24425"></path></svg>