<?xml version="1.0" standalone="no"?><!DOCTYPE svg PUBLIC "-//W3C//DTD SVG 1.1//EN" "http://www.w3.org/Graphics/SVG/1.1/DTD/svg11.dtd"><svg t="1681704398449" class="icon" viewBox="0 0 1024 1024" version="1.1" xmlns="http://www.w3.org/2000/svg" p-id="7411" xmlns:xlink="http://www.w3.org/1999/xlink" width="200" height="200"><path d="M770.048 258.2528c-38.0928-55.808-103.0656-84.8384-103.0656-84.8384a324.608 324.608 0 0 0-35.9424-16.1792c0.2048 5.376 0.3584 10.752 0.3584 16.1792 0 199.2704-146.5344 360.8064-327.3216 360.8064-38.912 0-76.1856-7.5264-110.7968-21.248 36.2496 166.4512 237.4656 354.1504 315.9552 402.2784 3.4304 2.0992 7.7312 1.9968 11.0592-0.256 109.5168-75.008 321.9456-273.8688 321.9456-451.6864 0.0512-77.6192-32.8192-157.44-72.192-205.056z" fill="#ffe048" p-id="7412"></path><path d="M514.6112 937.2672a30.6176 30.6176 0 0 1-16.0256-4.5056C407.296 876.8 167.2192 647.68 167.2192 463.36c0-191.7952 156.0064-347.8016 347.8016-347.8016 56.2176 0 112.0768 13.7216 161.536 39.7312a20.44928 20.44928 0 0 1 8.6016 27.648 20.49536 20.49536 0 0 1-27.648 8.6016c-43.6224-22.8864-92.8768-35.0208-142.4896-35.0208-169.1648 0-306.8416 137.6256-306.8416 306.8416 0 157.3376 210.0736 368.7936 306.176 430.8992 121.2416-84.8384 307.456-272.7936 307.456-430.8992 0-70.7584-23.3984-137.2672-67.6864-192.256a20.54656 20.54656 0 0 1 3.1232-28.8256c8.8064-7.1168 21.7088-5.6832 28.8256 3.1232 49.5104 61.4912 76.7488 138.8544 76.7488 217.9584 0 198.5024-238.7968 405.5552-330.8544 468.5824a31.04768 31.04768 0 0 1-17.3568 5.3248z" fill="#55524F" p-id="7413"></path><path d="M514.9696 610.5088c-75.52 0-136.96-61.44-136.96-136.96s61.44-136.96 136.96-136.96 136.96 61.44 136.96 136.96-61.44 136.96-136.96 136.96z m0-232.96c-52.9408 0-96 43.0592-96 96s43.0592 96 96 96 96-43.0592 96-96-43.0592-96-96-96z" fill="#55524F" p-id="7414"></path></svg>